<svg width="61" height="60" viewBox="0 0 61 60" fill="none" xmlns="http://www.w3.org/2000/svg">
<path d="M60.172 9.93608C60.172 23.2361 60.172 36.4981 60.172 49.7981C59.982 53.0661 58.462 55.5361 55.802 57.4361C54.092 58.6521 52.154 59.1081 50.14 59.1081C36.992 59.1081 23.844 59.1081 10.696 59.1081C6.44 59.1081 3.43799 56.9801 1.46199 53.2941C0.701995 51.8881 0.587995 50.3681 0.587995 48.8481C0.549995 36.2321 0.587995 23.5781 0.587995 10.9621C0.587995 6.55408 2.71599 3.55208 6.47799 1.50008C7.54199 0.892076 8.79599 1.12008 9.89799 0.778076C23.616 0.778076 37.334 0.778076 51.052 0.778076C53.142 0.854076 54.89 1.61408 56.486 2.94408C58.31 4.46408 59.716 6.25008 60.02 8.68208C60.058 9.06208 59.83 9.40407 60.02 9.78407C60.058 9.82207 60.096 9.86008 60.172 9.93608Z" fill="#330000"/>
<path d="M28.176 15.56C31.14 23.92 34.104 32.28 37.068 40.64C37.182 41.02 37.562 41.438 37.106 41.856C35.282 42.198 33.42 42.122 31.596 41.894C30.988 40.146 30.38 38.36 29.772 36.612C29.658 36.27 29.696 35.814 29.24 35.662C26.276 35.852 23.312 35.776 20.348 35.7C19.512 37.068 19.322 38.664 18.752 40.108C18.562 40.526 18.41 40.982 18.22 41.4C16.776 42.008 15.256 41.704 13.774 41.704C13.394 41.704 13.128 41.476 12.976 41.134C15.446 33.952 17.878 26.77 20.386 19.588C20.842 18.258 21.146 16.928 21.336 15.522C22.742 15.028 24.224 15.332 25.63 15.332C26.504 15.332 27.378 15.028 28.176 15.56Z" fill="#FE9900"/>
<path d="M45.466 22.0201C45.466 22.0961 45.504 22.1721 45.542 22.2481C45.542 22.3241 45.58 22.4001 45.58 22.4761C45.618 28.7841 45.618 35.0921 45.58 41.4001C45.58 41.4761 45.542 41.5521 45.542 41.6281C45.504 41.7041 45.504 41.7801 45.466 41.8561C43.718 42.1601 41.97 42.0841 40.222 41.8941C40.146 41.8181 40.07 41.7041 39.956 41.6281C39.766 41.3621 39.842 41.0581 39.842 40.7541C39.842 34.8261 39.842 28.8981 39.842 22.9701C39.842 22.6281 39.728 22.2481 40.032 21.9821L39.994 22.0581C41.818 21.7161 43.642 21.8301 45.466 22.0201Z" fill="#FE9900"/>
<path d="M43.642 13.6599C44.858 14.0019 45.504 14.9139 45.96 16.0159C46.302 16.3579 46.074 16.8139 46.15 17.2319C46.074 17.6499 45.96 18.0299 45.694 18.3719C43.794 20.8039 41.21 20.5759 39.804 17.8399C39.424 17.2319 39.576 16.6239 39.728 16.0159C40.184 14.8759 40.944 14.1159 42.084 13.6979C42.616 13.3559 43.11 13.3939 43.642 13.6599Z" fill="#FD9900"/>
<path d="M40.032 22.02C40.032 28.556 39.994 35.13 39.994 41.666C39.614 41.324 39.728 40.868 39.728 40.45C39.728 34.712 39.728 28.974 39.728 23.198C39.728 22.78 39.576 22.324 40.032 22.02Z" fill="#180000"/>
<path d="M45.542 22.2482C45.618 22.2482 45.656 22.2482 45.732 22.2482C45.922 22.5142 45.846 22.8182 45.846 23.1222C45.846 29.0122 45.846 34.8642 45.846 40.7542C45.846 41.0582 45.922 41.3622 45.732 41.6282H45.618H45.504H45.428L45.352 41.5902C45.276 35.1302 45.238 28.6702 45.352 22.2102C45.466 22.2482 45.504 22.2482 45.542 22.2482Z" fill="#925200"/>
<path d="M45.732 41.666C45.732 35.206 45.732 28.746 45.732 22.248C46.074 22.552 45.998 22.97 45.998 23.35C45.998 29.088 45.998 34.826 45.998 40.564C45.998 40.944 46.112 41.362 45.732 41.666Z" fill="#270000"/>
<path d="M20.348 35.7001C23.312 35.5481 26.276 35.6241 29.24 35.6621C28.518 36.1181 27.72 35.8901 26.96 35.8521C24.718 35.8141 22.514 36.1561 20.348 35.7001Z" fill="#150000"/>
<path d="M28.176 15.5602C25.934 15.5602 23.654 15.5602 21.412 15.5222C21.564 15.1802 21.868 15.1802 22.172 15.1802C23.92 15.1802 25.706 15.1802 27.454 15.1802C27.72 15.1802 28.024 15.2182 28.176 15.5602Z" fill="#210000"/>
<path d="M13.014 41.134C14.572 41.666 16.168 41.324 17.764 41.324C17.916 41.324 18.068 41.362 18.258 41.4C18.182 41.514 18.106 41.59 18.03 41.704C16.358 42.008 14.686 42.122 13.014 41.628C12.976 41.476 12.976 41.324 13.014 41.134Z" fill="#FE9D00"/>
<path d="M45.466 22.02C43.642 22.02 41.818 22.058 39.956 22.058C41.818 21.526 43.642 21.564 45.466 22.02Z" fill="#230000"/>
<path d="M31.558 41.894C33.382 41.894 35.244 41.856 37.068 41.856C35.244 42.426 33.42 42.35 31.558 41.894Z" fill="#250000"/>
<path d="M40.222 41.932C41.97 41.932 43.718 41.894 45.466 41.894C43.718 42.388 41.97 42.35 40.222 41.932Z" fill="#1F0000"/>
<path d="M12.976 41.666C14.648 41.704 16.32 41.704 17.992 41.742C17.992 41.818 17.954 41.894 17.954 41.97C16.282 42.122 14.648 42.236 12.976 41.932C12.976 41.818 12.976 41.742 12.976 41.666Z" fill="#A15900"/>
<path d="M12.976 41.894C14.648 41.894 16.282 41.932 17.954 41.932C16.282 42.312 14.648 42.388 12.976 41.894Z" fill="#250000"/>
<path d="M39.728 15.9782C39.766 16.5862 39.766 17.1942 39.804 17.8022C39.196 17.3082 39.538 16.6242 39.5 16.0162C39.5 15.9782 39.576 15.9402 39.614 15.9402C39.652 15.9402 39.69 15.9782 39.728 15.9782Z" fill="#1E0000"/>
<path d="M43.642 13.6602C43.11 13.6602 42.616 13.6602 42.084 13.6982C42.616 13.2041 43.11 13.2041 43.642 13.6602Z" fill="#1D0000"/>
<path d="M59.83 8.91016C59.868 9.25216 59.906 9.55616 59.944 9.89816C59.412 9.59416 59.64 9.25216 59.83 8.91016Z" fill="#220000"/>
<path d="M45.998 17.27C45.96 16.852 45.96 16.396 45.922 15.978C46.416 16.32 46.15 16.852 46.226 17.27C46.188 17.422 46.112 17.422 45.998 17.27Z" fill="#200000"/>
<path d="M45.998 17.27C46.074 17.27 46.15 17.27 46.264 17.27C46.188 17.688 46.112 18.106 45.656 18.296C45.77 17.992 45.884 17.612 45.998 17.27Z" fill="#230000"/>
<path d="M21.868 29.848C22.78 26.922 23.692 23.958 24.566 21.032C24.68 20.994 24.756 20.956 24.87 20.918C25.782 23.806 26.656 26.694 27.568 29.582C27.492 30.076 27.226 30.418 26.732 30.418C25.136 30.418 23.54 30.684 21.944 30.266C21.83 30.19 21.792 30.038 21.868 29.848Z" fill="#330000"/>
<path d="M21.868 29.8481C21.906 29.9241 21.906 30.0381 21.944 30.1141C23.654 30.3801 25.364 30.1901 27.074 30.2281C27.378 30.2281 27.53 30.0001 27.682 29.8101C27.948 30.0001 27.948 30.3041 27.91 30.6081C25.82 30.8741 23.73 30.8741 21.64 30.6081C21.602 30.3421 21.602 30.0761 21.868 29.8481Z" fill="#A15900"/>
<path d="M27.682 29.8481C27.606 30.0001 27.568 30.2661 27.492 30.3041C25.63 30.3801 23.768 30.6841 21.944 30.1521C23.426 30.1521 24.908 30.1141 26.352 30.1521C26.846 30.1521 27.302 30.0761 27.606 29.6201C27.644 29.6961 27.682 29.7721 27.682 29.8481Z" fill="#240000"/>
<path d="M21.64 30.646C23.73 30.646 25.82 30.646 27.91 30.646C26.162 31.254 24.338 30.798 22.552 30.912C22.248 30.95 21.868 30.988 21.64 30.646Z" fill="#FE9D00"/>
<path d="M45.428 22.2861C45.542 28.7461 45.542 35.2061 45.428 41.6661C45.2 41.3621 45.238 41.0201 45.238 40.6781C45.238 34.9021 45.238 29.0881 45.238 23.3121C45.238 22.9321 45.162 22.5521 45.428 22.2861Z" fill="#FE9D00"/>
</svg>
