<svg width="92" height="84" viewBox="0 0 92 84" fill="none" xmlns="http://www.w3.org/2000/svg">
<path d="M23.6202 76.6024L24.64 82.2423L31.7787 82.2423L32.1867 76.6024L39.3254 73.5656L43.6087 77.0363L48.7078 71.1795L45.4443 67.058L48.7078 59.6827L53.8069 58.5981L53.8069 51.4398L48.2998 50.3552L45.6483 42.98L48.5038 38.6416L43.6087 33.0017L39.7333 36.4724L31.9827 33.0017L31.7787 28.0126L24.2321 28.0126L23.6202 33.2186L16.8894 36.4724L12.4022 33.0017L7.50702 38.4247L10.3625 43.1969L7.50702 50.5722L2 51.006L2.20396 58.5981L7.91496 59.2489L10.5665 66.6242L7.50702 71.6133L12.4022 76.8193L17.0933 73.3486L23.6202 76.6024Z" fill="url(#paint0_linear_316_2)" stroke="#2C3E95" stroke-width="2" stroke-miterlimit="10"/>
<path d="M28.3114 65.9734C34.2817 65.9734 39.1215 60.9233 39.1215 54.6936C39.1215 48.464 34.2817 43.4138 28.3114 43.4138C22.3411 43.4138 17.5013 48.464 17.5013 54.6936C17.5013 60.9233 22.3411 65.9734 28.3114 65.9734Z" fill="url(#paint1_linear_316_2)" stroke="#2C3E95" stroke-width="2" stroke-miterlimit="10"/>
<path d="M60.7625 49.5899L61.7823 55.2297L68.921 55.2297L69.329 49.5899L76.4677 46.553L80.751 50.0237L85.8501 44.1669L82.5866 40.0454L85.8501 32.6702L90.9492 31.5856L90.9492 24.4273L85.4421 23.3427L82.7906 15.9674L85.6461 11.629L80.751 5.98914L76.8756 9.45984L69.125 5.98914L68.921 1L61.3744 1L60.7625 6.20606L54.0317 9.45984L49.5445 5.98914L44.6493 11.4121L47.5048 16.1843L44.6493 23.5596L39.1423 23.9934L39.3463 31.5856L45.0573 32.2363L47.7088 39.6116L44.6493 44.6007L49.5445 49.8068L54.2356 46.3361L60.7625 49.5899Z" fill="url(#paint2_linear_316_2)" stroke="#2C3E95" stroke-width="2" stroke-miterlimit="10"/>
<path d="M65.4537 38.9608C71.424 38.9608 76.2638 33.9107 76.2638 27.681C76.2638 21.4514 71.424 16.4012 65.4537 16.4012C59.4834 16.4012 54.6436 21.4514 54.6436 27.681C54.6436 33.9107 59.4834 38.9608 65.4537 38.9608Z" fill="url(#paint3_linear_316_2)" stroke="#2C3E95" stroke-width="2" stroke-miterlimit="10"/>
<defs>
<linearGradient id="paint0_linear_316_2" x1="27.9034" y1="28.0126" x2="27.9034" y2="82.2423" gradientUnits="userSpaceOnUse">
<stop stop-color="#C4C4C4"/>
<stop offset="0.510417" stop-color="white"/>
<stop offset="1" stop-color="#C4C4C4"/>
</linearGradient>
<linearGradient id="paint1_linear_316_2" x1="28.3114" y1="43.4138" x2="28.3114" y2="65.9734" gradientUnits="userSpaceOnUse">
<stop stop-color="#C4C4C4"/>
<stop offset="0.510417" stop-color="white"/>
<stop offset="1" stop-color="#C4C4C4"/>
</linearGradient>
<linearGradient id="paint2_linear_316_2" x1="65.0457" y1="1" x2="65.0457" y2="55.2297" gradientUnits="userSpaceOnUse">
<stop stop-color="#C4C4C4"/>
<stop offset="0.510417" stop-color="white"/>
<stop offset="1" stop-color="#C4C4C4"/>
</linearGradient>
<linearGradient id="paint3_linear_316_2" x1="65.4537" y1="16.4012" x2="65.4537" y2="38.9608" gradientUnits="userSpaceOnUse">
<stop stop-color="#C4C4C4"/>
<stop offset="0.510417" stop-color="white"/>
<stop offset="1" stop-color="#C4C4C4"/>
</linearGradient>
</defs>
</svg>
