<svg width="164" height="164" viewBox="0 0 164 164" fill="none" xmlns="http://www.w3.org/2000/svg">
<path d="M37.228 29.2741L15.99 64.3701C-8.19998 104.304 20.008 155.8 66.092 155.8H139.072C154.734 155.8 164.41 138.498 156.538 124.804L102.09 30.2581C86.018 2.37806 53.792 1.88606 37.228 29.2741Z" fill="#FDE74C"/>
<path d="M110.618 80.1961H27.142C24.354 80.1961 22.14 77.9821 22.14 75.1941V59.0401C22.14 56.2521 24.354 54.0381 27.142 54.0381H110.618C113.406 54.0381 115.62 56.2521 115.62 59.0401V75.1941C115.62 77.9821 113.406 80.1961 110.618 80.1961Z" fill="#4773FF"/>
<path d="M126.772 108.486H42.148C40.18 108.486 38.54 106.846 38.54 104.878V86.4281C38.54 84.4601 40.18 82.8201 42.148 82.8201H126.772C128.74 82.8201 130.38 84.4601 130.38 86.4281V104.878C130.38 106.846 128.74 108.486 126.772 108.486Z" fill="#4773FF"/>
<path d="M143.336 137.596H58.384C56.006 137.596 54.12 135.71 54.12 133.332V115.784C54.12 113.406 56.006 111.52 58.384 111.52H143.254C145.632 111.52 147.518 113.406 147.518 115.784V133.332C147.6 135.71 145.714 137.596 143.336 137.596Z" fill="#4773FF"/>
<path d="M45.428 71.1759L38.376 68.2239V66.7479L45.428 63.7959V65.7639L41.082 67.4859L45.428 69.2079V71.1759Z" fill="#F6F0ED"/>
<path d="M51.742 61.418L48.216 73.718H46.002L49.528 61.418H51.742Z" fill="#F6F0ED"/>
<path d="M62.156 61.6641V73.4721H59.04V68.4701H58.138V73.4721H55.104V61.6641H58.138V65.9281H59.04V61.6641H62.156Z" fill="#F6F0ED"/>
<path d="M69.536 61.6641V64.0421H67.732V73.4721H64.698V64.0421H62.894V61.6641H69.536Z" fill="#F6F0ED"/>
<path d="M79.786 61.6641V73.4721H77.08V65.5181L76.014 73.4721H74.128L72.98 65.6821V73.4721H70.274V61.6641H74.292C74.374 62.4021 74.538 63.2221 74.62 64.2061L75.03 67.2401L75.768 61.7461H79.786V61.6641Z" fill="#F6F0ED"/>
<path d="M84.05 61.6641V71.0941H85.936V73.4721H81.016V61.6641H84.05Z" fill="#F6F0ED"/>
<path d="M89.134 63.7959L96.186 66.7479V68.2239L89.134 71.1759V69.2079L93.48 67.4859L89.134 65.7639V63.7959Z" fill="#F6F0ED"/>
<path d="M67.568 88.478V89.954C67.158 89.954 66.912 89.954 66.83 90.036C66.748 90.036 66.666 90.118 66.584 90.282C66.502 90.446 66.502 90.774 66.502 91.348V97.334C66.502 97.826 66.502 98.236 66.584 98.318C66.666 98.482 66.666 98.564 66.83 98.564C66.912 98.646 67.24 98.646 67.65 98.646V100.122H66.748C65.928 100.122 65.272 100.04 64.862 99.876C64.452 99.712 64.206 99.466 64.042 99.22C63.878 98.892 63.878 98.318 63.878 97.334V91.43C63.878 90.446 63.96 89.79 64.042 89.544C64.206 89.216 64.452 88.97 64.862 88.888C65.272 88.724 65.846 88.642 66.666 88.642H67.568V88.478Z" fill="#F6F0ED"/>
<path d="M68.06 96.186V94.464C68.552 94.464 68.962 94.3 69.208 93.972C69.454 93.644 69.618 92.988 69.618 91.922C69.618 91.102 69.618 90.528 69.7 90.118C69.782 89.708 69.864 89.38 70.11 89.134C70.356 88.888 70.602 88.642 71.012 88.56C71.34 88.478 71.914 88.396 72.57 88.396H72.98V90.118C72.324 90.118 71.832 90.2 71.75 90.364C71.586 90.528 71.504 90.774 71.504 91.184C71.504 92.332 71.422 93.07 71.422 93.398C71.34 93.726 71.258 94.054 71.094 94.382C70.93 94.71 70.602 94.956 70.192 95.284C70.602 95.53 70.93 95.858 71.094 96.186C71.258 96.514 71.422 97.088 71.422 97.744L71.504 99.794C71.586 99.958 71.668 100.122 71.832 100.286C71.996 100.368 72.406 100.45 72.98 100.45V102.172H72.57C71.832 102.172 71.176 102.09 70.766 101.926C70.356 101.762 70.028 101.434 69.864 101.106C69.7 100.696 69.618 100.04 69.618 99.22C69.618 98.236 69.618 97.58 69.536 97.334C69.454 97.088 69.372 96.842 69.126 96.596C68.962 96.35 68.634 96.268 68.06 96.186Z" fill="#F6F0ED"/>
<path d="M80.196 88.478V96.268C80.196 97.416 80.196 98.154 80.196 98.482C80.196 98.81 80.032 99.138 79.868 99.384C79.704 99.63 79.376 99.876 79.048 99.958C78.72 100.04 78.228 100.122 77.572 100.122H76.096V98.072C76.26 98.072 76.424 98.072 76.506 98.072C76.752 98.072 76.916 97.99 76.998 97.908C77.162 97.826 77.162 97.662 77.244 97.498C77.244 97.334 77.244 97.088 77.244 96.596V88.396H80.196V88.478Z" fill="#F6F0ED"/>
<path d="M87.74 92.0039H84.952V91.1019C84.952 90.6919 84.952 90.4459 84.87 90.3639C84.788 90.2819 84.706 90.1999 84.542 90.1999C84.378 90.1999 84.214 90.2819 84.132 90.4459C84.05 90.6099 83.968 90.8559 83.968 91.1019C83.968 91.5119 84.05 91.7579 84.132 92.0039C84.214 92.1679 84.542 92.4139 84.952 92.7419C86.264 93.5619 87.166 94.2179 87.494 94.7099C87.822 95.2019 87.986 96.0219 87.986 97.1699C87.986 97.9899 87.904 98.6459 87.658 98.9739C87.494 99.3839 87.084 99.7119 86.51 99.9579C85.936 100.204 85.28 100.368 84.542 100.368C83.722 100.368 83.066 100.204 82.492 99.8759C81.918 99.5479 81.508 99.2199 81.344 98.7279C81.18 98.2359 81.18 97.5799 81.18 96.6779V95.9399H83.968V97.3339C83.968 97.7439 83.968 98.0719 84.05 98.1539C84.132 98.3179 84.296 98.3179 84.46 98.3179C84.624 98.3179 84.788 98.2359 84.87 98.0719C84.952 97.9079 85.034 97.6619 85.034 97.3339C85.034 96.6779 84.952 96.1859 84.788 96.0219C84.624 95.7759 84.132 95.4479 83.394 94.9559C82.656 94.4639 82.164 94.1359 81.918 93.8899C81.672 93.6439 81.508 93.3159 81.344 92.9879C81.18 92.5779 81.098 92.0859 81.098 91.4299C81.098 90.5279 81.18 89.8719 81.426 89.4619C81.672 89.0519 82 88.7239 82.492 88.4779C82.984 88.2319 83.64 88.1499 84.296 88.1499C85.116 88.1499 85.772 88.3139 86.264 88.5599C86.838 88.8059 87.166 89.1339 87.33 89.5439C87.494 89.9539 87.576 90.6099 87.576 91.5119V92.0039H87.74Z" fill="#F6F0ED"/>
<path d="M96.104 96.186C95.612 96.186 95.202 96.35 94.956 96.678C94.71 97.006 94.546 97.662 94.546 98.728C94.546 99.548 94.546 100.122 94.464 100.532C94.382 100.942 94.3 101.27 94.054 101.516C93.808 101.762 93.562 102.008 93.152 102.09C92.824 102.172 92.25 102.254 91.594 102.254H91.184V100.532C91.84 100.532 92.25 100.45 92.414 100.286C92.578 100.122 92.66 99.876 92.66 99.466C92.66 98.236 92.742 97.498 92.824 97.088C92.906 96.76 92.988 96.432 93.152 96.104C93.316 95.776 93.644 95.53 93.972 95.284C93.562 95.038 93.234 94.792 93.07 94.464C92.906 94.218 92.824 93.89 92.742 93.644C92.66 93.316 92.66 92.742 92.578 91.922C92.578 91.102 92.496 90.61 92.496 90.528C92.496 90.446 92.332 90.282 92.25 90.2C92.086 90.118 91.758 90.036 91.102 90.036V88.314H91.512C92.25 88.314 92.906 88.396 93.316 88.56C93.726 88.724 94.054 89.052 94.218 89.38C94.382 89.79 94.464 90.446 94.464 91.266C94.464 92.25 94.464 92.906 94.546 93.152C94.628 93.398 94.792 93.644 94.956 93.89C95.12 94.136 95.53 94.218 96.022 94.218V96.186H96.104Z" fill="#F6F0ED"/>
<path d="M96.596 88.478H97.498C98.318 88.478 98.974 88.56 99.302 88.724C99.712 88.888 99.958 89.134 100.122 89.38C100.286 89.708 100.286 90.364 100.286 91.266V97.17C100.286 98.154 100.204 98.81 100.122 99.056C99.958 99.384 99.712 99.548 99.302 99.712C98.892 99.876 98.318 99.958 97.416 99.958H96.514V98.482C96.924 98.482 97.17 98.482 97.334 98.4C97.416 98.318 97.498 98.236 97.58 98.154C97.662 97.99 97.662 97.662 97.662 97.17V91.184C97.662 90.61 97.662 90.282 97.58 90.118C97.498 89.954 97.416 89.954 97.334 89.872C97.252 89.872 96.924 89.79 96.596 89.79V88.478Z" fill="#F6F0ED"/>
<path d="M81.426 125.624V123.902C81.918 123.902 82.328 123.738 82.656 123.41C82.902 123.082 83.066 122.426 83.066 121.36C83.066 120.54 83.066 119.966 83.148 119.556C83.23 119.146 83.394 118.818 83.558 118.572C83.804 118.326 84.132 118.08 84.46 117.998C84.87 117.916 85.362 117.834 86.018 117.834H86.428V119.556C85.69 119.556 85.28 119.638 85.198 119.802C85.034 119.966 84.952 120.212 84.952 120.622C84.952 121.77 84.87 122.59 84.87 122.918C84.788 123.246 84.706 123.574 84.542 123.902C84.378 124.23 84.05 124.558 83.64 124.804C84.05 125.05 84.378 125.378 84.624 125.706C84.87 126.034 84.952 126.608 84.952 127.264L85.034 129.396C85.116 129.56 85.198 129.724 85.362 129.888C85.526 129.97 85.936 130.052 86.51 130.052V131.774H86.1C85.362 131.774 84.706 131.692 84.296 131.528C83.886 131.364 83.558 131.036 83.394 130.626C83.23 130.216 83.148 129.56 83.148 128.658C83.148 127.674 83.148 127.018 83.066 126.772C82.984 126.526 82.902 126.28 82.656 126.034C82.328 125.788 82 125.706 81.426 125.624Z" fill="#F6F0ED"/>
<path d="M97.17 122.918H94.136V120.868C94.136 120.294 94.136 119.884 94.054 119.72C93.972 119.556 93.808 119.474 93.644 119.474C93.398 119.474 93.234 119.556 93.152 119.72C93.07 119.884 93.07 120.294 93.07 120.868V126.362C93.07 126.936 93.07 127.346 93.152 127.51C93.234 127.674 93.398 127.756 93.644 127.756C93.89 127.756 94.054 127.674 94.054 127.51C94.136 127.346 94.136 126.936 94.136 126.28V124.804H97.17V125.296C97.17 126.526 97.088 127.346 96.924 127.92C96.76 128.412 96.35 128.904 95.776 129.232C95.202 129.642 94.464 129.806 93.562 129.806C92.66 129.806 91.922 129.642 91.348 129.314C90.774 128.986 90.364 128.576 90.2 127.92C90.036 127.346 89.954 126.444 89.954 125.296V121.852C89.954 121.032 89.954 120.376 90.036 119.966C90.118 119.556 90.282 119.146 90.528 118.736C90.856 118.326 91.184 117.998 91.758 117.834C92.25 117.588 92.824 117.506 93.562 117.506C94.464 117.506 95.202 117.67 95.776 117.998C96.35 118.326 96.76 118.818 96.924 119.31C97.088 119.802 97.17 120.622 97.17 121.77V122.918Z" fill="#F6F0ED"/>
<path d="M104.714 121.36H101.844V120.458C101.844 120.048 101.844 119.802 101.762 119.638C101.68 119.556 101.598 119.474 101.434 119.474C101.27 119.474 101.106 119.556 101.024 119.72C100.942 119.884 100.86 120.13 100.86 120.376C100.86 120.786 100.942 121.032 101.024 121.278C101.106 121.442 101.434 121.688 101.926 122.016C103.32 122.836 104.14 123.492 104.55 123.984C104.878 124.476 105.124 125.378 105.124 126.526C105.124 127.346 105.042 128.002 104.796 128.412C104.632 128.822 104.222 129.15 103.648 129.396C103.074 129.642 102.418 129.806 101.68 129.806C100.86 129.806 100.122 129.642 99.548 129.314C98.974 128.986 98.564 128.576 98.4 128.084C98.236 127.592 98.154 126.936 98.154 126.034V125.296H101.024V126.772C101.024 127.182 101.024 127.51 101.106 127.592C101.188 127.756 101.352 127.756 101.516 127.756C101.68 127.756 101.844 127.674 102.008 127.51C102.09 127.346 102.172 127.1 102.172 126.772C102.172 126.116 102.09 125.624 101.926 125.378C101.762 125.132 101.27 124.804 100.45 124.312C99.712 123.82 99.22 123.41 98.892 123.246C98.646 123 98.4 122.672 98.236 122.262C98.072 121.852 97.99 121.36 97.99 120.704C97.99 119.802 98.072 119.146 98.318 118.736C98.564 118.326 98.892 117.998 99.466 117.752C99.958 117.506 100.614 117.424 101.352 117.424C102.172 117.424 102.828 117.588 103.402 117.834C103.976 118.08 104.304 118.408 104.55 118.818C104.714 119.228 104.796 119.884 104.796 120.786V121.36H104.714Z" fill="#F6F0ED"/>
<path d="M112.504 121.36H109.634V120.458C109.634 120.048 109.634 119.802 109.552 119.638C109.47 119.556 109.388 119.474 109.224 119.474C109.06 119.474 108.896 119.556 108.814 119.72C108.732 119.884 108.65 120.13 108.65 120.376C108.65 120.786 108.732 121.032 108.814 121.278C108.896 121.442 109.224 121.688 109.716 122.016C111.11 122.836 111.93 123.492 112.34 123.984C112.668 124.476 112.914 125.378 112.914 126.526C112.914 127.346 112.832 128.002 112.586 128.412C112.422 128.822 112.012 129.15 111.438 129.396C110.864 129.642 110.208 129.806 109.47 129.806C108.65 129.806 107.912 129.642 107.338 129.314C106.764 128.986 106.354 128.576 106.19 128.084C106.026 127.592 105.944 126.936 105.944 126.034V125.296H108.814V126.772C108.814 127.182 108.814 127.51 108.896 127.592C108.978 127.756 109.142 127.756 109.306 127.756C109.47 127.756 109.634 127.674 109.798 127.51C109.88 127.346 109.962 127.1 109.962 126.772C109.962 126.116 109.88 125.624 109.716 125.378C109.552 125.132 109.06 124.804 108.24 124.312C107.502 123.82 107.01 123.41 106.682 123.246C106.436 123 106.19 122.672 106.026 122.262C105.862 121.852 105.78 121.36 105.78 120.704C105.78 119.802 105.862 119.146 106.108 118.736C106.354 118.326 106.682 117.998 107.256 117.752C107.748 117.506 108.404 117.424 109.142 117.424C109.962 117.424 110.618 117.588 111.192 117.834C111.766 118.08 112.094 118.408 112.34 118.818C112.504 119.228 112.586 119.884 112.586 120.786V121.36H112.504Z" fill="#F6F0ED"/>
<path d="M120.95 125.624C120.458 125.624 120.048 125.788 119.72 126.116C119.474 126.444 119.31 127.1 119.31 128.166C119.31 128.986 119.31 129.642 119.228 129.97C119.146 130.38 119.064 130.708 118.818 130.954C118.572 131.2 118.244 131.446 117.916 131.528C117.506 131.61 117.014 131.692 116.358 131.692H115.948V129.97C116.604 129.97 117.014 129.888 117.178 129.724C117.342 129.56 117.424 129.314 117.424 128.822C117.424 127.592 117.506 126.772 117.588 126.444C117.67 126.116 117.752 125.788 117.916 125.46C118.08 125.132 118.408 124.886 118.818 124.64C118.408 124.394 118.08 124.066 117.916 123.82C117.752 123.574 117.67 123.246 117.588 123C117.506 122.672 117.506 122.098 117.424 121.278C117.424 120.458 117.342 119.966 117.342 119.802C117.342 119.72 117.178 119.556 117.096 119.474C116.932 119.392 116.604 119.31 115.948 119.31V117.588H116.358C117.178 117.588 117.752 117.67 118.162 117.834C118.572 117.998 118.9 118.326 119.064 118.736C119.228 119.146 119.31 119.802 119.31 120.704C119.31 121.77 119.31 122.426 119.392 122.672C119.474 122.918 119.638 123.164 119.802 123.41C119.966 123.656 120.376 123.738 120.868 123.738V125.624H120.95Z" fill="#F6F0ED"/>
</svg>
