<svg width="166" height="166" viewBox="0 0 166 166" fill="none" xmlns="http://www.w3.org/2000/svg">
<path d="M37.682 29.631L16.185 65.155C-8.29999 105.576 20.252 157.7 66.898 157.7H140.768C156.621 157.7 166.415 140.187 158.447 126.326L103.335 30.627C87.067 2.40696 54.448 1.90896 37.682 29.631Z" fill="#FDE74C"/>
<path d="M70.135 144.42C98.3264 144.42 121.18 121.566 121.18 93.3751C121.18 65.1837 98.3264 42.3301 70.135 42.3301C41.9436 42.3301 19.09 65.1837 19.09 93.3751C19.09 121.566 41.9436 144.42 70.135 144.42Z" fill="#4773FF"/>
<path d="M69.305 69.1391C62.084 69.7201 55.112 73.0401 50.796 80.7591C48.14 85.4071 44.82 89.3081 40.67 92.6281C39.757 93.3751 38.844 94.1221 37.848 92.8771C36.852 91.5491 37.931 90.8851 38.844 90.2211C42.745 87.1501 45.733 83.4151 48.223 79.0991C54.116 68.8901 65.902 64.1591 77.439 67.0641C88.81 69.9691 96.861 80.0121 97.193 91.7151C97.276 94.7861 96.695 97.7741 95.616 100.679C93.458 106.738 95.284 111.718 99.434 116.2C99.683 116.532 100.015 116.781 100.347 117.113C101.094 117.86 101.26 118.69 100.43 119.52C99.6 120.267 98.936 119.852 98.189 119.271C93.126 115.37 90.387 107.319 92.047 101.011C93.043 97.2761 94.454 93.7071 93.873 89.6401C92.213 77.6881 82.668 69.1391 69.305 69.1391Z" fill="#F6F0ED"/>
<path d="M70.218 83.83C77.854 83.913 82.502 90.221 80.261 97.359C78.435 103.252 74.866 108.232 70.965 112.88C65.404 119.603 58.681 125.247 51.626 130.227C50.713 130.891 49.551 131.887 48.555 130.559C47.476 129.148 48.887 128.484 49.8 127.82C57.934 122.093 65.404 115.619 71.297 107.568C73.87 103.999 76.277 100.347 77.522 96.031C78.601 92.545 77.605 89.806 74.617 87.98C71.712 86.237 68.226 86.486 65.736 88.727C64.159 90.138 62.914 91.881 61.835 93.707C56.274 102.671 48.97 109.975 40.255 115.868C39.674 116.283 39.176 116.615 38.512 116.947C37.682 117.362 37.018 117.113 36.52 116.366C36.105 115.785 36.188 115.038 36.852 114.54C37.267 114.125 37.765 113.793 38.263 113.461C46.729 107.817 53.867 100.845 59.179 92.13C60.839 89.391 62.665 86.735 65.57 85.075C67.064 84.162 68.724 83.664 70.218 83.83Z" fill="#F6F0ED"/>
<path d="M83.498 106.655C83.415 103.335 84.245 99.8489 84.826 96.3629C86.237 87.897 83 81.589 75.613 78.767C68.309 76.028 60.175 78.767 56.191 85.822C52.207 92.877 47.559 99.3509 41.002 104.248C40.421 104.663 39.923 105.078 39.342 105.41C38.678 105.825 38.014 105.576 37.516 105.078C37.018 104.497 37.018 103.833 37.516 103.169C37.765 102.837 38.097 102.588 38.512 102.339C44.654 97.94 49.302 92.213 52.788 85.49C56.191 78.933 61.752 75.1979 69.139 74.7829C81.174 74.0359 89.972 84.245 87.98 96.3629C87.482 99.6 86.735 102.837 86.569 106.157C86.154 113.129 88.976 118.441 94.454 122.508C94.62 122.674 94.869 122.84 95.035 122.923C95.865 123.587 96.778 124.251 95.865 125.413C95.035 126.492 94.039 125.994 93.209 125.413C86.901 120.848 83.249 114.955 83.498 106.655Z" fill="#F6F0ED"/>
<path d="M101.758 76.5261C101.675 77.024 101.509 77.5221 101.011 77.7711C100.43 78.1031 99.849 78.1031 99.351 77.6881C98.853 77.2731 98.438 76.6921 98.023 76.1941C95.201 72.7081 92.047 69.554 88.312 66.981C76.526 58.764 62.914 59.096 51.543 67.9771C47.061 71.4631 43.326 75.7791 40.255 80.5101C39.674 81.4231 39.176 82.9171 37.599 82.0041C36.105 81.0911 37.018 79.9291 37.599 79.0161C41.998 72.21 47.393 66.4 54.448 62.416C65.155 56.357 75.945 56.357 86.735 62.25C92.296 65.321 96.861 69.5541 100.762 74.5341C101.177 75.1151 101.758 75.6961 101.758 76.5261Z" fill="#F6F0ED"/>
<path d="M70.633 49.3021C80.925 49.4681 89.889 53.0371 97.608 59.7601C98.438 60.5071 99.766 61.3371 98.687 62.6651C97.442 64.0761 96.446 62.8311 95.533 62.0011C79.763 48.223 57.436 49.3851 42.911 64.5741C42.247 65.2381 41.749 66.1511 40.67 65.9851C40.255 65.9021 39.757 65.4871 39.508 65.0721C39.01 64.1591 39.674 63.4951 40.255 62.8311C46.148 56.4401 53.286 52.2901 61.752 50.298C64.74 49.717 67.645 49.2191 70.633 49.3021Z" fill="#F6F0ED"/>
<path d="M41.5 125.994C40.504 126.077 40.089 125.828 39.674 125.247C39.342 124.666 39.425 124.085 39.84 123.67C40.172 123.338 40.587 123.006 41.002 122.757C52.124 115.204 61.42 105.825 68.807 94.6201C68.89 94.4541 68.973 94.3711 69.056 94.2051C69.554 93.2921 70.301 92.7111 71.297 93.2921C72.459 93.9561 72.21 94.9521 71.546 95.8651C68.392 100.679 64.823 105.161 60.922 109.477C55.527 115.37 49.468 120.516 42.911 124.998C42.579 125.33 41.915 125.745 41.5 125.994Z" fill="#F6F0ED"/>
<path d="M104.912 98.1059C104.995 101.343 104.331 105.244 103.169 109.062C102.837 110.141 102.505 111.386 101.011 110.888C99.517 110.39 99.932 109.311 100.264 108.149C102.754 99.8489 102.422 91.7149 99.185 83.6639C98.77 82.5849 98.355 81.4229 99.766 80.9249C101.177 80.4269 101.675 81.5889 102.09 82.6679C103.916 87.3159 104.912 92.2959 104.912 98.1059Z" fill="#F6F0ED"/>
<path d="M67.23 124.915C70.301 124.998 71.878 126.658 73.206 128.567C74.285 130.144 74.949 131.887 75.364 133.63C75.613 134.709 75.613 135.788 74.285 136.037C73.123 136.286 72.625 135.456 72.459 134.46C72.127 132.883 71.629 131.389 70.716 129.978C69.305 127.82 67.811 127.405 65.57 128.65C63.412 129.812 61.337 131.14 59.594 132.883C58.764 133.713 57.851 134.46 56.772 133.298C55.859 132.302 56.523 131.389 57.353 130.725C60.424 128.152 63.578 125.579 67.23 124.915Z" fill="#F6F0ED"/>
<path d="M74.949 118.441C74.949 116.449 75.364 114.54 76.028 112.797C76.36 111.884 76.941 111.137 78.103 111.552C79.265 111.967 79.182 112.963 78.85 113.876C76.609 120.682 78.684 125.911 84.66 129.646C85.573 130.227 85.988 131.057 85.407 131.97C84.743 132.966 83.83 132.717 83 132.219C77.937 128.982 75.115 124.5 74.949 118.441Z" fill="#F6F0ED"/>
</svg>
