<svg width="95" height="133" viewBox="0 0 95 133" fill="none" xmlns="http://www.w3.org/2000/svg">
<path d="M53.825 0C53.825 1.65 53.825 3.225 53.825 4.875C53.825 5.175 53.675 5.175 53.45 5.175C50.975 5.175 48.425 5.175 45.95 5.175C45.8 5.175 45.575 5.1 45.575 5.25C45.5 5.55 45.5 5.85 45.575 6.15C45.575 6.225 45.8 6.225 45.875 6.225C48.35 6.225 50.9 6.225 53.375 6.225C53.675 6.225 53.75 6.3 53.75 6.6C53.75 10.35 53.75 14.025 53.75 17.775C53.75 18 53.675 18.15 53.45 18.15C48.95 18.15 44.45 18.15 39.95 18.15C39.65 18.15 39.575 18.075 39.575 17.775C39.575 16.2 39.575 14.625 39.575 13.05C39.575 12.75 39.65 12.675 39.95 12.675C42.425 12.675 44.975 12.675 47.45 12.675C47.75 12.675 47.825 12.6 47.825 12.3C47.825 11.7 47.825 11.7 47.225 11.7C44.825 11.7 42.35 11.7 39.95 11.7C39.65 11.7 39.575 11.625 39.575 11.325C39.575 7.725 39.575 4.125 39.575 0.525C39.575 0.375 39.575 0.225 39.575 0.0750003C44.375 2.82401e-07 49.1 0 53.825 0Z" fill="#FDE74C"/>
<path d="M70.85 0C70.85 1.65 70.85 3.3 70.85 4.95C70.85 5.25 70.625 5.175 70.475 5.175C68 5.175 65.525 5.175 63.125 5.175C62.975 5.175 62.675 5.1 62.6 5.25C62.525 5.55 62.525 5.85 62.6 6.15C62.6 6.3 62.825 6.225 62.9 6.225C64.325 6.225 65.75 6.225 67.175 6.225C68.3 6.225 69.35 6.225 70.475 6.225C70.7 6.225 70.775 6.3 70.775 6.525C70.775 10.275 70.775 14.1 70.775 17.85C70.775 18.075 70.7 18.15 70.475 18.15C65.975 18.15 61.4 18.15 56.9 18.15C56.675 18.15 56.6 18.075 56.6 17.85C56.6 16.275 56.6 14.7 56.6 13.125C56.6 12.825 56.675 12.75 56.975 12.75C59.45 12.75 62 12.75 64.475 12.75C64.775 12.75 64.85 12.675 64.85 12.375C64.85 11.775 64.85 11.775 64.25 11.775C61.85 11.775 59.45 11.775 56.975 11.775C56.75 11.775 56.6 11.775 56.6 11.475C56.6 7.8 56.6 4.05 56.6 0.375C56.6 0.3 56.6 0.225 56.6 0.15C61.4 -1.44205e-07 66.125 0 70.85 0Z" fill="#FDE74C"/>
<path d="M36.8 0C36.8 1.875 36.8 3.75 36.8 5.55C36.8 5.85 36.725 5.925 36.425 5.925C33.95 5.925 31.4 5.925 28.925 5.925C28.625 5.925 28.55 6 28.55 6.3C28.55 8.025 28.55 9.75 28.55 11.55C28.55 11.85 28.625 11.925 28.925 11.925C31.475 11.925 33.95 11.925 36.5 11.925C36.8 11.925 36.875 12 36.875 12.3C36.875 14.025 36.875 15.75 36.875 17.55C36.875 17.85 36.8 17.925 36.5 17.925C32 17.925 27.5 17.925 23 17.925C22.7 17.925 22.625 17.85 22.625 17.55C22.625 11.85 22.625 6.225 22.625 0.525C22.625 0.375 22.625 0.225 22.625 0.0750003C27.35 2.82401e-07 32.075 0 36.8 0Z" fill="#FDE74C"/>
<path d="M47.375 26.0252C62.825 26.0252 78.275 26.0252 93.725 26.0252C94.25 26.0252 94.25 26.0252 94.175 26.5502C94.025 28.4252 93.8 30.3752 93.65 32.2502C93.425 34.7252 93.2 37.2752 92.975 39.7502C92.75 41.9252 92.6 44.0252 92.375 46.2002C92.15 48.7502 91.925 51.2252 91.7 53.7752C91.475 55.9502 91.325 58.1252 91.1 60.3002C90.875 62.7752 90.65 65.2502 90.425 67.7252C90.2 69.9002 90.05 72.0752 89.825 74.2502C89.6 76.7252 89.375 79.2002 89.15 81.6752C88.925 83.8502 88.775 85.9502 88.55 88.1252C88.325 90.6752 88.1 93.1502 87.875 95.7002C87.65 97.8752 87.5 100.05 87.275 102.225C87.05 104.7 86.825 107.175 86.6 109.65C86.375 111.825 86.225 114 86 116.175C85.85 117.9 85.7 119.55 85.55 121.275C85.55 121.5 85.4 121.5 85.25 121.575C82.325 122.4 79.475 123.15 76.55 123.975C69.725 125.85 62.975 127.725 56.15 129.6C53.3 130.425 50.45 131.175 47.6 132C47.375 132.075 47.15 132.075 46.85 132C37.775 129.45 28.7 126.975 19.625 124.425C16.175 123.45 12.725 122.475 9.20002 121.575C8.97502 121.5 8.90002 121.425 8.90002 121.2C8.60002 117.675 8.30002 114.15 8.00002 110.7C7.70002 107.025 7.32502 103.425 7.02502 99.7502C6.72502 96.6752 6.50002 93.6002 6.20002 90.5252C5.90002 87.1502 5.60002 83.8502 5.30002 80.4752C5.07502 78.0002 4.85002 75.5252 4.62502 73.0502C4.32502 69.9752 4.10002 66.9752 3.80002 63.9002C3.57502 61.4252 3.35002 58.9502 3.12502 56.4752C2.90002 53.7002 2.60002 50.9252 2.37502 48.1502C2.15002 45.6752 1.92502 43.2002 1.70002 40.7252C1.40002 37.6502 1.17502 34.6502 0.875017 31.5752C0.725017 29.7752 0.575018 28.0502 0.425018 26.2502C0.425018 26.0252 0.500018 25.9502 0.650018 26.0252C0.725018 26.0252 0.875016 26.0252 0.950016 26.0252C16.55 26.0252 32 26.0252 47.375 26.0252Z" fill="#264CE2"/>
<path d="M47.375 45.5252C47.375 41.7752 47.375 38.0252 47.375 34.2752C47.375 33.9002 47.45 33.8252 47.825 33.8252C60.275 33.8252 72.725 33.8252 85.175 33.8252C85.55 33.8252 85.55 33.9002 85.55 34.2002C85.4 35.8502 85.325 37.5002 85.175 39.0752C85.1 40.2002 84.95 41.3252 84.875 42.4502C84.725 43.9502 84.65 45.3752 84.5 46.8752C84.35 48.0002 84.275 49.2002 84.2 50.3252C84.05 51.9002 83.9 53.4752 83.75 55.0502C83.675 56.1002 83.6 57.1502 83.525 58.1252C83.375 59.4002 83.3 60.7502 83.15 62.0252C83.075 62.7752 83.075 63.4502 83 64.2002C82.925 65.2502 82.775 66.2252 82.7 67.2752C82.625 67.9502 82.625 68.7002 82.55 69.3752C82.475 70.4252 82.325 71.4752 82.25 72.5252C82.175 73.2002 82.175 73.8752 82.1 74.5502C82.025 75.6002 81.875 76.7252 81.8 77.7752C81.725 78.4502 81.725 79.0502 81.65 79.7252C81.575 80.8502 81.425 81.9002 81.35 83.0252C81.275 84.0002 81.2 84.9752 81.125 86.0252C81.05 87.0752 80.9 88.0502 80.825 89.1002C80.75 89.7752 80.75 90.4502 80.675 91.0502C80.6 92.1752 80.45 93.3002 80.375 94.4252C80.3 95.1002 80.3 95.8502 80.225 96.5252C80.15 97.5752 80 98.6252 79.925 99.6752C79.85 100.35 79.775 101.025 79.775 101.625C79.7 102.75 79.55 103.8 79.475 104.925C79.4 105.6 79.4 106.35 79.325 107.025C79.25 108.075 79.1 109.125 79.025 110.175C78.95 110.85 78.875 111.525 78.875 112.2C78.8 113.175 78.725 114.15 78.65 115.2C78.65 115.5 78.425 115.575 78.2 115.65C77.075 115.95 76.025 116.25 74.9 116.55C72.425 117.225 70.025 117.9 67.55 118.575C65.225 119.25 62.825 119.85 60.5 120.525C58.025 121.2 55.625 121.875 53.15 122.55C51.425 123 49.625 123.525 47.9 124.05C47.6 124.125 47.6 123.975 47.6 123.75C47.6 120 47.6 116.25 47.6 112.5C47.6 112.35 47.675 112.125 47.45 112.05C47.45 111.975 47.525 111.975 47.525 111.975C48.65 111.6 49.775 111.3 50.9 111C55.1 109.8 59.3 108.675 63.5 107.475C65.9 106.8 68.225 106.125 70.625 105.525C71.375 105.3 71.375 105.3 71.45 104.55C71.675 102.075 71.9 99.6002 72.125 97.1252C72.35 94.9502 72.5 92.7752 72.725 90.6002C72.95 87.8252 73.25 85.0502 73.475 82.2752C73.7 79.5002 74 76.7252 74.225 73.9502C74.45 71.3252 74.675 68.7002 74.9 66.0752C75.125 63.4502 75.35 60.8252 75.575 58.2002C75.8 55.7252 76.025 53.2502 76.25 50.7752C76.4 49.2752 76.55 47.7002 76.625 46.2002C76.625 45.8252 76.625 45.7502 76.25 45.7502C76.1 45.7502 75.95 45.7502 75.8 45.7502C66.65 45.7502 57.425 45.7502 48.275 45.7502C47.9 45.6002 47.6 45.7502 47.375 45.5252Z" fill="#2965F0"/>
<path d="M47.375 45.5249C47.525 45.5249 47.75 45.5249 47.9 45.5249C57.35 45.5249 66.8 45.5249 76.25 45.5249C76.7 45.5249 76.7 45.5249 76.625 45.9749C76.475 47.9249 76.25 49.7999 76.1 51.7499C75.875 54.2249 75.65 56.7749 75.425 59.2499C75.275 61.1249 75.125 62.9249 74.9 64.7999C74.675 67.2749 74.45 69.8249 74.225 72.2999C74 74.3999 73.85 76.5749 73.625 78.6749C73.4 81.2249 73.175 83.7749 72.95 86.2499C72.725 88.4249 72.575 90.5999 72.35 92.7749C72.125 95.2499 71.9 97.7249 71.675 100.2C71.525 101.7 71.375 103.275 71.3 104.775C71.3 105 71.225 105.15 71 105.225C65 106.875 59 108.525 53 110.175C51.2 110.7 49.325 111.15 47.525 111.675C47.45 111.675 47.375 111.675 47.3 111.675C47.15 111.525 47.15 111.375 47.15 111.15C47.15 107.475 47.15 103.725 47.15 100.05C47.15 99.8999 47.15 99.6749 47.3 99.5249C47.525 99.3749 47.75 99.2999 47.975 99.2249C51.725 98.2499 55.475 97.1999 59.3 96.1499C60.2 95.9249 60.275 95.9249 60.35 94.9499C60.5 93.6749 60.575 92.3999 60.725 91.1249C60.8 89.8499 60.95 88.5749 61.1 87.2999C61.25 85.6499 61.4 84.0749 61.55 82.4249C61.55 82.0499 61.625 81.5999 61.625 81.2249C61.625 80.9249 61.55 80.8499 61.325 80.8499C61.175 80.8499 61.1 80.8499 60.95 80.8499C56.675 80.8499 52.4 80.8499 48.05 80.8499C47.825 80.8499 47.6 80.8499 47.375 80.7749C47.225 80.6249 47.225 80.4749 47.225 80.2499C47.225 76.6499 47.225 73.1249 47.225 69.5249C47.225 69.3749 47.225 69.1499 47.3 68.9999C47.525 68.8499 47.825 68.8499 48.05 68.8499C52.625 68.8499 57.275 68.8499 61.85 68.8499C62.675 68.8499 62.675 68.8499 62.75 68.0249C62.9 66.3749 63.05 64.7249 63.2 63.0749C63.35 61.2749 63.5 59.3999 63.65 57.5999C63.725 57.1499 63.65 57.0749 63.125 57.0749C60.5 57.0749 57.875 57.0749 55.25 57.0749C52.85 57.0749 50.45 57.0749 48.05 57.0749C47.825 57.0749 47.525 57.0749 47.3 56.9249C47.15 56.7749 47.225 56.5499 47.225 56.3999C47.225 52.8749 47.225 49.3499 47.225 45.7499C47.225 45.8999 47.15 45.6749 47.375 45.5249Z" fill="#FEFEFE"/>
<path d="M47.375 99.7503C47.375 103.8 47.375 107.85 47.375 111.9H47.3C44.9 111.225 42.425 110.55 40.025 109.875C34.625 108.375 29.15 106.875 23.675 105.375C23.375 105.3 23.3 105.225 23.3 104.925C23.075 102.45 22.85 99.9753 22.625 97.5003C22.475 95.6253 22.325 93.8253 22.1 91.9503C21.95 90.3753 21.8 88.8003 21.65 87.2253C21.65 87.0003 21.725 86.9253 21.95 86.9253C25.7 86.9253 29.375 86.9253 33.125 86.9253C33.35 86.9253 33.425 87.0003 33.425 87.2253C33.575 88.8753 33.725 90.5253 33.875 92.1753C34.025 93.4503 34.1 94.7253 34.175 96.0003C34.175 96.3003 34.325 96.3753 34.55 96.4503C38.9 97.4253 43.1 98.5503 47.375 99.7503Z" fill="#EAEAEA"/>
<path d="M47.3 45.5249C47.3 49.4249 47.3 53.3249 47.3 57.2249C47.15 57.2999 47.075 57.2999 46.925 57.2999C37.775 57.2999 28.625 57.2999 19.4 57.2999C19.25 57.2999 19.175 57.2999 19.025 57.2999C18.875 55.9499 18.725 54.6749 18.65 53.3249C18.425 50.8499 18.2 48.3749 17.975 45.8999C17.975 45.6749 17.975 45.5999 18.275 45.5999C27.95 45.5999 37.55 45.5999 47.225 45.5999C47.3 45.5249 47.3 45.5249 47.3 45.5249Z" fill="#EAEAEA"/>
<path d="M47.375 69.2998C47.375 73.1998 47.375 77.0998 47.375 80.9998C47.225 80.9998 47.075 80.9998 46.925 80.9998C38.525 80.9998 30.05 80.9998 21.65 80.9998C21.275 80.9998 21.125 80.9248 21.125 80.5498C20.9 77.9998 20.675 75.5248 20.45 72.9748C20.375 71.7748 20.225 70.5748 20.15 69.2998C20.225 69.2248 20.375 69.2248 20.525 69.2248C29.375 69.2248 38.15 69.2248 47 69.2248C47.075 69.2248 47.225 69.1498 47.375 69.2998Z" fill="#EAEAEA"/>
<path d="M47.3 81C49.25 81 51.2 81 53.15 81C55.85 81 58.625 81 61.325 81C61.7 81 61.7 81.075 61.7 81.45C61.475 83.625 61.325 85.8 61.1 88.05C60.875 90.525 60.65 93 60.425 95.475C60.35 96.3 60.35 96.3 59.525 96.525C55.475 97.575 51.5 98.7 47.45 99.75C47.375 99.75 47.375 99.75 47.3 99.75C47.375 99.6 47.375 99.45 47.375 99.3C47.375 93.375 47.375 87.45 47.375 81.525C47.45 81.3 47.45 81.15 47.3 81Z" fill="#2965F0"/>
<path d="M47.375 69.2998C47.225 69.2998 47.075 69.2998 46.925 69.2998C38.15 69.2998 29.375 69.2998 20.6 69.2998C20.45 69.2998 20.3 69.2998 20.15 69.2998C20.3 69.1498 20.45 69.2248 20.6 69.2248C29.375 69.2248 38.075 69.2248 46.85 69.2248C47.525 69.2248 47.45 69.2998 47.45 68.6248C47.45 65.0248 47.45 61.4998 47.45 57.8998C47.45 57.3748 47.45 57.3748 46.925 57.3748C37.85 57.3748 28.7 57.3748 19.625 57.3748C19.475 57.3748 19.25 57.4498 19.175 57.2998C28.475 57.2998 37.85 57.2998 47.15 57.2998C47.225 57.2998 47.3 57.2998 47.45 57.2998C47.6 57.2998 47.75 57.2998 47.9 57.2998C53.075 57.2998 58.325 57.2998 63.5 57.2998C63.875 57.2998 63.95 57.3748 63.875 57.7498C63.65 59.9998 63.5 62.2498 63.275 64.4998C63.125 65.9998 62.975 67.4998 62.9 68.9998C62.9 69.2998 62.75 69.3748 62.45 69.3748C57.575 69.3748 52.7 69.3748 47.825 69.3748C47.675 69.2248 47.525 69.2248 47.375 69.2998Z" fill="#2965F0"/>
</svg>
