<svg width="37" height="55" viewBox="0 0 37 55" fill="none" xmlns="http://www.w3.org/2000/svg">
<path d="M36.4485 10.8178C35.6028 15.1767 32.7402 17.4537 28.5765 18.3645C27.926 19.2102 27.0152 18.95 26.1694 19.0151C25.7791 19.0801 25.4538 19.0801 25.0634 19.0151C22.8515 18.8199 20.5744 19.5355 18.3625 18.5597C18.1673 18.3645 18.0372 18.1693 17.9721 17.9091C17.5167 12.3792 17.777 6.84927 17.842 1.31937C17.842 0.863966 18.0372 0.408564 18.3625 0.0832752C21.5503 0.0832752 24.7381 -0.0468417 27.926 0.018216C31.9595 0.148331 35.6678 3.53133 36.4485 7.62997C36.1883 8.73595 36.1883 9.77687 36.4485 10.8178Z" fill="#FE7262"/>
<path d="M18.3625 0.0831256C18.3625 6.06843 18.3625 12.0537 18.3625 18.039C18.1674 18.2342 17.9722 18.2993 17.777 18.2993C14.5892 18.1692 11.4664 18.2993 8.2786 18.2342C8.14849 18.2342 8.08343 18.2342 7.95332 18.1692C4.31009 17.6487 1.77284 15.6319 0.666855 12.1839C-0.504183 8.60568 0.146394 5.48291 2.94387 2.75049C4.96066 0.798759 7.17262 0.0180664 9.77493 0.0180664C12.5724 0.0180664 15.4349 0.0831256 18.3625 0.0831256Z" fill="#F14E1E"/>
<path d="M7.49795 36.5155C3.65955 35.7348 1.31747 33.3927 0.27655 29.6844C0.406666 28.2531 0.406666 26.7568 0.27655 25.3256C1.31747 21.4221 3.85472 19.1451 7.82324 18.4294C7.95335 18.4294 8.08347 18.3644 8.21358 18.3644C10.946 18.2343 13.6134 18.3644 16.3458 18.2993C17.0614 18.2993 17.7771 18.3644 18.4276 18.7547C19.4686 20.7715 18.6879 22.8534 18.883 24.9352C18.9481 25.3906 18.883 25.846 18.883 26.3665C18.818 27.0171 18.883 27.7327 18.818 28.3833C18.7529 28.8387 18.6879 29.2941 18.3626 29.6194C18.2975 31.7663 18.2975 33.9132 18.2325 36.0601C17.7771 36.5155 17.1915 36.5805 16.606 36.5805C13.6134 36.6456 10.5557 36.8408 7.49795 36.5155Z" fill="#A159FE"/>
<path d="M18.2975 37.3615C18.2975 40.3541 18.4276 43.3468 18.2975 46.3394C18.1023 51.1537 14.1988 54.862 9.44963 54.9921C4.8956 55.1873 0.731905 51.7392 0.146386 47.3153C-0.569248 42.2408 2.22823 38.1421 7.10756 36.9711C10.1002 36.6458 13.0929 36.7109 16.0205 36.7109C16.8012 36.7759 17.6469 36.7109 18.2975 37.3615Z" fill="#0ACE83"/>
<path d="M18.4276 29.6847C18.4276 29.2943 18.4276 28.904 18.4276 28.4486C18.6878 27.798 18.6878 27.1474 18.4276 26.4968C18.4276 26.1065 18.4276 25.7161 18.4276 25.3258C19.0131 21.3573 21.5503 19.2754 25.3237 18.4297C25.5839 18.4297 25.8442 18.4947 26.1044 18.4947C27.1453 18.755 28.1862 18.6899 29.2272 18.4947C30.0729 19.4056 31.4391 19.2104 32.415 20.0561C34.2366 21.4874 35.6679 23.1138 36.3835 25.3258C36.3184 26.1065 36.0582 26.9522 36.5787 27.6679C36.5787 32.287 33.521 35.8001 28.8368 36.4507C27.7959 36.1904 26.755 36.2555 25.649 36.3856C21.9407 35.6049 19.7287 33.1327 18.4276 29.6847Z" fill="#1ABBFD"/>
<path d="M18.2975 37.3615C15.2398 37.3615 12.117 37.3615 9.05927 37.3615C8.4087 37.3615 7.69306 37.5567 7.10754 37.0362C7.36777 36.9712 7.62801 36.9061 7.82318 36.9061C11.3363 36.4507 14.7844 36.2555 18.2975 37.0362C18.3625 37.1013 18.3625 37.2314 18.2975 37.3615Z" fill="#00D07E"/>
<path d="M7.49786 36.5157C9.38454 35.7351 11.4013 36.3206 13.3531 36.1905C14.9795 36.1254 16.671 36.1905 18.2974 36.1905C18.2974 36.3206 18.2974 36.4507 18.2974 36.5808C14.7843 36.9061 11.2712 36.841 7.82315 36.6459C7.69304 36.5808 7.62798 36.5808 7.49786 36.5157Z" fill="#A551FE"/>
<path d="M17.9071 18.0394C18.0372 18.0394 18.1673 18.0394 18.2974 18.0394C18.2974 18.1696 18.3625 18.2997 18.3625 18.4298C18.2974 18.4948 18.1673 18.625 18.1023 18.69C14.7193 18.69 11.3363 18.8852 7.95327 18.5599L7.88821 18.4948C7.88821 18.4298 7.88821 18.2997 7.88821 18.2346L7.95327 18.0394C11.2712 17.8443 14.5892 17.7142 17.9071 18.0394Z" fill="#E26073"/>
<path d="M7.82321 36.5807C11.3363 36.5807 14.8494 36.5807 18.2975 36.5156C18.2975 36.6457 18.2975 36.7759 18.2975 36.971C14.7844 36.906 11.3363 36.906 7.82321 36.8409C7.82321 36.7759 7.82321 36.7108 7.82321 36.5807Z" fill="#66AFBB"/>
<path d="M0.341553 25.3257C0.862014 26.757 0.862014 28.2533 0.341553 29.6846C-0.113851 28.2533 -0.113851 26.757 0.341553 25.3257Z" fill="#A04EFE"/>
<path d="M36.4485 10.818C35.9281 9.77703 35.863 8.67105 36.4485 7.63013C36.6437 8.73611 36.6437 9.77703 36.4485 10.818Z" fill="#FE6856"/>
<path d="M29.2272 18.5598C28.1863 19.0803 27.1454 19.0803 26.1044 18.5598C26.9502 18.4947 27.7959 18.4297 28.5766 18.4297C28.7718 18.4297 28.967 18.4947 29.2272 18.5598Z" fill="#00BEFE"/>
<path d="M25.649 36.4508C26.6899 35.9954 27.7959 35.9304 28.8368 36.5159C27.7309 36.7111 26.6899 36.646 25.649 36.4508Z" fill="#00B8FD"/>
<path d="M36.5787 27.7325C35.798 27.0168 35.9932 26.1711 36.3835 25.3904C36.4486 26.106 36.5136 26.9518 36.5787 27.7325Z" fill="#00B8FD"/>
<path d="M17.9071 18.0392C14.5892 18.0392 11.2712 17.9741 7.88821 17.9741C11.2712 17.5187 14.5892 17.3886 17.9071 18.0392Z" fill="#F24D10"/>
<path d="M18.3625 18.5597C18.3625 18.6898 18.3625 18.8199 18.2975 18.885C15.4349 18.885 12.6374 18.885 9.77489 18.885C9.12432 18.885 8.40868 19.1452 7.95328 18.4946C11.4013 18.4946 14.8494 18.4946 18.3625 18.5597Z" fill="#9C59FE"/>
<path d="M18.4276 26.5618C18.948 27.2123 18.948 27.8629 18.4276 28.5135C18.4276 27.8629 18.4276 27.2123 18.4276 26.5618Z" fill="#00BEFE"/>
</svg>
