<svg width="165" height="193" viewBox="0 0 165 193" fill="none" xmlns="http://www.w3.org/2000/svg">
<path d="M111.754 141.791C111.754 141.791 135.669 152.865 161.577 179.839C187.484 206.814 0.435059 182.111 0.435059 182.111C0.435059 182.111 4.13619 146.334 11.2537 144.63C18.3713 142.927 23.7806 135.828 34.5993 137.532C45.418 139.235 111.754 141.791 111.754 141.791Z" fill="#4773FF"/>
<path d="M92.1092 94.6562C92.1092 94.6562 86.9845 132.989 112.038 141.791C112.038 141.791 105.205 153.149 55.0979 157.976C55.0979 157.976 42.0016 158.26 38.0157 155.42L34.3146 132.989L92.1092 94.6562Z" fill="#F1C27D"/>
<path d="M91.2551 94.9403L88.6928 110.273C88.6928 110.273 88.4081 112.829 86.6999 114.248C86.6999 114.248 77.02 128.446 69.9025 131.001C69.9025 131.001 62.7849 139.803 47.411 138.1C47.411 138.1 39.724 140.087 35.4535 133.841C35.4535 133.841 27.1971 129.865 18.0866 112.545C18.0866 112.545 14.3855 104.878 11.8232 89.2614C11.8232 89.2614 10.9691 85.2862 11.8232 82.1628C11.8232 82.1628 13.2467 78.4715 11.2538 74.7803L9.83026 66.2619L9.83026 57.1757L12.3926 56.3239L12.1079 46.1019C12.1079 46.1019 15.809 33.3245 22.3572 30.485C22.3572 30.485 40.2934 31.6208 41.1475 33.6084C41.1475 33.6084 58.5144 27.6456 60.2226 28.2135C61.6461 28.7814 76.4506 31.3369 76.7353 34.1763C76.7353 34.1763 81.2906 40.4231 79.867 45.5341C79.867 45.5341 88.1234 51.2129 88.9775 60.0152L89.2622 78.1876L91.5398 69.3853L92.1092 66.5459L91.2551 77.3357L91.2551 94.9403Z" fill="#F1C27D" stroke="black" stroke-miterlimit="10"/>
<path d="M78.1588 70.521C78.1588 70.521 78.7282 84.7182 68.7636 85.854L58.5143 86.4219C58.5143 86.4219 51.3968 86.4219 47.4109 79.6072L48.5497 79.3233C48.5497 79.3233 47.4109 74.7802 47.4109 73.3605C47.4109 73.3605 47.1262 67.6816 47.9803 67.6816C48.8344 67.6816 59.6531 57.4596 75.8811 66.8298L78.1588 70.521Z" stroke="black" stroke-miterlimit="10"/>
<path d="M34.5994 66.262C34.5994 66.262 40.2934 69.1014 45.418 66.262C45.418 66.262 50.8274 54.6203 76.7353 60.867L79.5823 61.7189L96.6645 60.5831L95.5257 63.4225L80.4364 67.6817C80.4364 67.6817 80.1517 71.6569 76.7353 70.5211C76.7353 70.5211 75.5965 63.4225 72.4648 63.9904C72.4648 63.9904 52.2509 61.4349 47.6957 69.6693C47.6957 69.6693 45.9875 76.7679 48.5498 78.4715C48.5498 78.4715 48.5498 81.027 46.5569 80.4591C46.5569 80.4591 42.2863 73.9284 42.571 72.7927C42.571 72.7927 40.2934 69.6693 38.5852 72.7927C38.5852 72.7927 37.7311 80.7431 36.0229 81.311C36.0229 81.311 34.8841 81.311 34.5994 79.8912C34.5994 79.8912 36.3076 70.805 34.3147 70.2372C34.3147 70.2372 26.6277 63.1386 12.1079 69.3853C12.1079 69.3853 8.40674 72.5087 8.40674 74.2124L6.98323 74.4963L5.84442 72.7927L4.42091 72.5087L3.2821 67.9656L8.40674 67.3977C8.69145 67.3977 26.343 59.7313 34.5994 66.262Z" fill="black"/>
<path d="M34.5994 66.5459C34.5994 66.5459 40.2934 69.3853 45.418 66.5459C45.418 66.5459 50.8274 54.9042 76.7353 61.151L79.5823 62.0028L96.6645 60.867L95.5257 63.7065L80.4364 67.9656C80.4364 67.9656 80.1517 71.9408 76.7353 70.8051C76.7353 70.8051 75.5965 63.7065 72.4648 64.2744C72.4648 64.2744 52.2509 61.7189 47.6957 69.9532C47.6957 69.9532 45.9875 77.0518 48.5498 78.7555C48.5498 78.7555 48.5498 81.311 46.5569 80.7431C46.5569 80.7431 42.2863 74.2124 42.571 73.0766C42.571 73.0766 40.2934 69.9532 38.5852 73.0766C38.5852 73.0766 37.7311 81.027 36.0229 81.5949C36.0229 81.5949 34.8841 81.5949 34.5994 80.1752C34.5994 80.1752 36.3076 71.089 34.3147 70.5211C34.3147 70.5211 26.6277 63.4225 12.1079 69.6693C12.1079 69.6693 8.40674 72.7927 8.40674 74.4963L6.69854 75.0642L5.55972 73.3606L4.13621 73.0766L3.2821 68.2496L8.40674 67.6817C8.69145 67.6817 26.343 60.2991 34.5994 66.5459Z" fill="black"/>
<path d="M34.5994 79.0393L35.1688 80.743C35.1688 80.743 30.3288 89.2613 25.4889 87.8416L15.5243 88.1255C15.5243 88.1255 10.115 87.2737 9.26087 79.6072L8.69147 74.2123L10.3997 72.2247L10.3997 70.521C10.3997 70.521 22.0725 62.8546 34.3147 70.521L34.5994 79.0393Z" stroke="black" stroke-miterlimit="10"/>
<path d="M95.5256 63.7064L91.8245 66.2619L88.9775 77.9036C88.9775 77.9036 88.9775 57.7436 88.1234 57.7436C87.2693 57.7436 89.5469 54.0523 79.2976 45.534C79.2976 45.534 81.2905 41.5588 75.8812 33.3245C75.8812 33.3245 71.8954 30.2011 59.6532 28.2135C59.6532 28.2135 50.5427 30.2011 40.5781 33.6084C40.5781 33.6084 39.4393 31.6208 21.7878 30.485C21.7878 30.485 15.2396 33.3245 11.5385 46.1019L11.8232 55.756L9.26087 57.1757L9.26087 66.2619L8.69146 67.1137C8.69146 67.1137 8.40676 59.4473 6.98325 58.3115C6.98325 58.3115 7.83735 32.7566 8.69146 33.0405C8.69146 33.0405 13.5314 19.4112 23.496 10.8929L24.6348 14.0163C24.6348 14.0163 31.7523 2.65855 35.1688 1.52278C35.1688 1.52278 29.7594 8.05348 31.1829 8.33742C32.6064 8.62136 42.8557 0.670944 42.8557 0.670944L40.5781 4.64615C40.5781 4.64615 53.3897 -1.03272 59.6532 0.670944C65.9166 2.37461 83.8529 15.72 89.2622 25.658C90.401 25.658 101.789 38.7194 95.8103 55.472L94.6715 63.7064L95.5256 63.7064Z" fill="url(#paint0_linear_1_151)"/>
<path d="M32.3218 76.7678C28.0513 75.9159 24.6348 75.348 22.3572 75.9159C21.2184 76.1999 19.7949 76.4838 18.3714 77.3356C17.5173 77.6196 16.9479 78.1875 16.0938 78.7554C15.2396 79.3233 14.3855 79.8912 13.5314 80.459C13.5314 79.3233 13.5314 78.1875 13.8161 77.0517C14.1008 76.1999 14.6702 75.0641 15.2397 73.9283C16.3785 71.9407 18.6561 70.521 21.2184 69.9531C23.7807 69.3852 26.343 70.237 28.336 71.3728C30.0442 72.7925 31.7524 74.4962 32.3218 76.7678Z" fill="black"/>
<path d="M73.0341 74.4962C68.7636 73.0765 65.9165 71.6568 63.3542 71.9407C62.2154 71.9407 60.7919 72.2246 59.0837 72.7925C58.2296 73.0765 57.3755 73.3604 56.5214 73.9283C55.6673 74.2122 54.8132 74.7801 53.6744 75.0641C53.6744 73.9283 54.2438 72.7925 54.5285 71.9407C55.0979 71.0889 55.6673 69.9531 56.5214 69.1013C57.9449 67.3976 60.5072 66.2618 63.0695 66.2618C65.6318 66.2618 68.1942 67.3976 69.6177 68.8173C71.6106 70.521 72.7494 72.2246 73.0341 74.4962Z" fill="black"/>
<path d="M31.4677 96.076C32.6065 94.3723 53.9592 93.2366 53.9592 95.2242C53.6744 96.076 40.8629 104.31 31.4677 96.076Z" fill="#FF957D"/>
<path d="M68.1941 106.582C68.1941 106.582 43.7097 104.026 42.5709 106.582C42.5709 106.582 40.0086 104.31 26.0582 107.15C26.0582 107.15 37.731 120.211 39.1545 120.211C40.578 120.211 42.2862 122.199 47.1262 120.211C47.1262 120.211 55.9519 117.94 68.1941 106.582Z" fill="black"/>
<path d="M61.3614 94.6562C61.3614 94.6562 70.1872 98.0636 73.0342 104.31L61.3614 94.6562Z" fill="#231F20"/>
<path d="M29.4747 108.002L30.6135 111.693C30.6135 111.977 30.8982 111.977 31.1829 111.977C34.3146 112.261 54.8132 113.113 58.799 111.409C58.799 111.409 59.0837 111.409 59.0837 111.125C59.3684 110.557 61.0766 108.57 61.646 106.866C61.646 106.582 61.3613 106.014 61.0766 106.014L42.0015 106.582L30.0441 106.866C29.7594 107.15 29.4747 107.718 29.4747 108.002Z" fill="#FFD1C9"/>
<path d="M34.3479 115.184C34.3479 115.184 40.9689 111.765 58.0731 113.902C58.0731 113.902 50.9004 117.962 44.2794 119.03C44.2794 119.03 40.9689 119.458 39.0378 118.389C37.1067 117.321 34.3479 115.184 34.3479 115.184Z" fill="#941A24"/>
<path d="M96.0951 62.2868C96.0951 62.2868 98.088 60.2992 101.504 61.7189C104.636 63.1386 104.067 71.373 104.067 71.373C104.067 71.373 100.65 87.8417 99.7963 88.1256C98.9421 88.4096 100.081 91.8169 92.6787 94.6563C92.6787 94.6563 91.5399 95.2242 90.9705 91.8169C90.4011 88.6935 90.9705 68.5335 91.5399 68.8175L91.8246 65.978L96.0951 62.2868Z" fill="#F1C27D"/>
<defs>
<linearGradient id="paint0_linear_1_151" x1="52.2594" y1="77.9036" x2="52.2594" y2="0.0204309" gradientUnits="userSpaceOnUse">
<stop offset="0.4179" stop-color="#060505"/>
<stop offset="0.6942" stop-color="#6A6A6A"/>
<stop offset="0.957"/>
</linearGradient>
</defs>
</svg>
