<svg width="88" height="124" viewBox="0 0 88 124" fill="none" xmlns="http://www.w3.org/2000/svg">
<path d="M63.317 0.410231C63.317 0.559231 63.2425 0.782732 63.2425 0.931732C63.2425 6.07223 63.2425 11.2127 63.2425 16.3532C63.2425 16.8002 63.168 16.9492 62.721 16.9492C61.231 16.9492 59.741 16.9492 58.251 16.9492C57.8785 16.9492 57.804 16.8747 57.804 16.4277C57.804 13.8947 57.804 11.3617 57.7295 8.82873C56.463 10.7657 55.271 12.6282 53.93 14.6397C52.6635 12.7027 51.397 10.7657 50.1305 8.82873H50.056C50.056 9.42473 50.056 10.0207 50.056 10.6167C50.056 12.5537 50.056 14.4907 50.056 16.4277C50.056 16.8002 49.9815 16.8747 49.609 16.8747C48.119 16.8747 46.629 16.8747 45.139 16.8747C44.7665 16.8747 44.6175 16.8002 44.6175 16.3532C44.6175 11.1382 44.6175 5.92323 44.6175 0.63373C44.6175 0.48473 44.6175 0.41023 44.6175 0.26123C46.5545 0.26123 48.4915 0.26123 50.4285 0.26123C50.95 0.70823 51.1735 1.30423 51.4715 1.82573C52.291 3.16673 53.1105 4.50773 53.93 5.84873C54.8985 4.20973 55.867 2.64523 56.8355 1.08073C56.9845 0.782731 57.1335 0.41023 57.506 0.26123C59.3685 0.41023 61.38 0.410231 63.317 0.410231Z" fill="#FDE74C"/>
<path d="M24.577 0.410231C24.577 0.559231 24.5025 0.782732 24.5025 0.931732C24.5025 6.07223 24.5025 11.2127 24.5025 16.2787C24.5025 16.8002 24.3535 16.9492 23.832 16.8747C22.4165 16.8747 20.9265 16.8747 19.511 16.8747C19.064 16.8747 18.9895 16.8002 18.9895 16.3532C18.9895 14.8632 18.9895 13.3732 18.9895 11.8832C18.9895 11.5107 18.915 11.3617 18.468 11.3617C17.127 11.3617 15.7115 11.3617 14.3705 11.3617C13.9235 11.3617 13.849 11.5107 13.849 11.8832C13.849 13.3732 13.849 14.8632 13.849 16.3532C13.849 16.8002 13.7 16.8747 13.3275 16.8747C11.8375 16.8747 10.3475 16.8747 8.8575 16.8747C8.4105 16.8747 8.336 16.7257 8.336 16.2787C8.336 10.9147 8.336 5.62523 8.336 0.26123C10.1985 0.26123 11.9865 0.26123 13.849 0.26123C13.998 0.48473 13.998 0.70823 13.998 1.00623C13.998 2.27273 13.998 3.61373 13.998 4.88023C13.998 5.47623 14.0725 5.55073 14.594 5.55073C15.786 5.55073 16.978 5.55073 18.0955 5.55073C18.6915 5.55073 18.6915 5.47623 18.6915 4.88023C18.6915 3.61373 18.6915 2.27273 18.6915 1.00623C18.6915 0.78273 18.6915 0.48473 18.8405 0.26123C20.852 0.41023 22.7145 0.410231 24.577 0.410231Z" fill="#FDE74C"/>
<path d="M42.2335 0.410438C42.159 1.75144 42.2335 3.09244 42.159 4.35894C42.159 4.88044 42.308 5.47644 42.0845 5.77444C41.7865 6.07244 41.116 5.84894 40.5945 5.84894C39.626 5.84894 38.6575 5.84894 37.689 5.84894C37.3165 5.84894 37.242 5.99794 37.242 6.29594C37.242 9.64844 37.242 13.0009 37.242 16.3534C37.242 16.8004 37.093 16.8749 36.7205 16.8749C35.2305 16.8749 33.7405 16.8749 32.2505 16.8749C31.8035 16.8749 31.729 16.7259 31.729 16.3534C31.729 13.0009 31.729 9.64844 31.729 6.37044C31.729 5.92344 31.58 5.84894 31.2075 5.84894C29.941 5.84894 28.6 5.84894 27.3335 5.84894C26.961 5.84894 26.812 5.77444 26.812 5.40194C26.812 3.68844 26.812 2.04944 26.812 0.335938C32.027 0.410438 37.093 0.410438 42.2335 0.410438Z" fill="#FDE74C"/>
<path d="M71.4375 0.410231C71.4375 3.91173 71.4375 7.41323 71.4375 10.9147C71.4375 11.3617 71.5865 11.4362 72.0335 11.4362C74.2685 11.4362 76.578 11.4362 78.813 11.4362C79.1855 11.4362 79.3345 11.5107 79.3345 11.8832C79.3345 13.3732 79.3345 14.9377 79.3345 16.4277C79.3345 16.8002 79.26 16.8747 78.813 16.8747C74.7155 16.8747 70.5435 16.8747 66.446 16.8747C66.0735 16.8747 65.9245 16.8002 65.9245 16.3532C65.9245 11.2127 65.9245 5.99773 65.9245 0.857231C65.9245 0.633731 65.9245 0.48473 65.9245 0.26123C67.787 0.41023 69.6495 0.410231 71.4375 0.410231Z" fill="#FDE74C"/>
<path d="M43.798 24.5483C58.102 24.5483 72.3315 24.5483 86.6355 24.5483C87.306 24.5483 87.2315 24.5483 87.2315 25.2188C86.9335 28.1243 86.71 31.0298 86.412 33.9353C86.114 37.2133 85.816 40.4913 85.518 43.7693C85.2945 46.6003 84.9965 49.4313 84.773 52.2623C84.475 55.5403 84.177 58.8183 83.879 62.0963C83.6555 64.9273 83.3575 67.7583 83.134 70.6638C82.836 73.9418 82.538 77.2198 82.24 80.4978C82.0165 83.3288 81.7185 86.1598 81.495 88.9163C81.197 92.1943 80.899 95.5468 80.601 98.8248C80.3775 101.656 80.0795 104.487 79.856 107.392C79.707 109.255 79.4835 111.117 79.3345 112.98C79.3345 113.352 79.111 113.352 78.8875 113.427C76.0565 114.246 73.2255 114.991 70.3945 115.811C61.678 118.195 52.9615 120.653 44.3195 123.037C43.947 123.186 43.5745 123.186 43.1275 123.037C31.6545 119.834 20.1815 116.705 8.7085 113.501C8.336 113.427 8.2615 113.278 8.187 112.905C7.6655 107.392 7.2185 101.805 6.697 96.2918C6.25 91.1513 5.803 85.9363 5.356 80.7958C4.8345 75.0593 4.313 69.3228 3.7915 63.5118C3.27 58.0733 2.823 52.7093 2.3015 47.3453C1.8545 42.3538 1.4075 37.4368 0.960502 32.4453C0.737002 29.9868 0.513501 27.5283 0.290001 25.0698C0.215501 24.6228 0.439001 24.5483 0.811501 24.5483C15.19 24.5483 29.494 24.5483 43.798 24.5483Z" fill="#E34D26"/>
<path d="M43.7235 42.6516C43.7235 39.2246 43.7235 35.8721 43.7235 32.4451C43.7235 31.9981 43.798 31.8491 44.3195 31.8491C55.7925 31.8491 67.2655 31.8491 78.7385 31.8491C79.111 31.8491 79.26 31.9236 79.1855 32.3706C79.0365 33.7861 78.8875 35.2761 78.813 36.6916C78.7385 37.5856 78.664 38.4796 78.5895 39.3736C78.4405 40.7891 78.2915 42.1301 78.217 43.5456C78.1425 44.4396 78.068 45.3336 77.9935 46.1531C77.8445 47.5686 77.6955 48.9841 77.621 50.3996C77.5465 51.2936 77.472 52.1876 77.3975 53.0816C77.2485 54.4971 77.0995 55.8381 77.025 57.2536C76.9505 58.0731 76.876 58.9671 76.8015 59.7866C76.6525 61.2021 76.5035 62.6921 76.429 64.1076C76.3545 65.0016 76.28 65.8956 76.2055 66.7896C76.0565 68.2051 75.9075 69.5461 75.833 70.9616C75.7585 71.7811 75.684 72.6751 75.6095 73.4946C75.4605 74.9101 75.3115 76.4001 75.237 77.8156C75.1625 78.7096 75.088 79.6036 75.0135 80.4976C74.8645 81.9131 74.79 83.2541 74.641 84.6696C74.5665 85.4891 74.492 86.3831 74.4175 87.2026C74.2685 88.6181 74.194 90.0336 74.045 91.4491C73.9705 92.2686 73.896 93.1626 73.8215 93.9821C73.6725 95.3976 73.598 96.8876 73.449 98.3031C73.3 99.2716 73.3 100.166 73.2255 101.134C73.0765 102.475 72.9275 103.816 72.853 105.157C72.7785 105.753 72.7785 106.275 72.704 106.871C72.704 107.392 72.555 107.69 71.959 107.839C68.085 108.882 64.211 110 60.2625 111.043C55.718 112.309 51.1735 113.576 46.629 114.842C45.8095 115.066 45.0645 115.289 44.245 115.513C43.8725 115.662 43.7235 115.587 43.7235 115.14C43.7235 111.788 43.7235 108.361 43.7235 105.008C43.7235 104.785 43.798 104.561 43.649 104.338C43.7235 104.189 43.798 104.114 43.947 104.114C46.5545 103.369 49.2365 102.624 51.844 101.879C56.314 100.613 60.7095 99.4206 65.1795 98.1541C65.85 98.0051 65.85 97.9306 65.85 97.2601C66.148 94.0566 66.446 90.7786 66.744 87.5751C66.9675 84.7441 67.2655 81.9131 67.489 79.0821C67.787 75.8786 68.085 72.6751 68.383 69.4716C68.532 68.1306 68.6065 66.8641 68.7555 65.5231C68.83 64.8526 68.7555 64.8526 68.085 64.8526C60.337 64.8526 52.5145 64.8526 44.7665 64.8526C44.4685 64.8526 44.096 64.9271 43.798 64.7036C43.7235 64.6291 43.7235 64.6291 43.7235 64.5546C43.649 64.3311 43.649 64.1076 43.649 63.8841C43.649 60.6806 43.649 57.5516 43.649 54.3481C43.649 54.0501 43.5745 53.7521 43.798 53.5286C44.096 53.3051 44.394 53.3796 44.692 53.3796C52.8125 53.3796 60.933 53.3796 69.0535 53.3796C69.277 53.3796 69.575 53.4541 69.7985 53.3051C70.0965 52.8581 70.022 52.3366 70.022 51.8896C70.2455 49.4311 70.469 46.8981 70.6925 44.4396C70.767 43.9181 70.916 43.3966 70.6925 42.8751C70.469 42.7261 70.171 42.8006 69.9475 42.8006C61.529 42.8006 53.1105 42.8006 44.6175 42.8006C44.3195 42.8006 44.0215 42.8751 43.7235 42.6516Z" fill="#F06529"/>
<path d="M69.9475 53.4542C69.7985 53.6032 69.575 53.5288 69.3515 53.5288C61.0075 53.5288 52.738 53.5288 44.394 53.5288C44.1705 53.5288 43.947 53.5288 43.7235 53.5288C43.4255 53.7523 43.1275 53.6778 42.8295 53.6778C38.3595 53.6778 33.8895 53.6778 29.4195 53.6778C28.451 53.6778 28.451 53.6778 28.6 54.6463C28.8235 57.1048 29.047 59.5633 29.2705 62.0218C29.345 62.8413 29.2705 63.6608 29.5685 64.4058C29.7175 64.5548 29.941 64.5548 30.1645 64.5548C34.6345 64.5548 39.03 64.5548 43.5 64.5548C43.5745 64.5548 43.649 64.5548 43.649 64.6293V64.7038C43.798 64.9273 43.798 65.1508 43.798 65.3743C43.798 68.5778 43.798 71.7068 43.798 74.9103C43.798 75.1338 43.798 75.2828 43.7235 75.5063L43.649 75.5808C43.4255 75.5808 43.202 75.5808 42.9785 75.5808C35.305 75.5808 27.557 75.5808 19.8835 75.5808C19.362 75.5808 19.2875 75.4318 19.213 74.9848C18.915 71.7813 18.6915 68.5778 18.3935 65.2998C18.021 61.3513 17.6485 57.4028 17.276 53.4542C16.978 50.2507 16.68 47.0473 16.4565 43.8438C16.4565 43.4713 16.1585 43.0243 16.4565 42.7263C16.68 42.4283 17.2015 42.6517 17.574 42.6517C26.067 42.6517 34.56 42.6517 43.053 42.6517C43.2765 42.6517 43.5 42.6517 43.7235 42.6517C43.947 42.6517 44.1705 42.6517 44.394 42.6517C53.036 42.6517 61.678 42.6517 70.32 42.6517C70.5435 42.6517 70.6925 42.5773 70.916 42.7263C70.618 42.9498 70.2455 42.8752 69.9475 42.8752C62.125 42.8752 54.228 42.8752 46.4055 42.8752C45.8095 42.8752 45.139 42.8752 44.543 42.8752C44.1705 42.8752 43.947 43.0242 43.947 43.3967C43.947 46.5257 43.947 49.5802 43.947 52.7092C43.947 53.0817 44.096 53.3053 44.4685 53.2308C44.692 53.2308 44.841 53.2308 45.0645 53.2308C53.036 53.2308 61.0075 53.2308 68.979 53.2308C69.277 53.3053 69.6495 53.2307 69.9475 53.4542Z" fill="#EAEAEA"/>
<path d="M43.8725 104.189C43.798 104.189 43.7235 104.263 43.649 104.263C40.7435 103.444 37.7635 102.624 34.858 101.805C30.537 100.613 26.216 99.3461 21.8205 98.1541C21.5225 98.0796 21.3735 97.9306 21.299 97.5581C20.9265 93.4606 20.554 89.3631 20.1815 85.2656C20.0325 83.9991 19.958 82.7326 19.809 81.4661C19.7345 81.0191 19.809 80.8701 20.3305 80.8701C23.6085 80.8701 26.8865 80.8701 30.1645 80.8701C30.6115 80.8701 30.686 81.0191 30.7605 81.3916C30.984 83.9991 31.2075 86.6066 31.431 89.1396C31.431 89.4376 31.5055 89.5866 31.8035 89.6611C35.6775 90.7041 39.5515 91.7471 43.4255 92.7901C43.5 92.7901 43.5745 92.7901 43.649 92.7901L43.7235 92.8646C43.8725 93.0881 43.798 93.3116 43.798 93.5351C43.798 96.8876 43.798 100.166 43.798 103.518C43.947 103.891 43.947 104.04 43.8725 104.189Z" fill="#EAEAEA"/>
<path d="M43.798 92.9394C43.798 87.1284 43.798 81.3919 43.798 75.5809V75.5064C44.0215 75.3574 44.245 75.3574 44.4685 75.3574C48.4915 75.3574 52.44 75.3574 56.463 75.3574C57.208 75.3574 57.2825 75.4319 57.208 76.1769C56.9845 78.7844 56.761 81.3919 56.5375 83.9994C56.3885 85.6384 56.2395 87.3519 56.0905 89.0654C56.016 89.7359 55.9415 89.8104 55.271 90.0339C51.695 91.0024 48.1935 91.8964 44.6175 92.8649C44.394 92.9394 44.096 93.0884 43.798 92.9394Z" fill="#F06529"/>
<path d="M43.7235 92.9391C47.523 91.8961 51.397 90.8531 55.1965 89.8846C55.718 89.7356 55.867 89.5121 55.9415 88.9906C56.2395 85.7126 56.5375 82.5091 56.8355 79.2311C56.91 78.1136 57.059 76.9961 57.1335 75.8041C57.1335 75.5806 57.1335 75.5061 56.91 75.5061C56.761 75.5061 56.6865 75.5061 56.5375 75.5061C52.44 75.5061 48.417 75.5061 44.3195 75.5061C44.096 75.5061 43.947 75.5061 43.7235 75.5061C43.7235 71.9301 43.7235 68.2796 43.7235 64.7036C43.947 64.7036 44.096 64.7036 44.3195 64.7036C52.291 64.7036 60.337 64.7036 68.3085 64.7036C68.7555 64.7036 68.979 64.7036 68.9045 65.2996C68.383 70.4401 68.0105 75.5806 67.489 80.7211C67.042 86.0106 66.5205 91.3746 66.0735 96.6641C66.0735 96.8131 65.999 97.0366 65.999 97.1856C65.9245 98.0796 65.9245 98.0796 65.0305 98.3031C58.102 100.24 51.099 102.177 44.1705 104.114C44.0215 104.114 43.947 104.189 43.798 104.189C43.649 104.04 43.7235 103.816 43.7235 103.593C43.7235 100.091 43.7235 96.5151 43.7235 92.9391Z" fill="#FEFEFE"/>
<path d="M69.9475 53.4541C61.4545 53.4541 52.9615 53.4541 44.4685 53.4541C43.798 53.4541 43.798 53.4541 43.798 52.7836C43.798 49.6546 43.798 46.4511 43.798 43.3221C43.798 42.8006 43.947 42.7261 44.394 42.7261C53.2595 42.7261 62.125 42.7261 70.9905 42.7261C70.916 43.9926 70.767 45.3336 70.6925 46.6001C70.469 48.7606 70.32 50.9211 70.0965 53.0816C70.022 53.2306 70.022 53.3796 69.9475 53.4541Z" fill="#FEFEFE"/>
<path d="M43.7235 64.6291C43.5 64.7036 43.4255 64.6291 43.2765 64.6291C38.8065 64.6291 34.3365 64.6291 29.792 64.6291C29.643 64.6291 29.494 64.6291 29.4195 64.5546C29.196 63.8096 29.196 62.9901 29.1215 62.2451C28.8235 59.5631 28.6 56.9556 28.3765 54.2736C28.3765 54.1991 28.3765 54.0501 28.3765 53.9756C28.302 53.5286 28.451 53.4541 28.898 53.4541C32.2505 53.4541 35.603 53.4541 38.9555 53.4541C40.52 53.4541 42.159 53.4541 43.7235 53.4541C43.7235 57.2536 43.7235 60.9786 43.7235 64.6291Z" fill="#E34D26"/>
<path d="M29.4195 64.6294C34.1875 64.6294 38.9555 64.6294 43.649 64.6294C43.5 64.7039 43.351 64.7039 43.1275 64.7039C38.732 64.7039 34.262 64.7039 29.8665 64.7039C29.792 64.7039 29.5685 64.7784 29.4195 64.6294Z" fill="#F06529"/>
</svg>
