<svg width="97" height="138" viewBox="0 0 97 138" fill="none" xmlns="http://www.w3.org/2000/svg">
<path d="M0.0100021 28.3169H96.428L87.695 125.374L48.432 137.018L8.53 125.729L0.0100021 28.3169Z" fill="#E8C932"/>
<path d="M49 36.0557H86.275L79.104 120.12L48.432 128.285L49 36.0557Z" fill="#FEDD24"/>
<path d="M52.337 47.8419L81.66 47.6289L81.447 57.9949L62.703 58.9179L62.845 77.0939L80.027 74.3959L77.116 108.121L51.911 115.363L52.053 105.636L69.519 100.808L70.584 84.9039L51.769 88.3829L52.337 47.8419Z" fill="#FEFEFE"/>
<path d="M33.522 48.4808L44.598 48.1968L44.74 115.931L15.559 108.192L15.204 96.9028L33.522 101.66V48.4808Z" fill="#FEFEFE"/>
<path d="M47.864 0.839844H64.833V5.38384L52.55 5.73884L52.621 7.65584H64.833V18.9448H47.722V14.1168H59.792L59.863 11.9868H48.006L47.58 0.839844H47.864Z" fill="#FDE74C"/>
<path d="M45.237 0.839844V19.1578L32.315 18.9448L32.244 14.1168H40.338V0.839844H45.237Z" fill="#FDE74C"/>
</svg>
