<svg width="518" height="503" viewBox="0 0 518 503" fill="none" xmlns="http://www.w3.org/2000/svg">
<path d="M180.114 322.152L138.196 219.851C118.857 172.653 170.26 127.735 214.44 153.228L365.904 240.626C410.084 266.119 396.918 333.101 346.377 339.977L236.83 354.879C212.677 358.164 189.356 344.708 180.114 322.152Z" fill="#A1A4DA" stroke="black"/>
<path d="M302.754 232.791C302.754 232.791 326.669 243.865 352.577 270.839C378.484 297.814 191.435 273.111 191.435 273.111C191.435 273.111 195.136 237.334 202.254 235.63C209.371 233.927 214.781 226.828 225.599 228.532C236.418 230.235 302.754 232.791 302.754 232.791Z" fill="#4773FF"/>
<path d="M283.109 185.656C283.109 185.656 277.985 223.989 303.038 232.791C303.038 232.791 296.205 244.149 246.098 248.976C246.098 248.976 233.002 249.26 229.016 246.42L225.315 223.989L283.109 185.656Z" fill="#F1C27D"/>
<path d="M282.255 185.94L279.693 201.273C279.693 201.273 279.408 203.829 277.7 205.248C277.7 205.248 268.02 219.446 260.902 222.001C260.902 222.001 253.785 230.803 238.411 229.1C238.411 229.1 230.724 231.087 226.453 224.841C226.453 224.841 218.197 220.865 209.087 203.545C209.087 203.545 205.386 195.878 202.823 180.261C202.823 180.261 201.969 176.286 202.823 173.163C202.823 173.163 204.247 169.472 202.254 165.78L200.83 157.262L200.83 148.176L203.393 147.324L203.108 137.102C203.108 137.102 206.809 124.324 213.357 121.485C213.357 121.485 231.293 122.621 232.148 124.608C232.148 124.608 249.514 118.646 251.223 119.213C252.646 119.781 267.451 122.337 267.735 125.176C267.735 125.176 272.291 131.423 270.867 136.534C270.867 136.534 279.123 142.213 279.978 151.015L280.262 169.188L282.54 160.385L283.109 157.546L282.255 168.336L282.255 185.94Z" fill="#F1C27D" stroke="black" stroke-miterlimit="10"/>
<path d="M269.159 161.521C269.159 161.521 269.728 175.718 259.764 176.854L249.514 177.422C249.514 177.422 242.397 177.422 238.411 170.607L239.55 170.323C239.55 170.323 238.411 165.78 238.411 164.36C238.411 164.36 238.126 158.682 238.98 158.682C239.834 158.682 250.653 148.46 266.881 157.83L269.159 161.521Z" stroke="black" stroke-miterlimit="10"/>
<path d="M225.599 157.262C225.599 157.262 231.293 160.101 236.418 157.262C236.418 157.262 241.827 145.62 267.735 151.867L270.582 152.719L287.664 151.583L286.526 154.423L271.436 158.682C271.436 158.682 271.152 162.657 267.735 161.521C267.735 161.521 266.596 154.423 263.465 154.99C263.465 154.99 243.251 152.435 238.696 160.669C238.696 160.669 236.987 167.768 239.55 169.472C239.55 169.472 239.55 172.027 237.557 171.459C237.557 171.459 233.286 164.928 233.571 163.793C233.571 163.793 231.293 160.669 229.585 163.793C229.585 163.793 228.731 171.743 227.023 172.311C227.023 172.311 225.884 172.311 225.599 170.891C225.599 170.891 227.308 161.805 225.315 161.237C225.315 161.237 217.628 154.139 203.108 160.385C203.108 160.385 199.407 163.509 199.407 165.212L197.983 165.496L196.844 163.793L195.421 163.509L194.282 158.966L199.407 158.398C199.691 158.398 217.343 150.731 225.599 157.262Z" fill="black"/>
<path d="M225.599 157.546C225.599 157.546 231.293 160.385 236.418 157.546C236.418 157.546 241.827 145.904 267.735 152.151L270.582 153.003L287.664 151.867L286.526 154.706L271.436 158.966C271.436 158.966 271.152 162.941 267.735 161.805C267.735 161.805 266.596 154.706 263.465 155.274C263.465 155.274 243.251 152.719 238.696 160.953C238.696 160.953 236.987 168.052 239.55 169.755C239.55 169.755 239.55 172.311 237.557 171.743C237.557 171.743 233.286 165.212 233.571 164.077C233.571 164.077 231.293 160.953 229.585 164.077C229.585 164.077 228.731 172.027 227.023 172.595C227.023 172.595 225.884 172.595 225.599 171.175C225.599 171.175 227.308 162.089 225.315 161.521C225.315 161.521 217.628 154.423 203.108 160.669C203.108 160.669 199.407 163.793 199.407 165.496L197.699 166.064L196.56 164.361L195.136 164.077L194.282 159.25L199.407 158.682C199.691 158.682 217.343 151.299 225.599 157.546Z" fill="black"/>
<path d="M225.599 170.039L226.169 171.743C226.169 171.743 221.329 180.261 216.489 178.842L206.524 179.126C206.524 179.126 201.115 178.274 200.261 170.607L199.691 165.212L201.4 163.225L201.4 161.521C201.4 161.521 213.072 153.855 225.315 161.521L225.599 170.039Z" stroke="black" stroke-miterlimit="10"/>
<path d="M286.526 154.706L282.825 157.262L279.977 168.904C279.977 168.904 279.977 148.744 279.123 148.744C278.269 148.744 280.547 145.052 270.298 136.534C270.298 136.534 272.291 132.559 266.881 124.324C266.881 124.324 262.895 121.201 250.653 119.213C250.653 119.213 241.543 121.201 231.578 124.608C231.578 124.608 230.439 122.621 212.788 121.485C212.788 121.485 206.24 124.324 202.538 137.102L202.823 146.756L200.261 148.176L200.261 157.262L199.691 158.114C199.691 158.114 199.407 150.447 197.983 149.311C197.983 149.311 198.837 123.757 199.691 124.041C199.691 124.041 204.531 110.411 214.496 101.893L215.635 105.016C215.635 105.016 222.752 93.6585 226.169 92.5228C226.169 92.5228 220.759 99.0535 222.183 99.3374C223.606 99.6214 233.856 91.6709 233.856 91.6709L231.578 95.6462C231.578 95.6462 244.39 89.9673 250.653 91.6709C256.917 93.3746 274.853 106.72 280.262 116.658C281.401 116.658 292.789 129.719 286.81 146.472L285.672 154.706L286.526 154.706Z" fill="url(#paint0_linear_289_2)"/>
<path d="M223.322 167.768C219.051 166.916 215.635 166.348 213.357 166.916C212.218 167.2 210.795 167.484 209.371 168.336C208.517 168.62 207.948 169.187 207.094 169.755C206.24 170.323 205.386 170.891 204.531 171.459C204.531 170.323 204.531 169.187 204.816 168.052C205.101 167.2 205.67 166.064 206.24 164.928C207.378 162.941 209.656 161.521 212.218 160.953C214.781 160.385 217.343 161.237 219.336 162.373C221.044 163.793 222.752 165.496 223.322 167.768Z" fill="black"/>
<path d="M264.034 165.496C259.764 164.076 256.917 162.657 254.354 162.941C253.215 162.941 251.792 163.225 250.084 163.793C249.23 164.076 248.375 164.36 247.521 164.928C246.667 165.212 245.813 165.78 244.674 166.064C244.674 164.928 245.244 163.793 245.528 162.941C246.098 162.089 246.667 160.953 247.521 160.101C248.945 158.398 251.507 157.262 254.07 157.262C256.632 157.262 259.194 158.398 260.618 159.817C262.611 161.521 263.749 163.225 264.034 165.496Z" fill="black"/>
<path d="M222.468 187.076C223.607 185.372 244.959 184.237 244.959 186.224C244.674 187.076 231.863 195.31 222.468 187.076Z" fill="#FF957D"/>
<path d="M259.194 197.582C259.194 197.582 234.71 195.026 233.571 197.582C233.571 197.582 231.009 195.31 217.058 198.15C217.058 198.15 228.731 211.211 230.154 211.211C231.578 211.211 233.286 213.199 238.126 211.211C238.126 211.211 246.952 208.94 259.194 197.582Z" fill="black"/>
<path d="M252.361 185.656C252.361 185.656 261.187 189.064 264.034 195.31Z" fill="#231F20"/>
<path d="M220.475 199.002L221.613 202.693C221.613 202.977 221.898 202.977 222.183 202.977C225.315 203.261 245.813 204.113 249.799 202.409C249.799 202.409 250.084 202.409 250.084 202.125C250.368 201.557 252.077 199.57 252.646 197.866C252.646 197.582 252.361 197.014 252.077 197.014L233.002 197.582L221.044 197.866C220.759 198.15 220.475 198.718 220.475 199.002Z" fill="#FFD1C9"/>
<path d="M225.348 206.184C225.348 206.184 231.969 202.765 249.073 204.902C249.073 204.902 241.9 208.962 235.279 210.03C235.279 210.03 231.969 210.458 230.038 209.389C228.107 208.321 225.348 206.184 225.348 206.184Z" fill="#941A24"/>
<path d="M287.095 153.287C287.095 153.287 289.088 151.299 292.504 152.719C295.636 154.139 295.067 162.373 295.067 162.373C295.067 162.373 291.65 178.842 290.796 179.126C289.942 179.41 291.081 182.817 283.679 185.656C283.679 185.656 282.54 186.224 281.97 182.817C281.401 179.694 281.97 159.534 282.54 159.817L282.825 156.978L287.095 153.287Z" fill="#F1C27D"/>
<defs>
<linearGradient id="paint0_linear_289_2" x1="243.259" y1="168.904" x2="243.259" y2="91.0204" gradientUnits="userSpaceOnUse">
<stop offset="0.4179" stop-color="#060505"/>
<stop offset="0.6942" stop-color="#6A6A6A"/>
<stop offset="0.957"/>
</linearGradient>
</defs>
</svg>
