<svg width="320" height="297" viewBox="0 0 320 297" fill="none" xmlns="http://www.w3.org/2000/svg">
<path d="M276.265 107.037L277.473 113.719L285.929 113.719L286.413 107.037L294.869 103.44L299.944 107.551L305.984 100.613L302.118 95.7307L305.984 86.9937L312.025 85.7089L312.025 77.2289L305.501 75.9441L302.36 67.2071L305.742 62.0677L299.944 55.3865L295.353 59.498L286.171 55.3865L285.929 49.4762L276.989 49.4762L276.265 55.6435L268.291 59.498L262.975 55.3865L257.176 61.8108L260.559 67.4641L257.176 76.201L250.653 76.715L250.894 85.7089L257.66 86.4798L260.801 95.2168L257.176 101.127L262.975 107.294L268.533 103.183L276.265 107.037Z" fill="url(#paint0_linear_1_66)" stroke="#2C3E95" stroke-width="2" stroke-miterlimit="10"/>
<path d="M281.822 94.4459C288.894 94.4459 294.628 88.4633 294.628 81.0835C294.628 73.7036 288.894 67.7211 281.822 67.7211C274.749 67.7211 269.016 73.7036 269.016 81.0835C269.016 88.4633 274.749 94.4459 281.822 94.4459Z" fill="white" stroke="#2C3E95" stroke-width="2" stroke-miterlimit="10"/>
<path d="M62.0463 266.145L278.832 266.145C287.881 266.145 295.356 257.513 295.356 247.063L295.356 85.7792C295.356 75.3298 287.881 66.6977 278.832 66.6977L62.0463 66.6977C52.9972 66.6977 45.5218 75.3298 45.5218 85.7792L45.5218 247.063C45.5218 257.513 52.9972 266.145 62.0463 266.145Z" stroke="#E39DFF" stroke-width="2" stroke-linejoin="round" stroke-dasharray="8.05 8.05"/>
<path d="M187.624 217.334L171.865 203.132L113.02 206L94.5286 222.648L62.6468 240.895L55.1318 244.422V266.854H240.365L231.575 238.638L187.624 217.334Z" fill="#1E1926" stroke="black" stroke-miterlimit="10"/>
<path d="M171.227 186.954L171.865 203.132L172.138 210.468C172.138 210.468 143.536 257.449 112.975 211.408V192.409L171.227 186.954Z" fill="#E8BEAC" stroke="black" stroke-miterlimit="10"/>
<path d="M174.825 174.022L171.273 186.954C171.182 187.189 164.851 196.924 164.669 197.112C162.528 198.852 151.916 209.386 148.819 209.621C148.682 209.621 148.5 209.668 148.363 209.763C147.225 210.327 142.078 212.631 137.114 210.515C137.478 210.938 122.812 203.931 115.48 195.325L111.107 190.105C111.062 190.011 107.873 183.286 107.873 183.192L105.414 174.163C105.323 173.88 105.141 173.598 104.867 173.41C103.911 172.799 101.543 171.059 100.404 168.472C98.9921 165.274 92.2969 143.077 95.3029 141.714C95.4851 141.62 95.6217 141.525 95.7128 141.337C96.2594 140.585 97.8079 138.845 99.0376 141.243C99.7664 142.607 100.541 142.466 101.36 143.265C102.18 144.065 103.501 143.407 103.41 142.231L101.634 116.883C101.588 116.272 101.953 115.754 102.499 115.566L149.548 100.564C149.775 100.47 150.049 100.47 150.276 100.564L173.641 107.901C174.142 108.042 174.461 108.512 174.507 109.029L176.511 137.575C176.602 139.08 178.742 139.174 178.97 137.669C179.152 136.446 180.701 136.164 181.247 137.199L181.612 137.857C181.839 138.234 182.386 138.139 182.614 138.516C183.707 139.974 184.982 138.375 187.487 145.476C188.762 153.47 183.069 165.368 181.338 170.353C182.158 168.707 181.111 171.012 176.419 173.175C175.736 173.504 175.008 173.363 174.825 174.022Z" fill="#E8BEAC" stroke="black" stroke-miterlimit="10"/>
<path d="M170.681 124.69C170.681 124.69 176.784 130.004 175.326 147.216L175.554 161.042L177.831 146.322C177.831 146.322 178.924 138.751 181.93 138.563V113.826C181.93 113.826 180.564 106.067 177.786 106.725L176.784 106.678L176.328 96.3319C176.328 96.3319 169.997 79.7312 145.312 81.095C145.312 81.095 137.615 80.3425 135.064 82.788C135.064 82.788 130.327 80.7658 124.543 82.3647C118.713 83.9166 110.424 84.9042 105.733 95.2503L103.774 101.082C103.774 101.082 95.9405 110.769 99.4931 118.294L99.0832 141.29C99.0832 141.29 103.592 142.09 104.23 153.376L103.592 142.043C103.592 142.043 101.315 126.806 105.186 126.947C105.186 126.947 104.321 117.635 109.058 116.601C109.058 116.601 116.163 114.155 118.85 115.049C121.537 115.942 117.347 127.605 117.347 127.605L124.361 112.603C124.361 112.603 130.054 106.49 135.428 111.146C135.428 111.146 136.613 117.494 135.11 121.915L142.124 109.123C142.124 109.123 159.34 103.903 164.168 112.227L170.316 110.205L166.035 115.19C165.944 115.237 174.962 112.133 170.681 124.69Z" fill="url(#paint1_linear_1_66)" stroke="black" stroke-miterlimit="10"/>
<path d="M131.921 142.983C131.921 142.983 114.295 138.328 110.105 144.676C110.105 144.676 112.382 134.989 130.919 139.738C130.919 139.691 133.789 141.055 131.921 142.983Z" fill="black" stroke="black" stroke-miterlimit="10"/>
<path d="M118.212 150.555C118.212 150.555 124.953 148.815 127.959 150.884L127.64 146.934C127.64 146.934 122.175 145.006 119.032 146.275C119.078 146.275 117.848 149.896 118.212 150.555Z" fill="#737373"/>
<path d="M145.175 143.077C145.175 143.077 162.483 137.199 167.037 143.218C167.037 143.218 164.122 133.719 145.949 139.738C145.949 139.785 143.171 141.29 145.175 143.077Z" fill="black" stroke="black" stroke-miterlimit="10"/>
<path d="M121.036 156.715C121.036 156.715 116.481 153.658 118.941 146.839C118.941 146.839 123.587 143.924 127.549 147.545C127.549 147.545 129.462 153.8 125.272 156.715H121.036Z" stroke="#292929" stroke-width="0.7" stroke-miterlimit="10"/>
<path d="M119.442 156.856C119.442 156.856 126.82 156.48 127.23 156.856" stroke="#292929" stroke-width="0.7" stroke-miterlimit="10"/>
<path d="M123.04 153.141C124.122 153.141 124.999 151.941 124.999 150.461C124.999 148.98 124.122 147.78 123.04 147.78C121.958 147.78 121.082 148.98 121.082 150.461C121.082 151.941 121.958 153.141 123.04 153.141Z" fill="#0E0E0E"/>
<path d="M121.173 150.602C122.053 150.602 122.767 149.907 122.767 149.05C122.767 148.193 122.053 147.498 121.173 147.498C120.292 147.498 119.579 148.193 119.579 149.05C119.579 149.907 120.292 150.602 121.173 150.602Z" fill="#E8E8E8"/>
<path d="M124.179 153.47C124.631 153.47 124.998 153.155 124.998 152.765C124.998 152.375 124.631 152.06 124.179 152.06C123.726 152.06 123.359 152.375 123.359 152.765C123.359 153.155 123.726 153.47 124.179 153.47Z" fill="#E8E8E8"/>
<path d="M123.997 143.314C123.997 143.314 127.185 143.079 128.824 144.631Z" fill="black"/>
<path d="M123.997 143.313C124.406 143.171 124.862 143.171 125.272 143.171C125.727 143.171 126.137 143.219 126.547 143.313C126.957 143.407 127.412 143.548 127.777 143.783C128.141 144.018 128.506 144.3 128.779 144.676C128.414 144.441 128.005 144.3 127.64 144.159C127.23 144.018 126.866 143.924 126.456 143.83C125.682 143.595 124.862 143.454 123.997 143.313Z" fill="black"/>
<path d="M117.666 155.258C117.666 155.258 115.844 152.765 115.388 149.097C115.388 149.097 116.618 147.592 118.941 146.84C121.492 145.993 125.317 146.04 130.373 149.802C130.373 149.802 130.464 149.849 130.373 148.862L131.011 149.285C131.011 149.285 130.009 147.451 128.961 146.793L129.963 146.887L128.688 146.416C128.688 146.416 122.721 142.701 117.119 145.805C117.119 145.805 117.119 145.805 116.573 146.051C116.573 146.051 115.935 146.463 116.026 146.463C116.117 146.463 115.798 146.449 114.159 148.439C114.159 148.439 114.022 148.836 113.863 149.097C113.863 149.097 113.772 149.234 114.159 149.632C114.159 149.632 114.295 149.802 114.159 149.943C114.204 149.896 114.432 151.73 117.666 155.258Z" fill="#292929"/>
<path d="M159.294 150.837C159.294 150.837 152.554 149.097 149.548 151.166L149.866 147.216C149.866 147.216 155.332 145.288 158.474 146.558C158.429 146.558 159.659 150.179 159.294 150.837Z" fill="#737373"/>
<path d="M156.47 156.998C156.47 156.998 161.025 153.941 158.565 147.122C158.565 147.122 153.92 144.206 149.957 147.827C149.957 147.827 148.044 154.082 152.235 156.998H156.47Z" stroke="#292929" stroke-width="0.7" stroke-miterlimit="10"/>
<path d="M158.065 157.186C158.065 157.186 150.686 156.809 150.276 157.186" stroke="#292929" stroke-width="0.7" stroke-miterlimit="10"/>
<path d="M154.467 153.423C155.548 153.423 156.425 152.223 156.425 150.743C156.425 149.262 155.548 148.062 154.467 148.062C153.385 148.062 152.508 149.262 152.508 150.743C152.508 152.223 153.385 153.423 154.467 153.423Z" fill="#0E0E0E"/>
<path d="M156.334 150.884C157.214 150.884 157.928 150.189 157.928 149.332C157.928 148.475 157.214 147.78 156.334 147.78C155.453 147.78 154.74 148.475 154.74 149.332C154.74 150.189 155.453 150.884 156.334 150.884Z" fill="#E8E8E8"/>
<path d="M153.146 142.986C153.146 142.986 149.957 142.75 148.318 144.302Z" fill="black"/>
<path d="M153.147 142.983C152.281 143.124 151.461 143.266 150.687 143.454C150.277 143.548 149.913 143.642 149.503 143.783C149.139 143.924 148.729 144.112 148.364 144.3C148.638 143.924 148.956 143.642 149.366 143.407C149.776 143.172 150.186 143.03 150.596 142.936C151.006 142.842 151.461 142.795 151.871 142.795C152.281 142.842 152.737 142.889 153.147 142.983Z" fill="black"/>
<path d="M160.951 155.999C160.951 155.999 162.782 153.401 163.239 149.578C163.239 149.578 162.004 148.009 159.67 147.225C157.108 146.343 153.264 146.392 148.184 150.313C148.184 150.313 148.093 150.362 148.184 149.333L147.544 149.774C147.544 149.774 148.55 147.862 149.603 147.176L148.596 147.274L149.877 146.784C149.877 146.784 155.872 142.911 161.501 146.147C161.501 146.147 161.364 146.07 162.255 146.449C162.255 146.449 162.69 146.833 162.599 146.833C162.507 146.833 163.029 146.847 164.19 148.836C164.19 148.836 164.475 149.333 164.475 149.872C164.475 149.872 164.017 150.422 164.475 150.03C164.475 150.03 164.475 150.03 164.475 150.46C164.429 150.411 164.2 152.372 160.951 155.999Z" fill="#292929"/>
<path d="M132.195 166.45C132.195 166.45 128.824 171.153 133.015 171.623C133.015 171.623 133.926 168.378 138.116 172.658C138.116 172.658 139.846 173.269 141.349 172.658C141.349 172.658 144.492 168.754 145.904 170.918C145.904 170.918 150.322 170.494 146.587 165.745" stroke="#0E0E0E" stroke-miterlimit="10"/>
<path d="M142.67 149.52C142.67 149.52 142.032 156.292 143.353 161.042" stroke="#0E0E0E" stroke-miterlimit="10"/>
<path d="M149.394 182.999C149.718 183.083 150.051 183.175 150.382 183.268C150.064 183.272 149.746 183.276 149.429 183.28L149.427 183.28C148.493 183.292 147.563 183.303 146.633 183.303H141.031H141.02H141.009H140.998H140.987H140.976H140.965H140.954H140.943H140.932H140.921H140.91H140.899H140.888H140.877H140.866H140.856H140.845H140.834H140.823H140.812H140.801H140.79H140.779H140.768H140.757H140.746H140.735H140.724H140.713H140.702H140.691H140.68H140.67H140.659H140.648H140.637H140.626H140.615H140.604H140.593H140.582H140.571H140.56H140.549H140.538H140.527H140.516H140.505H140.494H140.484H140.473H140.462H140.451H140.44H140.429H140.418H140.407H140.396H140.385H140.374H140.363H140.352H140.341H140.33H140.319H140.308H140.298H140.287H140.276H140.265H140.254H140.243H140.232H140.221H140.21H140.199H140.188H140.177H140.166H140.155H140.144H140.133H140.122H140.112H140.101H140.09H140.079H140.068H140.057H140.046H140.035H140.024H140.013H140.002H139.991H139.98H139.969H139.958H139.947H139.936H139.925H139.915H139.904H139.893H139.882H139.871H139.86H139.849H139.838H139.827H139.816H139.805H139.794H139.783H139.772H139.761H139.75H139.739H139.729H139.718H139.707H139.696H139.685H139.674H139.663H139.652H139.641H139.63H139.619H139.608H139.597H139.586H139.575H139.564H139.553H139.543H139.532H139.521H139.51H139.499H139.488H139.477H139.466H139.455H139.444H139.433H139.422H139.411H139.4H139.389H139.378H139.367H139.357H139.346H139.335H139.324H139.313H139.302H139.291H139.28H139.269H139.258H139.247H139.236H139.225H139.214H139.203H139.192H139.181H139.171H139.16H139.149H139.138H139.127H139.116H139.105H139.094H139.083H139.072H139.061H139.05H139.039H139.028H139.017H139.006H138.995H138.985H138.974H138.963H138.952H138.941H138.93H138.919H138.908H138.897H138.886H138.875H138.864H138.853H138.842H138.831H138.82H138.809H138.799H138.788H138.777H138.766H138.755H138.744H138.733H138.722H138.711H138.7H138.689H138.678H138.667H138.656H138.645H138.634H138.623H138.613H138.602H138.591H138.58H138.569H138.558H138.547H138.536H138.525H138.514H138.503H138.492H138.481H138.47H138.459H138.448H138.437H138.426H138.416H138.405H138.394H138.383H138.372H138.361H138.35H138.339H138.328H138.317H138.306H138.295H138.284H138.273H138.262H138.251H138.24H138.23H138.219H138.208H138.197H138.186H138.175H138.164H138.153H138.142H138.131H138.12H138.109H138.098H138.087H138.076H138.065H138.054H138.044H138.033H138.022H138.011H138H137.989H137.978H137.967H137.956H137.945H137.934H137.923H137.912H137.901H137.89H137.879H137.868H137.858H137.847H137.836H137.825H137.814H137.803H137.792H137.781H137.77H137.759H137.748H137.737H137.726H137.715H137.704H137.693H137.682H137.672H137.661H137.65H137.639H137.628H137.617H137.606H137.595H137.584H137.573H137.562H137.551H137.54H137.529H137.518H137.507H137.496H137.486H137.475H137.464H137.453H137.442H137.431H137.42H137.409H137.398H137.387H137.376H137.365H137.354H137.343H137.332H137.321H137.31H137.3H137.289H137.278H137.267H137.256H137.245H137.234H137.223H137.212H137.201H137.19H137.179H137.168H137.157H137.146H137.135H137.124H137.114H137.103H137.092H137.081H137.07H137.059H137.048H137.037H137.026H137.015H137.004H136.993H136.982H136.971H136.96H136.949H136.938H136.928H136.917H136.906H136.895H136.884H136.873H136.862H136.851H136.84H136.829H136.818H136.807H136.796H136.785H136.774H136.763H136.752H136.741H136.731H136.72H136.709H136.698H136.687H136.676H136.665H136.654H136.643H136.632H136.621H136.61H136.599H136.588H136.577H136.566H136.555H136.545H136.534H136.523H136.512H136.501H136.49H136.479H136.468H136.457H136.446H136.435H136.424H136.413H136.402H136.391H136.38H136.369H136.359H136.348H136.337H136.326H136.315H136.304H136.293H136.282H136.271H136.26H136.249H136.238H136.227H136.216H136.205H136.194H136.183H136.173H136.162H136.151H136.14H136.129H136.118H136.107H136.096H136.085H136.074H136.063H136.052H136.041H136.03H136.019H136.008H135.997H135.987H135.976H135.965H135.954H135.943H135.932H135.921H135.91H135.899H135.888H135.877H135.866H135.855H135.844H135.833H135.822H135.811H135.801H135.79H135.779H135.768H135.757H135.746H135.735H135.724H135.713H135.702H135.691H135.68H135.669H135.658H135.647H135.636H135.625H135.615H135.604H135.593H135.582H135.571H135.56H135.549H135.538H135.527H135.516H135.505H135.494H135.483H135.472H135.461H135.45H135.439H135.431L130.317 183.261C130.171 183.066 130.027 182.898 129.896 182.747C129.87 182.716 129.844 182.686 129.819 182.657C129.792 182.626 129.766 182.594 129.74 182.563H130.076L131.283 182.79L131.347 182.802L131.412 182.797L134.519 182.563C135.114 182.563 135.796 182.559 136.51 182.554C138.056 182.543 139.75 182.531 141.018 182.563L141.018 182.563H141.031H146.633C147.501 182.563 148.442 182.753 149.394 182.999Z" fill="black" stroke="black"/>
<path d="M140.848 185.496C140.848 185.496 148.158 183.992 150.253 185.496L145.813 188.365C145.813 188.365 140.074 190.905 135.019 188.365L130.897 185.048C130.897 185.048 138.708 184.415 140.848 185.496Z" fill="#6B5A48"/>
<path d="M152.235 183.615L150.094 185.59C150.094 185.59 134.016 186.907 131.511 185.59L129.781 183.615H152.235Z" fill="white"/>
<path d="M185.073 143.971C184.891 143.595 184.663 143.218 184.435 142.889C184.162 142.56 183.843 142.278 183.479 142.231C183.069 142.184 182.796 142.513 182.568 142.842C182.34 143.171 182.204 143.595 182.067 143.971V144.018C181.111 145.053 180.61 146.463 180.382 147.874C180.154 149.285 180.2 150.743 180.473 152.154C180.746 153.565 181.111 154.928 181.566 156.339C181.839 157.045 181.885 157.891 181.612 158.596C181.338 159.302 180.701 159.819 180.063 160.148V160.101C180.655 159.725 181.156 159.161 181.384 158.502C181.475 158.173 181.521 157.844 181.475 157.468C181.475 157.28 181.429 157.139 181.384 156.951C181.338 156.809 181.247 156.621 181.202 156.48L180.837 155.446C180.701 155.116 180.61 154.74 180.519 154.411C180.291 153.706 180.2 152.953 180.063 152.248C179.881 150.79 179.835 149.285 180.109 147.827C180.382 146.369 180.928 144.958 181.976 143.877L181.93 143.924C182.067 143.548 182.249 143.124 182.523 142.795C182.659 142.607 182.796 142.466 182.978 142.325C183.16 142.184 183.388 142.09 183.616 142.137C184.071 142.184 184.39 142.56 184.618 142.889C184.754 143.218 184.936 143.595 185.073 143.971Z" fill="black"/>
<path d="M183.251 153.235C183.251 153.235 182.067 145.241 181.111 145.1" stroke="black" stroke-miterlimit="10"/>
<path d="M95.8495 147.592C95.9405 147.169 96.0772 146.746 96.2594 146.369C96.4415 145.993 96.6693 145.617 97.1247 145.429C97.3525 145.335 97.5802 145.382 97.7624 145.476C97.9445 145.57 98.1267 145.711 98.2634 145.852C98.5822 146.134 98.8099 146.51 99.0376 146.84L98.9921 146.793C100.222 147.639 100.996 148.909 101.588 150.273C102.135 151.636 102.408 153.141 102.454 154.599C102.454 155.352 102.499 156.057 102.408 156.809C102.362 157.186 102.362 157.562 102.271 157.891L102.089 158.973C102.044 159.161 101.998 159.349 101.998 159.49C101.998 159.678 101.998 159.819 101.998 160.007C102.044 160.337 102.135 160.666 102.317 160.995C102.636 161.606 103.228 162.03 103.911 162.312V162.359C103.228 162.171 102.545 161.794 102.135 161.183C101.725 160.572 101.588 159.725 101.725 158.973C101.907 157.515 102.044 156.104 102.044 154.646C101.998 153.188 101.77 151.778 101.315 150.414C100.814 149.097 100.04 147.827 98.9466 146.981H98.901C98.6733 146.604 98.4455 146.275 98.1723 145.993C97.899 145.711 97.5346 145.429 97.1703 145.57C96.8059 145.664 96.5326 146.04 96.3505 146.416C96.1227 146.793 95.9861 147.216 95.8495 147.592Z" fill="black"/>
<path d="M99.402 156.339C99.402 156.339 99.0832 148.25 99.9941 147.921" stroke="black" stroke-miterlimit="10"/>
<path d="M176.055 168.096C176.055 168.096 176.92 172.234 179.972 171.059" stroke="black" stroke-miterlimit="10"/>
<path d="M194.67 288.405L209.471 213.128C209.797 210.647 211.865 208.682 214.477 208.578L314.271 202.995C317.754 202.788 320.475 205.683 319.93 208.889L308.504 279.409C308.177 281.684 306.218 283.442 303.824 283.752L204.465 296.678C200.982 297.091 191.732 292.748 194.67 288.405Z" fill="url(#paint2_angular_1_66)"/>
<path d="M130.136 275.894L196.956 269.689C197.718 269.586 198.262 270.206 198.153 270.93L194.344 293.989C194.235 294.609 193.582 295.023 192.929 294.816L129.483 279.306C128.83 279.202 128.504 278.479 128.721 277.962L129.157 276.617C129.265 276.204 129.701 275.997 130.136 275.894Z" fill="url(#paint3_angular_1_66)"/>
<path d="M196.085 275.273L164.852 278.375C163.219 278.582 163.002 280.754 164.634 281.167L193.256 288.199C194.017 288.405 194.888 287.888 195.106 287.165L197.718 277.134C197.935 275.997 197.065 275.17 196.085 275.273Z" fill="#999999"/>
<path d="M206.782 58.5611L207.99 65.2423L216.447 65.2423L216.93 58.5611L225.387 54.9636L230.461 59.0751L236.501 52.1369L232.636 47.2545L236.501 38.5175L242.542 37.2327L242.542 28.7527L236.018 27.4679L232.877 18.7309L236.26 13.5915L230.461 6.9103L225.87 11.0218L216.688 6.9103L216.447 1L207.507 1L206.782 7.16727L198.808 11.0218L193.493 6.9103L187.694 13.3345L191.076 18.9879L187.694 27.7248L181.17 28.2387L181.412 37.2327L188.177 38.0036L191.318 46.7406L187.694 52.6508L193.493 58.8181L199.05 54.7066L206.782 58.5611Z" fill="url(#paint4_linear_1_66)" stroke="#2C3E95" stroke-width="2" stroke-miterlimit="10"/>
<path d="M212.339 45.9697C219.412 45.9697 225.145 39.9871 225.145 32.6073C225.145 25.2274 219.412 19.2449 212.339 19.2449C205.267 19.2449 199.533 25.2274 199.533 32.6073C199.533 39.9871 205.267 45.9697 212.339 45.9697Z" fill="#FEFEFE" stroke="#2C3E95" stroke-width="2" stroke-miterlimit="10"/>
<path d="M82.6727 277.282L8.05814 277.282C4.02492 277.282 1 274.026 1 270.269L1 230.196C1 226.188 4.27699 223.183 8.05814 223.183L82.6727 223.183C86.7059 223.183 89.7308 226.439 89.7308 230.196L89.7308 270.269C89.7308 274.026 86.4539 277.282 82.6727 277.282Z" fill="url(#paint5_linear_1_66)" stroke="#283C8F" stroke-width="2" stroke-miterlimit="10"/>
<path d="M57.9692 241.216L10.5789 241.216L10.5789 270.019L57.9692 270.019L57.9692 241.216Z" fill="url(#paint6_linear_1_66)" stroke="#283C8F" stroke-width="2" stroke-miterlimit="10"/>
<path d="M12.3434 228.442L46.8779 228.442" stroke="#283C8F" stroke-width="2" stroke-miterlimit="10"/>
<path d="M14.8642 233.452L34.2741 233.452" stroke="#283C8F" stroke-width="2" stroke-miterlimit="10"/>
<defs>
<linearGradient id="paint0_linear_1_66" x1="281.339" y1="49.4762" x2="281.339" y2="113.719" gradientUnits="userSpaceOnUse">
<stop stop-color="#0000FF"/>
<stop offset="0.489583" stop-color="#E39DFF"/>
<stop offset="0.994792" stop-color="#0000FF"/>
</linearGradient>
<linearGradient id="paint1_linear_1_66" x1="108.83" y1="66.8637" x2="141.829" y2="160.485" gradientUnits="userSpaceOnUse">
<stop offset="0.1875"/>
<stop offset="0.375" stop-color="#737373"/>
<stop offset="0.609375"/>
</linearGradient>
<radialGradient id="paint2_angular_1_66" cx="0" cy="0" r="1" gradientUnits="userSpaceOnUse" gradientTransform="translate(257.036 249.824) scale(56.5387 53.7206)">
<stop offset="0.1875" stop-color="#E39DFF"/>
<stop offset="0.8125" stop-color="#0000FF"/>
</radialGradient>
<radialGradient id="paint3_angular_1_66" cx="0" cy="0" r="1" gradientUnits="userSpaceOnUse" gradientTransform="translate(163.379 282.287) scale(26.3135 25.002)">
<stop offset="0.25" stop-color="#E39DFF"/>
<stop offset="1" stop-color="#0000FF"/>
</radialGradient>
<linearGradient id="paint4_linear_1_66" x1="211.856" y1="1" x2="211.856" y2="65.2423" gradientUnits="userSpaceOnUse">
<stop stop-color="#0000FF"/>
<stop offset="0.5" stop-color="#E39DFF"/>
<stop offset="1" stop-color="#0000FF"/>
</linearGradient>
<linearGradient id="paint5_linear_1_66" x1="45.3654" y1="223.183" x2="45.3654" y2="277.282" gradientUnits="userSpaceOnUse">
<stop stop-color="#0000FF"/>
<stop offset="0.463542" stop-color="#E39DFF"/>
<stop offset="1" stop-color="#0000FF"/>
</linearGradient>
<linearGradient id="paint6_linear_1_66" x1="34.274" y1="241.216" x2="34.2741" y2="270.019" gradientUnits="userSpaceOnUse">
<stop stop-color="#0000FF"/>
<stop offset="0.463542" stop-color="#E39DFF"/>
<stop offset="1" stop-color="#0000FF"/>
</linearGradient>
</defs>
</svg>
