<svg width="88" height="75" viewBox="0 0 88 75" fill="none" xmlns="http://www.w3.org/2000/svg">
<path d="M8.62151 58.4326H47.951C49.26 58.4326 50.45 59.4441 50.6285 60.7531L51.997 70.9871C52.235 72.5936 50.9855 74.0216 49.379 74.0216L7.84801 74.2001C6.24151 74.2001 4.99201 72.8316 5.17051 71.2251L6.24151 60.6341C6.30101 59.3846 7.37201 58.4326 8.62151 58.4326Z" fill="black"/>
<path d="M48.1295 62.0025H45.452C45.0355 62.0025 44.738 61.705 44.738 61.2885V60.277C44.738 59.8605 45.0355 59.563 45.452 59.563H48.1295C48.546 59.563 48.8435 59.8605 48.8435 60.277V61.2885C48.8435 61.705 48.546 62.0025 48.1295 62.0025Z" fill="white"/>
<path d="M41.7035 62.0025H39.026C38.6095 62.0025 38.312 61.705 38.312 61.2885V60.277C38.312 59.8605 38.6095 59.563 39.026 59.563H41.7035C42.12 59.563 42.4175 59.8605 42.4175 60.277V61.2885C42.477 61.705 42.12 62.0025 41.7035 62.0025Z" fill="white"/>
<path d="M35.575 61.9429H32.8975C32.481 61.9429 32.1835 61.6454 32.1835 61.2289V60.2174C32.1835 59.8009 32.481 59.5034 32.8975 59.5034H35.575C35.9915 59.5034 36.289 59.8009 36.289 60.2174V61.2289C36.3485 61.6454 35.9915 61.9429 35.575 61.9429Z" fill="white"/>
<path d="M29.387 61.9429H26.7095C26.293 61.9429 25.9955 61.6454 25.9955 61.2289V60.2174C25.9955 59.8009 26.293 59.5034 26.7095 59.5034H29.387C29.8035 59.5034 30.101 59.8009 30.101 60.2174V61.2289C30.1605 61.5859 29.8035 61.9429 29.387 61.9429Z" fill="white"/>
<path d="M23.199 61.9429H20.5215C20.105 61.9429 19.8075 61.6454 19.8075 61.2289V60.2174C19.8075 59.8009 20.105 59.5034 20.5215 59.5034H23.199C23.6155 59.5034 23.913 59.8009 23.913 60.2174V61.2289C23.9725 61.5859 23.6155 61.9429 23.199 61.9429Z" fill="white"/>
<path d="M17.011 61.9429H14.3335C13.917 61.9429 13.6195 61.6454 13.6195 61.2289V60.2174C13.6195 59.8009 13.917 59.5034 14.3335 59.5034H17.011C17.4275 59.5034 17.725 59.8009 17.725 60.2174V61.2289C17.7845 61.6454 17.4275 61.9429 17.011 61.9429Z" fill="white"/>
<path d="M20.1645 65.751H17.487C17.0705 65.751 16.773 65.4535 16.773 65.037V64.0255C16.773 63.609 17.0705 63.3115 17.487 63.3115H20.1645C20.581 63.3115 20.8785 63.609 20.8785 64.0255V65.037C20.8785 65.394 20.581 65.751 20.1645 65.751Z" fill="white"/>
<path d="M19.0935 69.202H16.416C15.9995 69.202 15.702 68.9044 15.702 68.4879V67.4764C15.702 67.0599 15.9995 66.7625 16.416 66.7625H19.0935C19.51 66.7625 19.8075 67.0599 19.8075 67.4764V68.4879C19.8075 68.9044 19.51 69.202 19.0935 69.202Z" fill="white"/>
<path d="M25.341 68.9639H22.6635C22.247 68.9639 21.9495 68.6664 21.9495 68.2499V67.2384C21.9495 66.8219 22.247 66.5244 22.6635 66.5244H25.341C25.7575 66.5244 26.055 66.8219 26.055 67.2384V68.2499C26.1145 68.6664 25.7575 68.9639 25.341 68.9639Z" fill="white"/>
<path d="M26.4715 65.6914H23.794C23.3775 65.6914 23.08 65.3939 23.08 64.9774V63.966C23.08 63.5495 23.3775 63.252 23.794 63.252H26.4715C26.888 63.252 27.1855 63.5495 27.1855 63.966V64.9774C27.245 65.3344 26.888 65.6914 26.4715 65.6914Z" fill="white"/>
<path d="M33.0165 65.751H30.339C29.9225 65.751 29.625 65.4535 29.625 65.037V64.0255C29.625 63.609 29.9225 63.3115 30.339 63.3115H33.0165C33.433 63.3115 33.7305 63.609 33.7305 64.0255V65.037C33.79 65.394 33.433 65.751 33.0165 65.751Z" fill="white"/>
<path d="M38.669 65.6914H35.9915C35.575 65.6914 35.2775 65.3939 35.2775 64.9774V63.966C35.2775 63.5495 35.575 63.252 35.9915 63.252H38.669C39.0855 63.252 39.383 63.5495 39.383 63.966V64.9774C39.383 65.3344 39.0855 65.6914 38.669 65.6914Z" fill="white"/>
<path d="M37.7765 69.202H35.099C34.6825 69.202 34.385 68.9044 34.385 68.4879V67.4764C34.385 67.0599 34.6825 66.7625 35.099 66.7625H37.7765C38.193 66.7625 38.4905 67.0599 38.4905 67.4764V68.4879C38.55 68.9044 38.193 69.202 37.7765 69.202Z" fill="white"/>
<path d="M31.5885 69.202H28.911C28.4945 69.202 28.197 68.9044 28.197 68.4879V67.4764C28.197 67.0599 28.4945 66.7625 28.911 66.7625H31.5885C32.005 66.7625 32.3025 67.0599 32.3025 67.4764V68.4879C32.3025 68.9044 32.005 69.202 31.5885 69.202Z" fill="white"/>
<path d="M17.3085 72.9505H14.631C14.2145 72.9505 13.917 72.653 13.917 72.2365V71.225C13.917 70.8085 14.2145 70.511 14.631 70.511H17.3085C17.725 70.511 18.0225 70.8085 18.0225 71.225V72.2365C18.0225 72.5935 17.725 72.9505 17.3085 72.9505Z" fill="white"/>
<path d="M10.4065 72.8316H7.72902C7.31252 72.8316 7.01501 72.5341 7.01501 72.1176V71.1061C7.01501 70.6896 7.31252 70.3921 7.72902 70.3921H10.4065C10.823 70.3921 11.1205 70.6896 11.1205 71.1061V72.1176C11.1205 72.4746 10.823 72.8316 10.4065 72.8316Z" fill="white"/>
<path d="M43.191 72.8316H40.5135C40.097 72.8316 39.7995 72.5341 39.7995 72.1176V71.1061C39.7995 70.6896 40.097 70.3921 40.5135 70.3921H43.191C43.6075 70.3921 43.905 70.6896 43.905 71.1061V72.1176C43.905 72.4746 43.6075 72.8316 43.191 72.8316Z" fill="white"/>
<path d="M49.379 72.9505H46.7015C46.285 72.9505 45.9875 72.653 45.9875 72.2365V71.225C45.9875 70.8085 46.285 70.511 46.7015 70.511H49.379C49.7955 70.511 50.093 70.8085 50.093 71.225V72.2365C50.1525 72.5935 49.7955 72.9505 49.379 72.9505Z" fill="white"/>
<path d="M47.594 69.0235H41.882C41.4655 69.0235 41.168 68.726 41.168 68.3095V67.298C41.168 66.8815 41.4655 66.584 41.882 66.584H47.594C48.0105 66.584 48.308 66.8815 48.308 67.298V68.3095C48.308 68.726 47.951 69.0235 47.594 69.0235Z" fill="white"/>
<path d="M48.665 65.513H42.953C42.5365 65.513 42.239 65.2155 42.239 64.799V63.7875C42.239 63.371 42.5365 63.0735 42.953 63.0735H48.665C49.0815 63.0735 49.379 63.371 49.379 63.7875V64.799C49.379 65.2155 49.0815 65.513 48.665 65.513Z" fill="white"/>
<path d="M13.798 65.5726H8.08601C7.66951 65.5726 7.37201 65.2751 7.37201 64.8586V63.8471C7.37201 63.4306 7.66951 63.1331 8.08601 63.1331H13.798C14.2145 63.1331 14.512 63.4306 14.512 63.8471V64.8586C14.5715 65.2751 14.2145 65.5726 13.798 65.5726Z" fill="white"/>
<path d="M13.441 69.083H7.72902C7.31252 69.083 7.01501 68.7855 7.01501 68.369V67.3576C7.01501 66.9411 7.31252 66.6436 7.72902 66.6436H13.441C13.8575 66.6436 14.155 66.9411 14.155 67.3576V68.369C14.155 68.7855 13.798 69.083 13.441 69.083Z" fill="white"/>
<path d="M36.5865 72.8316H21.2355C20.819 72.8316 20.5215 72.5341 20.5215 72.1176V71.1061C20.5215 70.6896 20.819 70.3921 21.2355 70.3921H36.5865C37.003 70.3921 37.3005 70.6896 37.3005 71.1061V72.1176C37.36 72.5341 37.003 72.8316 36.5865 72.8316Z" fill="white"/>
<path d="M10.942 61.9429H8.2645C7.848 61.9429 7.55051 61.6454 7.55051 61.2289V60.2174C7.55051 59.8009 7.848 59.5034 8.2645 59.5034H10.942C11.3585 59.5034 11.656 59.8009 11.656 60.2174V61.2289C11.656 61.6454 11.3585 61.9429 10.942 61.9429Z" fill="white"/>
<path d="M0.410496 6.25089L1.0055 33.1449C1.065 36.3579 3.683 38.9164 6.896 38.9164L51.283 39.1544C54.5555 39.1544 57.233 36.5364 57.233 33.2639L57.4115 6.13189C57.4115 2.85939 54.7935 0.181885 51.4615 0.181885H6.301C2.969 0.181885 0.291496 2.91889 0.410496 6.25089Z" fill="black"/>
<path d="M51.1045 6.07251H6.47949V31.6575H51.1045V6.07251Z" fill="white"/>
<path d="M28.6135 37.429C29.6979 37.429 30.577 36.5499 30.577 35.4655C30.577 34.381 29.6979 33.502 28.6135 33.502C27.5291 33.502 26.65 34.381 26.65 35.4655C26.65 36.5499 27.5291 37.429 28.6135 37.429Z" fill="white"/>
<path d="M35.575 37.7266H22.0685V45.4021H35.575V37.7266Z" fill="black"/>
<path d="M14.6905 50.2811L42.239 50.4596C42.239 50.4596 42.477 44.9856 37.8955 44.5691L18.439 44.6286C18.439 44.6286 14.036 45.8186 14.6905 50.2811Z" fill="black"/>
<path d="M61.6955 62.9545L57.6495 64.2635C57.6495 64.2635 56.757 59.801 60.7435 59.7415L61.6955 62.9545Z" fill="black"/>
<path d="M61.6955 59.5035L62.945 62.8355L67.11 62.1215C67.11 62.1215 65.0275 58.0755 61.6955 59.5035Z" fill="black"/>
<path d="M59.3155 69.9159C65.5035 73.1884 68.181 67.7144 68.181 67.7144L67.1695 63.0139L57.709 65.1559L59.3155 69.9159Z" fill="black"/>
<path d="M66.634 4.34692L85.436 4.40643C86.5665 4.40643 87.5185 5.35843 87.5185 6.48892V47.5439C87.5185 48.6744 86.5665 49.6264 85.436 49.6264H65.801C64.611 49.6264 63.659 48.6744 63.7185 47.4844L64.5515 6.36992C64.5515 5.29892 65.5035 4.34692 66.634 4.34692Z" fill="black"/>
<path d="M66.991 10.5944L84.4245 10.5349C84.9005 10.5349 85.2575 10.8919 85.2575 11.3679V14.8784C85.2575 15.3544 84.9005 15.7114 84.4245 15.7114L66.991 15.8899C66.515 15.8899 66.158 15.5329 66.158 15.0569V11.4274C66.158 10.9514 66.515 10.5944 66.991 10.5944Z" fill="white"/>
<path d="M66.9315 17.9726L84.484 17.9131C84.9005 17.9131 85.2575 18.2701 85.2575 18.6866V22.2566C85.2575 22.6731 84.9005 23.0301 84.484 23.0301L66.9315 23.2681C66.515 23.2681 66.158 22.9111 66.158 22.4946V18.7461C66.0985 18.3296 66.4555 17.9726 66.9315 17.9726Z" fill="white"/>
<path d="M76.035 41.713L77.225 37.8455C78.891 38.381 80.0215 39.928 80.0215 41.713C80.0215 43.9145 78.177 45.759 75.9755 45.759C73.774 45.759 71.9295 43.9145 71.9295 41.713C71.9295 40.2255 72.7625 38.857 74.0715 38.143L76.035 41.713Z" fill="white"/>
<path d="M76.035 45.5804C78.0724 45.5804 79.724 43.9288 79.724 41.8914C79.724 39.854 78.0724 38.2024 76.035 38.2024C73.9976 38.2024 72.346 39.854 72.346 41.8914C72.346 43.9288 73.9976 45.5804 76.035 45.5804Z" fill="black"/>
<path d="M76.035 44.9259C77.7109 44.9259 79.0695 43.5673 79.0695 41.8914C79.0695 40.2155 77.7109 38.8569 76.035 38.8569C74.3591 38.8569 73.0005 40.2155 73.0005 41.8914C73.0005 43.5673 74.3591 44.9259 76.035 44.9259Z" fill="white"/>
<path d="M76.035 42.546H75.44C75.1425 42.546 74.9045 42.308 74.9045 42.0105V37.786C74.9045 37.4885 75.1425 37.2505 75.44 37.2505H75.9755C76.273 37.2505 76.511 37.4885 76.511 37.786V42.0105C76.511 42.308 76.273 42.546 76.035 42.546Z" fill="white"/>
<path d="M76.035 43.022C76.6594 43.022 77.1655 42.5158 77.1655 41.8915C77.1655 41.2671 76.6594 40.761 76.035 40.761C75.4106 40.761 74.9045 41.2671 74.9045 41.8915C74.9045 42.5158 75.4106 43.022 76.035 43.022Z" fill="black"/>
</svg>
