<svg width="52" height="31" viewBox="0 0 52 31" fill="none" xmlns="http://www.w3.org/2000/svg">
<path d="M50.7921 10.4369L26.638 0.362051L26.0437 0.102523C25.7319 -0.0324315 25.3393 -0.035027 25.0275 0.0999275L9.2121 6.84765C8.91494 6.97482 8.73518 7.2032 8.73885 7.44716L8.81222 11.7605C8.82322 12.3003 9.667 12.6247 10.3127 12.3367L16.3439 9.64017C16.9896 9.35209 17.8333 9.67391 17.8443 10.2137L18.0021 17.6959C18.0058 17.9451 17.8223 18.176 17.5215 18.3032L8.49672 22.0534C7.8437 22.3233 7.0256 21.9911 7.0256 21.4565V16.4502C7.0256 15.913 6.20017 15.5808 5.55082 15.8559L0.477132 17.984C0.176306 18.1112 -0.00712505 18.3421 0.000212175 18.5913L0.275358 30.3193C0.286364 30.854 1.11547 31.1758 1.76115 30.8981L24.4955 21.1398C24.789 21.0127 24.9688 20.7869 24.9651 20.5403L24.7707 7.3719C24.7633 6.81391 25.6438 6.47912 26.2968 6.79315C26.5646 6.92032 26.7224 7.13573 26.726 7.36411L26.7737 20.6416C26.7737 20.8829 26.9535 21.1061 27.2433 21.2307L49.7906 30.8851C50.4436 31.1628 51.2727 30.8332 51.2727 30.2934V11.0312C51.2727 10.7873 51.0893 10.5615 50.7921 10.4369ZM44.2327 22.6996L33.5423 18.1086L33.6707 9.10554L44.3867 13.6058L44.2327 22.6996Z" fill="#4773FF"/>
</svg>
