<svg width="157" height="157" viewBox="0 0 157 157" fill="none" xmlns="http://www.w3.org/2000/svg">
<path d="M35.639 28.0245L15.3075 61.6225C-7.85 99.852 19.154 149.15 63.271 149.15H133.136C148.13 149.15 157.392 132.587 149.856 119.477L97.7325 28.9665C82.3465 2.27654 51.496 1.80554 35.639 28.0245Z" fill="#FDE74C"/>
<path d="M81.012 67.039C80.855 82.739 68.295 95.613 52.438 95.77C36.11 96.0055 23.236 82.896 23.079 67.196C22.922 50.868 35.8745 37.994 51.653 37.837C67.981 37.68 81.012 50.711 81.012 67.039Z" fill="#00769C"/>
<path d="M51.7315 93.8075C36.11 93.3365 24.8845 80.855 25.12 66.568C25.3555 50.9465 37.837 39.7995 51.967 39.878C67.981 39.9565 79.2065 52.8305 78.971 67.1175C78.657 82.9745 65.8615 93.886 51.7315 93.8075Z" fill="#FEFEFE"/>
<path d="M67.2745 76.302C65.312 73.633 63.3495 71.121 61.4655 68.5305C59.5815 65.94 57.6975 63.428 55.8135 60.916C54.5575 59.189 53.3015 57.462 51.967 55.735C51.7315 55.421 51.7315 55.264 52.2025 55.1855C52.9875 54.95 53.7725 54.636 54.636 54.4005C55.0285 54.322 55.0285 54.0865 54.95 53.7725V53.694C54.793 53.1445 54.7145 52.281 54.322 52.0455C53.9295 51.81 53.223 52.281 52.6735 52.5165C48.7485 53.694 44.8235 54.8715 40.977 56.049C40.349 56.206 40.035 56.52 40.349 57.148C40.4275 57.2265 40.4275 57.3835 40.506 57.462C40.8985 58.6395 40.8985 58.6395 41.9975 58.247C42.704 58.0115 43.4105 57.5405 44.0385 57.776C44.6665 57.933 44.902 58.7965 45.373 59.4245C47.1 61.701 48.7485 63.9775 50.4755 66.254C51.1035 67.039 50.7895 67.981 50.7895 68.8445C50.711 71.435 50.6325 74.0255 50.4755 76.616C50.397 78.186 50.3185 79.8345 50.24 81.5615C49.3765 80.384 48.513 79.285 47.6495 78.1075C46.5505 76.6945 45.53 75.2815 44.431 73.79C42.7825 71.592 41.2125 69.394 39.564 67.1175C38.2295 65.2335 36.8165 63.428 35.4035 61.544C34.6185 60.445 34.54 60.445 35.8745 60.0525C35.953 60.0525 35.953 60.0525 36.0315 60.0525C36.581 59.817 37.4445 59.8955 37.6015 59.4245C37.7585 58.9535 37.2875 58.3255 37.209 57.776C37.1305 57.2265 36.895 57.305 36.5025 57.462C34.1475 58.1685 31.7925 58.875 29.516 59.5815C29.359 59.66 29.202 59.7385 28.9665 59.66C32.8915 45.53 49.612 38.308 62.643 45.059C60.759 45.687 59.5815 46.943 59.189 48.827C59.032 50.0045 59.1105 51.1035 60.2095 51.967C61.4655 52.9875 62.8 53.851 63.9775 55.107C65.626 56.9125 66.8035 58.9535 67.353 61.387C68.0595 64.527 67.7455 67.667 67.5885 70.807C67.51 72.6125 67.353 74.418 67.2745 76.302Z" fill="#00769C"/>
<path d="M53.066 69.9435C54.7145 72.1415 56.2845 74.261 57.8545 76.3805C59.346 78.4215 60.8375 80.4625 62.329 82.5035C63.3495 83.838 64.37 85.1725 65.3905 86.507C65.626 86.7425 65.626 86.8995 65.2335 87.135C61.6225 89.4115 57.6975 90.746 53.38 90.9815C52.8305 90.9815 52.0455 91.217 51.7315 90.9815C51.4175 90.746 51.653 89.961 51.7315 89.4115C51.967 85.6435 52.2025 81.797 52.438 78.029C52.595 75.4385 52.752 72.7695 52.909 70.179C52.9875 70.1005 52.9875 70.022 53.066 69.9435Z" fill="#00769C"/>
<path d="M69.237 83.7594C69.394 80.7764 69.4725 77.8719 69.6295 74.8889C69.7865 71.5134 69.9435 68.1379 70.1005 64.7624C70.2575 61.8579 70.493 58.8749 70.4145 55.9704C70.4145 54.0079 69.9435 52.0454 69.1585 50.2399C69.08 50.0829 68.923 49.9259 69.08 49.6119C73.633 54.1649 75.988 59.7384 76.2235 66.0969C76.459 72.9264 74.0255 78.8139 69.237 83.7594Z" fill="#00769C"/>
<path d="M47.414 90.589C34.6185 88.1555 26.533 75.988 28.0245 64.37C34.4615 73.0835 40.8985 81.797 47.414 90.589Z" fill="#00769C"/>
<path d="M128.74 112.726C125.836 115.159 123.324 117.985 120.576 120.576C117.593 123.402 114.689 126.385 111.784 129.289C109.979 131.016 108.33 132.979 106.368 134.47C101.972 137.924 97.1045 139.259 91.6095 137.139C90.8245 136.825 90.8245 136.433 90.9815 135.883C92.316 131.016 93.6505 126.228 94.985 121.361C95.613 119.084 96.241 116.729 96.7905 114.845C93.6505 117.828 90.275 120.968 86.8995 124.187C83.524 127.405 79.6775 129.368 74.889 129.211C73.5545 129.132 72.377 128.661 71.121 128.426C70.2575 128.269 70.179 127.798 70.4145 127.013C71.5135 122.695 72.6125 118.299 73.633 113.982C74.889 108.801 76.2235 103.698 77.4795 98.5175C78.029 96.398 78.5785 94.2785 79.0495 92.159C79.285 91.1385 79.913 91.6095 80.227 91.845C82.425 93.258 84.2305 95.142 85.3295 97.5755C87.0565 101.422 86.35 105.111 84.8585 108.801C83.524 111.941 82.5035 115.159 81.326 118.378C81.2475 118.613 80.9335 118.849 81.326 119.32C82.739 117.907 84.152 116.494 85.4865 115.081C87.92 112.569 90.275 109.9 92.8655 107.466C96.398 104.248 100.402 102.05 105.426 102.913C105.583 102.913 105.818 102.992 105.975 102.992C108.409 103.62 108.566 103.62 107.938 105.975C106.603 110.842 105.19 115.63 103.777 120.497C103.071 122.931 102.443 125.364 101.736 127.798C101.815 127.876 101.972 127.876 102.05 127.955C104.013 125.678 105.897 123.402 107.938 121.282C110.136 118.927 112.02 116.258 114.689 114.374C118.928 111.391 123.481 110.371 128.426 112.412C128.505 112.412 128.662 112.412 128.74 112.412C128.74 112.49 128.74 112.647 128.74 112.726Z" fill="#4353FE"/>
</svg>
