<svg width="163" height="163" viewBox="0 0 163 163" fill="none" xmlns="http://www.w3.org/2000/svg">
<path d="M161.47 87.8391C161.828 87.857 162.149 87.5715 162.185 87.1971C162.185 86.8228 161.899 86.4916 161.542 86.4748C161.149 86.447 160.827 86.7328 160.827 87.1083C160.791 87.4826 161.076 87.8127 161.47 87.8391Z" fill="#70D9F0"/>
<path d="M161.329 90.0607C161.719 90.0884 162.041 89.8029 162.041 89.4272C162.077 89.0529 161.792 88.7231 161.398 88.6953C161.043 88.6788 160.721 88.9548 160.685 89.33C160.685 89.7046 160.971 90.0344 161.329 90.0607Z" fill="#70D9F0"/>
<path d="M161.22 92.2382C161.595 92.2659 161.917 91.9803 161.933 91.6049C161.969 91.2305 161.667 90.9007 161.293 90.873C160.918 90.8467 160.597 91.1319 160.577 91.5161C160.541 91.8904 160.846 92.2118 161.22 92.2382Z" fill="#70D9F0"/>
<path d="M161.113 94.4601C161.47 94.4959 161.792 94.2107 161.828 93.8363C161.828 93.4609 161.542 93.1308 161.184 93.1045C160.791 93.0768 160.472 93.3718 160.472 93.7377C160.436 94.1121 160.721 94.4337 161.113 94.4601Z" fill="#70D9F0"/>
<path d="M160.971 96.8342C161.345 96.851 161.667 96.5658 161.683 96.1912C161.719 95.8171 161.418 95.4957 161.043 95.4691C160.666 95.4414 160.347 95.7272 160.328 96.1023C160.311 96.477 160.597 96.7983 160.971 96.8342Z" fill="#70D9F0"/>
<path d="M149.245 90.0164C149.852 90.0523 150.37 89.588 150.387 88.9906C150.423 88.3837 149.977 87.8665 149.37 87.8219C148.765 87.786 148.264 88.2408 148.228 88.8396C148.194 89.437 148.657 89.9635 149.245 90.0164Z" fill="#70D9F0"/>
<path d="M149.05 93.5674C149.655 93.6131 150.173 93.1572 150.193 92.5514C150.226 91.9529 149.78 91.4356 149.175 91.3818C148.585 91.3457 148.05 91.8016 148.014 92.399C147.997 93.0059 148.46 93.5231 149.05 93.5674Z" fill="#70D9F0"/>
<path d="M148.871 97.0575C149.478 97.1018 149.977 96.6459 150.013 96.0401C150.049 95.4414 149.586 94.9146 148.979 94.8703C148.389 94.8356 147.872 95.2903 147.837 95.8877C147.801 96.4865 148.264 97.0119 148.871 97.0575Z" fill="#70D9F0"/>
<path d="M148.693 100.608C149.264 100.661 149.799 100.207 149.835 99.6093C149.852 99.0021 149.389 98.4753 148.799 98.4395C148.194 98.3952 147.676 98.8595 147.656 99.4484C147.623 100.054 148.086 100.573 148.693 100.608Z" fill="#70D9F0"/>
<path d="M148.48 104.401C149.068 104.436 149.586 103.981 149.622 103.384C149.655 102.785 149.192 102.26 148.585 102.214C147.978 102.179 147.479 102.634 147.443 103.241C147.407 103.838 147.873 104.355 148.48 104.401Z" fill="#70D9F0"/>
<path d="M136.557 91.2653C137.377 91.311 138.093 90.6859 138.128 89.8651C138.164 89.0349 137.538 88.3128 136.737 88.2588C135.897 88.205 135.201 88.8298 135.148 89.6503C135.093 90.4807 135.736 91.2028 136.557 91.2653Z" fill="#70D9F0"/>
<path d="M136.307 96.1553C137.111 96.2175 137.824 95.5938 137.879 94.7638C137.915 93.9249 137.272 93.2197 136.451 93.1572C135.631 93.1045 134.916 93.7282 134.88 94.55C134.844 95.3791 135.47 96.1023 136.307 96.1553Z" fill="#70D9F0"/>
<path d="M136.022 100.947C136.861 101.009 137.558 100.386 137.593 99.5636C137.663 98.7345 137.022 98.0113 136.202 97.9488C135.379 97.8961 134.666 98.5297 134.63 99.3501C134.577 100.171 135.201 100.894 136.022 100.947Z" fill="#70D9F0"/>
<path d="M135.772 105.837C136.593 105.909 137.308 105.274 137.344 104.463C137.377 103.625 136.737 102.91 135.933 102.847C135.093 102.794 134.397 103.428 134.361 104.249C134.309 105.079 134.952 105.792 135.772 105.837Z" fill="#70D9F0"/>
<path d="M135.487 111.057C136.307 111.101 137.022 110.468 137.059 109.647C137.111 108.827 136.487 108.113 135.648 108.049C134.827 107.996 134.112 108.62 134.078 109.451C134.023 110.271 134.666 110.985 135.487 111.057Z" fill="#70D9F0"/>
<path d="M123.422 91.5688C124.495 91.6312 125.385 90.8382 125.44 89.7847C125.493 88.7317 124.689 87.8127 123.638 87.7418C122.602 87.6793 121.693 88.4639 121.64 89.5174C121.585 90.5693 122.388 91.4883 123.422 91.5688Z" fill="#70D9F0"/>
<path d="M123.101 97.7978C124.138 97.8779 125.066 97.0744 125.099 96.0222C125.155 94.9602 124.351 94.0583 123.298 93.9692C122.264 93.907 121.354 94.7011 121.299 95.7546C121.246 96.8068 122.05 97.7258 123.101 97.7978Z" fill="#70D9F0"/>
<path d="M122.763 103.892C123.816 103.973 124.709 103.169 124.781 102.125C124.833 101.081 124.013 100.153 122.995 100.072C121.925 100.002 121.033 100.804 120.961 101.858C120.908 102.91 121.709 103.82 122.763 103.892Z" fill="#70D9F0"/>
<path d="M122.441 110.112C123.478 110.209 124.387 109.406 124.423 108.362C124.495 107.3 123.672 106.39 122.638 106.319C121.604 106.239 120.675 107.051 120.639 108.095C120.586 109.147 121.388 110.058 122.441 110.112Z" fill="#70D9F0"/>
<path d="M122.067 116.75C123.12 116.822 124.03 116.018 124.066 114.966C124.138 113.912 123.334 113.011 122.28 112.931C121.246 112.859 120.318 113.653 120.282 114.715C120.212 115.768 121.033 116.669 122.067 116.75Z" fill="#70D9F0"/>
<path d="M109.932 90.9007C111.217 90.9714 112.306 90.008 112.377 88.7317C112.431 87.4468 111.466 86.3406 110.199 86.2517C108.932 86.1618 107.826 87.1262 107.754 88.4101C107.683 89.6782 108.665 90.8021 109.932 90.9007Z" fill="#70D9F0"/>
<path d="M109.539 98.4574C110.788 98.556 111.894 97.5829 111.966 96.2982C112.037 95.0132 111.074 93.9168 109.789 93.8182C108.522 93.7378 107.434 94.7011 107.362 95.9776C107.291 97.2531 108.254 98.3688 109.539 98.4574Z" fill="#70D9F0"/>
<path d="M109.129 105.863C110.414 105.962 111.502 104.989 111.574 103.713C111.645 102.437 110.645 101.322 109.397 101.224C108.112 101.134 107.022 102.117 106.952 103.392C106.862 104.668 107.862 105.774 109.129 105.863Z" fill="#70D9F0"/>
<path d="M108.735 113.412C110.004 113.538 111.092 112.555 111.164 111.28C111.217 109.995 110.235 108.889 108.968 108.808C107.701 108.71 106.595 109.692 106.541 110.959C106.469 112.235 107.452 113.341 108.735 113.412Z" fill="#70D9F0"/>
<path d="M108.29 121.479C109.557 121.549 110.645 120.586 110.717 119.311C110.788 118.034 109.825 116.937 108.54 116.83C107.273 116.75 106.166 117.723 106.113 118.998C106.041 120.274 107.006 121.38 108.29 121.479Z" fill="#70D9F0"/>
<path d="M96.1374 89.2221C97.6359 89.312 98.9027 88.1699 98.9926 86.6619C99.0817 85.1623 97.9393 83.851 96.4408 83.7526C94.9415 83.6543 93.6565 84.7882 93.5677 86.296C93.4778 87.7861 94.6198 89.1069 96.1374 89.2221Z" fill="#70D9F0"/>
<path d="M95.6549 98.1097C97.1548 98.226 98.4395 97.0839 98.5104 95.5758C98.6 94.0678 97.4579 92.7733 95.9404 92.6486C94.459 92.5598 93.1575 93.6935 93.0855 95.192C93.0146 96.7084 94.1567 98.0113 95.6549 98.1097Z" fill="#70D9F0"/>
<path d="M95.1909 106.828C96.6905 106.943 97.9573 105.792 98.0461 104.293C98.136 102.803 96.976 101.482 95.4761 101.367C93.9958 101.268 92.6929 102.419 92.6212 103.918C92.5144 105.417 93.6742 106.729 95.1909 106.828Z" fill="#70D9F0"/>
<path d="M94.7277 115.714C96.1901 115.857 97.493 114.697 97.5653 113.207C97.6538 111.691 96.4756 110.387 95.013 110.289C93.4957 110.174 92.1928 111.334 92.1398 112.824C92.0499 114.322 93.192 115.625 94.7277 115.714Z" fill="#70D9F0"/>
<path d="M94.1914 125.191C95.691 125.289 96.976 124.147 97.0469 122.647C97.1368 121.139 95.9765 119.846 94.4772 119.73C92.9966 119.641 91.6937 120.773 91.6217 122.281C91.5508 123.781 92.6929 125.084 94.1914 125.191Z" fill="#70D9F0"/>
<path d="M82.0743 86.5193C83.8056 86.6176 85.2691 85.3147 85.3761 83.5834C85.4478 81.8523 84.1449 80.3443 82.4136 80.2378C80.7007 80.1128 79.2191 81.4242 79.1302 83.1457C79.0235 84.8768 80.3432 86.3848 82.0743 86.5193Z" fill="#70D9F0"/>
<path d="M81.5212 96.7359C83.2343 96.8693 84.7342 95.5579 84.8227 93.8364C84.9119 92.0871 83.5921 90.6057 81.8608 90.4628C80.1474 90.3558 78.666 91.6587 78.5592 93.39C78.4872 95.1211 79.8081 96.628 81.5212 96.7359Z" fill="#70D9F0"/>
<path d="M80.9863 106.756C82.6994 106.899 84.1631 105.578 84.2696 103.856C84.3767 102.133 83.0211 100.617 81.3424 100.492C79.6114 100.376 78.1311 101.697 78.024 103.418C77.9162 105.15 79.237 106.649 80.9863 106.756Z" fill="#70D9F0"/>
<path d="M80.4511 116.981C82.1463 117.142 83.6266 115.813 83.735 114.099C83.8056 112.36 82.4845 110.86 80.7714 110.745C79.0403 110.611 77.56 111.949 77.4877 113.653C77.381 115.384 78.7021 116.884 80.4511 116.981Z" fill="#70D9F0"/>
<path d="M79.8442 127.885C81.5573 127.992 83.0376 126.681 83.1275 124.959C83.2343 123.228 81.9135 121.738 80.1656 121.604C78.4524 121.497 76.9708 122.8 76.8988 124.539C76.792 126.261 78.1129 127.76 79.8442 127.885Z" fill="#70D9F0"/>
<path d="M67.8159 82.7627C69.7787 82.8779 71.4388 81.3975 71.5458 79.4516C71.6347 77.4888 70.1538 75.7939 68.2082 75.6594C66.2636 75.5266 64.6042 77.0066 64.4961 78.9525C64.3893 80.9069 65.871 82.6105 67.8159 82.7627Z" fill="#70D9F0"/>
<path d="M67.2087 94.327C69.1367 94.478 70.8319 92.9879 70.9208 91.0338C71.0286 89.0613 69.529 87.384 67.5662 87.2332C65.6382 87.1083 63.9609 88.5804 63.8544 90.5348C63.7477 92.4973 65.2459 94.1928 67.2087 94.327Z" fill="#70D9F0"/>
<path d="M66.5668 105.65C68.5477 105.811 70.1889 104.321 70.3147 102.366C70.4217 100.42 68.9039 98.7071 66.9952 98.5645C65.0324 98.4311 63.354 99.9212 63.2473 101.876C63.1405 103.83 64.6208 105.525 66.5668 105.65Z" fill="#70D9F0"/>
<path d="M65.9778 117.204C67.8876 117.393 69.5828 115.893 69.6719 113.948C69.7787 111.976 68.2799 110.289 66.3521 110.156C64.3893 110.013 62.7123 111.512 62.6404 113.448C62.5336 115.402 64.0153 117.089 65.9778 117.204Z" fill="#70D9F0"/>
<path d="M65.2817 129.528C67.2448 129.653 68.9218 128.171 69.0299 126.216C69.1367 124.272 67.6371 122.585 65.6743 122.424C63.7476 122.309 62.0511 123.79 61.9625 125.744C61.8555 127.688 63.354 129.385 65.2817 129.528Z" fill="#70D9F0"/>
<path d="M53.4325 77.9534C55.6099 78.0868 57.4659 76.4353 57.5906 74.2595C57.7153 72.0721 56.0383 70.1723 53.8967 70.0288C51.7011 69.8781 49.8272 71.5287 49.7207 73.7061C49.6139 75.8825 51.2548 77.7928 53.4325 77.9534Z" fill="#70D9F0"/>
<path d="M52.7544 90.8466C54.8962 91.0159 56.7868 89.3566 56.8949 87.1789C57.0016 84.9751 55.3591 83.1014 53.1649 82.9319C51.0054 82.7893 49.1494 84.4486 49.0068 86.6176C48.9 88.8034 50.577 90.7037 52.7544 90.8466Z" fill="#70D9F0"/>
<path d="M52.0576 103.481C54.2532 103.66 56.0728 101.991 56.2157 99.8147C56.3407 97.6454 54.6455 95.7367 52.5039 95.5663C50.3273 95.4234 48.4716 97.0923 48.3455 99.2781C48.2208 101.447 49.8633 103.339 52.0576 103.481Z" fill="#70D9F0"/>
<path d="M51.3977 116.366C53.5393 116.571 55.3953 114.894 55.52 112.734C55.6447 110.54 53.9495 108.648 51.79 108.505C49.6139 108.344 47.7579 110.021 47.6498 112.181C47.543 114.359 49.1853 116.241 51.3977 116.366Z" fill="#70D9F0"/>
<path d="M50.6131 130.116C52.7894 130.25 54.6455 128.599 54.7699 126.421C54.8962 124.245 53.2355 122.371 51.0413 122.193C48.9 122.058 47.0081 123.709 46.901 125.896C46.7753 128.072 48.4357 129.956 50.6131 130.116Z" fill="#70D9F0"/>
<path d="M38.995 72.0721C41.4042 72.215 43.4389 70.3951 43.5816 67.9862C43.7063 65.5768 41.8684 63.4893 39.4775 63.329C37.0849 63.1584 35.0157 64.9881 34.8907 67.3885C34.7663 69.7879 36.5859 71.8849 38.995 72.0721Z" fill="#70D9F0"/>
<path d="M38.2273 86.296C40.6196 86.4832 42.6889 84.6537 42.8138 82.2443C42.9388 79.8273 41.1183 77.7567 38.6916 77.5597C36.3185 77.4182 34.2479 79.2286 34.1229 81.6293C33.9803 84.0477 35.8363 86.1354 38.2273 86.296Z" fill="#70D9F0"/>
<path d="M37.4786 100.243C39.8877 100.43 41.9046 98.6003 42.0469 96.1911C42.1898 93.8002 40.3338 91.6948 37.9597 91.516C35.5688 91.3552 33.5161 93.193 33.3734 95.5937C33.2305 97.9931 35.0515 100.082 37.4786 100.243Z" fill="#70D9F0"/>
<path d="M36.7288 114.457C39.0839 114.68 41.1545 112.833 41.2974 110.45C41.4042 108.023 39.5481 105.944 37.1933 105.774C34.7828 105.596 32.6953 107.452 32.6065 109.835C32.4818 112.235 34.3017 114.322 36.7288 114.457Z" fill="#70D9F0"/>
<path d="M35.8719 129.634C38.2634 129.777 40.3338 127.957 40.4767 125.556C40.6196 123.156 38.7636 121.077 36.3531 120.89C33.9803 120.739 31.8926 122.559 31.7847 124.967C31.6418 127.368 33.4813 129.456 35.8719 129.634Z" fill="#70D9F0"/>
<path d="M24.5576 65.1041C27.1813 65.2652 29.4117 63.2747 29.5546 60.6425C29.6972 58.0103 27.6986 55.7177 25.0928 55.5474C22.4522 55.3687 20.2041 57.3594 20.0612 59.9832C19.9183 62.605 21.9173 64.9077 24.5576 65.1041Z" fill="#70D9F0"/>
<path d="M23.7013 80.666C26.3068 80.8711 28.5913 78.8626 28.7342 76.2402C28.8589 73.5803 26.8602 71.3236 24.2183 71.1087C21.6315 70.9484 19.3473 72.9384 19.2047 75.5611C19.0618 78.2028 21.0955 80.4956 23.7013 80.666Z" fill="#70D9F0"/>
<path d="M22.8806 95.9154C25.5212 96.1205 27.7344 94.1219 27.8773 91.4883C28.0561 88.8744 26.0034 86.5636 23.4155 86.3669C20.8099 86.1976 18.5434 88.1963 18.3829 90.8287C18.2402 93.4525 20.2389 95.7451 22.8806 95.9154Z" fill="#70D9F0"/>
<path d="M22.0599 111.467C24.6464 111.717 26.914 109.692 27.0569 107.077C27.1995 104.427 25.1648 102.152 22.5592 101.974C19.9352 101.777 17.6689 103.812 17.5622 106.408C17.4195 109.04 19.4182 111.316 22.0599 111.467Z" fill="#70D9F0"/>
<path d="M21.1313 128.064C23.7372 128.225 26.0213 126.226 26.1642 123.602C26.3068 120.978 24.2903 118.712 21.6665 118.499C19.0618 118.338 16.7776 120.327 16.6695 122.969C16.4921 125.593 18.5255 127.867 21.1313 128.064Z" fill="#70D9F0"/>
<path d="M10.1744 57.0557C13.0297 57.2247 15.4567 55.0565 15.5994 52.2013C15.7423 49.3463 13.5648 46.8568 10.7455 46.6693C7.89001 46.4729 5.42735 48.6422 5.28445 51.4876C5.14155 54.3349 7.31896 56.8324 10.1744 57.0557Z" fill="#70D9F0"/>
<path d="M9.24589 73.9463C12.0832 74.1693 14.564 71.9933 14.7069 69.1375C14.8498 66.2549 12.6722 63.8017 9.81694 63.5689C6.97965 63.3912 4.53465 65.5589 4.35698 68.4059C4.21436 71.2696 6.40861 73.7591 9.24589 73.9463Z" fill="#70D9F0"/>
<path d="M8.35455 90.4987C11.2098 90.7301 13.6368 88.5538 13.7795 85.6986C13.9571 82.8599 11.7447 80.3443 8.9256 80.1389C6.10488 79.952 3.64331 82.1283 3.48249 84.9836C3.32166 87.8306 5.49934 90.3115 8.35455 90.4987Z" fill="#70D9F0"/>
<path d="M7.46187 107.39C10.281 107.657 12.7442 105.463 12.8871 102.624C13.0297 99.7424 10.8341 97.2711 7.99678 97.0839C5.15949 96.8693 2.69656 99.073 2.57186 101.893C2.42897 104.757 4.60665 107.22 7.46187 107.39Z" fill="#70D9F0"/>
<path d="M6.4624 125.404C9.29969 125.583 11.7447 123.415 11.9055 120.56C12.0663 117.713 9.88893 115.251 7.03344 115.018C4.19643 114.84 1.71502 117.009 1.60853 119.873C1.42977 122.719 3.60718 125.191 6.4624 125.404Z" fill="#70D9F0"/>
<g clip-path="url(#clip0_6_11)">
<path d="M33.6004 18.795C33.5822 18.8173 33.5437 18.8417 33.5255 18.8641C32.8964 19.6349 32.2674 20.4058 31.6383 21.1766C31.5836 21.2436 31.5542 21.2569 31.4873 21.2023C31.2643 21.0203 31.0413 20.8383 30.8183 20.6563C30.7626 20.6108 30.7605 20.5906 30.8152 20.5235C31.1252 20.1437 31.4352 19.7639 31.734 19.3749C31.3074 19.5107 30.9011 19.6444 30.4542 19.7822C30.5017 19.3371 30.5491 18.8919 30.5966 18.4468L30.5855 18.4377C30.5125 18.5271 30.4396 18.6164 30.3667 18.7058C30.1296 18.9963 29.8926 19.2867 29.6556 19.5772C29.61 19.6331 29.5897 19.6351 29.534 19.5896C29.311 19.4076 29.088 19.2257 28.8649 19.0437C28.8092 18.9982 28.796 18.9688 28.8507 18.9018C29.4889 18.1198 30.127 17.3378 30.7743 16.5446C30.7925 16.5222 30.8017 16.5111 30.8199 16.4887C31.1098 16.7253 31.3997 16.9619 31.6896 17.1985C31.713 17.3292 31.6735 17.4459 31.6543 17.5605C31.6128 17.8616 31.5714 18.1628 31.53 18.464C31.8755 18.3365 32.2119 18.2202 32.5483 18.1039C32.607 18.0774 32.6749 18.0397 32.7489 18.0629C33.0094 18.3127 33.3105 18.5584 33.6004 18.795Z" fill="#FDE74C"/>
<path d="M27.8022 14.0633C27.784 14.0857 27.7455 14.1101 27.7272 14.1324C27.0982 14.9033 26.4691 15.6741 25.8492 16.4338C25.7854 16.512 25.7449 16.5161 25.6759 16.4412C25.4641 16.2684 25.2411 16.0864 25.0292 15.9135C24.9623 15.8589 24.9603 15.8386 25.015 15.7716C25.1973 15.5482 25.3796 15.3247 25.562 15.1013C25.6075 15.0454 25.6146 15.014 25.5477 14.9594C25.347 14.7956 25.1351 14.6227 24.9344 14.4589C24.8675 14.4043 24.8382 14.4176 24.7926 14.4734C24.6102 14.6969 24.4279 14.9203 24.2456 15.1437C24.1909 15.2108 24.1595 15.2037 24.1037 15.1582C23.8807 14.9763 23.6577 14.7943 23.4347 14.6123C23.3678 14.5577 23.3749 14.5262 23.4296 14.4592C24.0859 13.6549 24.7332 12.8617 25.3896 12.0573C25.6684 12.2848 25.936 12.5032 26.2148 12.7307C26.2097 12.7824 26.1824 12.8159 26.1459 12.8606C25.9909 13.0505 25.8268 13.2516 25.6718 13.4415C25.5989 13.5309 25.6009 13.5511 25.679 13.6148C25.8574 13.7604 26.0358 13.906 26.2031 14.0425C26.2923 14.1153 26.3014 14.1041 26.3743 14.0148C26.5293 13.8248 26.6934 13.6238 26.8484 13.4338C26.8757 13.4003 26.9122 13.3556 26.9618 13.3403C27.2447 13.6083 27.5234 13.8358 27.8022 14.0633Z" fill="#FDE74C"/>
<path d="M30.4448 16.2199C30.2696 16.4119 30.1166 16.6221 29.9505 16.8029C29.8867 16.8811 29.836 16.9887 29.7661 17.0061C29.6851 17.0143 29.612 16.8989 29.534 16.8352C29.389 16.717 29.2441 16.5987 29.0991 16.4804C29.0434 16.4349 29.014 16.4481 28.9775 16.4928C28.5673 16.9955 28.157 17.4982 27.7468 18.001C27.6921 18.068 27.6607 18.061 27.6049 18.0155C27.3819 17.8335 27.1589 17.6515 26.9359 17.4695C26.869 17.4149 26.8761 17.3835 26.9217 17.3276C27.3319 16.8249 27.7421 16.3222 28.1433 15.8306C28.198 15.7636 28.1848 15.7342 28.129 15.6887C27.9395 15.534 27.7388 15.3703 27.5492 15.2156C27.4935 15.1701 27.4803 15.1407 27.5259 15.0848C27.7355 14.8279 27.9361 14.5821 28.1458 14.3252C28.9172 14.9733 29.6754 15.592 30.4448 16.2199Z" fill="#FDE74C"/>
<path d="M34.8158 19.7868C34.3874 20.3119 33.9589 20.8369 33.5304 21.362C33.4757 21.429 33.4889 21.4584 33.5558 21.513C33.8903 21.786 34.236 22.068 34.5705 22.341C34.6262 22.3865 34.6394 22.4159 34.5938 22.4717C34.4115 22.6952 34.2201 22.9298 34.0377 23.1532C33.9921 23.2091 33.9719 23.2111 33.905 23.1566C33.2917 22.6561 32.6673 22.1465 32.054 21.6461C31.9982 21.6006 31.9851 21.5712 32.0398 21.5042C32.6688 20.7333 33.307 19.9513 33.936 19.1805C33.9634 19.147 33.9816 19.1246 34.0089 19.0911C34.2695 19.3409 34.5482 19.5684 34.8158 19.7868Z" fill="#FDE74C"/>
<path d="M27.7252 20.0306C29.8661 21.7776 31.9959 23.5156 34.1368 25.2627C34.2371 25.3446 34.226 25.3355 34.1439 25.436C33.7438 25.8353 33.3548 26.2437 32.9546 26.643C32.5089 27.0982 32.0632 27.5533 31.6174 28.0085C31.2375 28.4057 30.8465 28.7938 30.4666 29.191C30.0209 29.6462 29.5752 30.1014 29.1294 30.5565C28.7495 30.9537 28.3585 31.3419 27.9695 31.7503C27.5238 32.2054 27.0781 32.6606 26.6323 33.1157C26.2524 33.5129 25.8614 33.9011 25.4906 34.2871C25.0449 34.7423 24.5901 35.2086 24.1443 35.6638C23.7644 36.061 23.3734 36.4491 22.9845 36.8575C22.7342 37.1186 22.4729 37.3705 22.2226 37.6317C22.1771 37.6875 22.1436 37.6602 22.101 37.6441C21.577 37.4212 21.0622 37.1871 20.5381 36.9643C18.9418 36.2572 17.3364 35.5612 15.7512 34.8631C15.6772 34.84 15.6214 34.7945 15.5728 34.7175C14.2476 32.8359 12.9133 30.9654 11.5882 29.0837C11.5415 29.0271 11.5486 28.9956 11.5831 28.9306C12.1796 28.0402 12.7964 27.1478 13.393 26.2574C13.9552 25.432 14.5264 24.5953 15.0886 23.7699C15.7125 22.846 16.3364 21.9221 16.9694 20.987C17.5569 20.1078 18.1464 19.2488 18.7247 18.3808C19.2686 17.5777 19.8034 16.7857 20.3473 15.9826C20.6147 15.5867 20.8821 15.1907 21.1495 14.7948C21.1931 14.7186 21.2356 14.7348 21.2914 14.7803C23.4434 16.5364 25.5843 18.2835 27.7252 20.0306Z" fill="#E34D26"/>
<path d="M25.4988 22.7361C25.9181 22.2222 26.3284 21.7195 26.7477 21.2056C26.8024 21.1386 26.8318 21.1253 26.9099 21.189C28.6271 22.5903 30.3442 23.9916 32.0614 25.3929C32.1172 25.4384 32.1303 25.4678 32.0645 25.5257C31.869 25.7198 31.6643 25.925 31.48 26.1282C31.3594 26.2531 31.2389 26.3781 31.1183 26.5031C30.9228 26.6971 30.7364 26.88 30.552 27.0832C30.4315 27.2081 30.3109 27.3331 30.1995 27.4469C30.004 27.6409 29.8085 27.835 29.6241 28.0382C29.5036 28.1631 29.383 28.2881 29.2625 28.4131C29.0669 28.6071 28.8805 28.79 28.6962 28.9932C28.5847 29.107 28.4642 29.2319 28.3528 29.3457C28.1573 29.5398 27.9526 29.745 27.7683 29.9482C27.6477 30.0731 27.5272 30.1981 27.4066 30.323C27.2111 30.5171 27.0247 30.7 26.8403 30.9032C26.7289 31.0169 26.6083 31.1419 26.4969 31.2557C26.3014 31.4498 26.0968 31.655 25.9124 31.8582C25.7918 31.9831 25.6713 32.1081 25.5507 32.233C25.3552 32.4271 25.18 32.6191 24.9845 32.8132C24.873 32.9269 24.7525 33.0519 24.641 33.1657C24.4455 33.3598 24.2612 33.5629 24.0656 33.757C23.9542 33.8708 23.8337 33.9957 23.7222 34.1095C23.5267 34.3036 23.3332 34.5179 23.1377 34.712C22.9969 34.839 22.8875 34.9731 22.7578 35.1092C22.5714 35.2921 22.385 35.475 22.2098 35.667C22.1257 35.7472 22.0618 35.8255 21.9778 35.9058C21.914 35.9839 21.8552 36.0104 21.7478 35.9599C21.0403 35.6432 20.3237 35.3377 19.6051 35.0118C18.77 34.6466 17.9348 34.2815 17.0997 33.9163C16.9496 33.8498 16.8108 33.7923 16.6607 33.7257C16.5868 33.7026 16.5736 33.6731 16.6283 33.6061C17.0385 33.1035 17.4579 32.5896 17.8682 32.0868C17.8955 32.0533 17.934 32.0288 17.939 31.9772C17.9684 31.964 17.9887 31.9618 18.011 31.98C18.4925 32.1868 18.9851 32.4026 19.4665 32.6094C20.2904 32.9655 21.0942 33.3236 21.9182 33.6796C22.0368 33.7392 22.046 33.728 22.128 33.6274C22.5646 33.1835 23.0103 32.7283 23.447 32.2843C23.8268 31.8871 24.2179 31.499 24.5978 31.1017C25.0344 30.6578 25.471 30.2138 25.9076 29.7698C26.094 29.5869 26.2601 29.4061 26.4465 29.2232C26.5397 29.1317 26.5286 29.1226 26.4282 29.0408C25.2686 28.0944 24.0978 27.139 22.9381 26.1927C22.8935 26.1563 22.8287 26.1219 22.8114 26.052C22.8094 26.0318 22.8094 26.0318 22.8185 26.0206C22.8347 25.978 22.862 25.9445 22.8894 25.9109C23.2814 25.4306 23.6643 24.9614 24.0563 24.481C24.0928 24.4363 24.1181 24.3825 24.1789 24.3763C24.2508 24.3792 24.2863 24.4267 24.3309 24.4631C25.5463 25.455 26.7617 26.4468 27.9771 27.4386C28.0106 27.4659 28.0461 27.5135 28.0978 27.5184C28.1971 27.4878 28.2497 27.4005 28.3044 27.3335C28.6387 26.9921 28.9821 26.6396 29.3164 26.2982C29.3914 26.2291 29.4775 26.1691 29.5079 26.0636C29.4927 26.014 29.439 25.9887 29.4055 25.9614C28.1455 24.9332 26.8855 23.905 25.6143 22.8677C25.5697 22.8313 25.516 22.806 25.4988 22.7361Z" fill="#F06529"/>
<path d="M28.1018 27.559C28.0613 27.5631 28.0369 27.5247 28.0035 27.4974C26.7546 26.4783 25.5169 25.4682 24.2681 24.4491C24.2346 24.4218 24.2012 24.3945 24.1677 24.3672C24.0958 24.3643 24.0603 24.3168 24.0157 24.2804C23.3466 23.7344 22.6776 23.1885 22.0086 22.6425C21.8636 22.5242 21.8636 22.5242 21.7674 22.6876C21.5 23.0836 21.2326 23.4796 20.9652 23.8755C20.8761 24.0075 20.7647 24.1213 20.7181 24.2694C20.7222 24.31 20.7556 24.3373 20.7891 24.3645C21.4581 24.9105 22.116 25.4474 22.785 25.9933C22.7962 26.0024 22.8073 26.0115 22.7982 26.0227L22.7891 26.0339C22.784 26.0856 22.7567 26.1191 22.7293 26.1526C22.3373 26.633 21.9544 27.1022 21.5624 27.5826C21.535 27.6161 21.5168 27.6384 21.4783 27.6629L21.458 27.6649C21.4246 27.6376 21.3911 27.6103 21.3577 27.583C20.2092 26.6458 19.0495 25.6995 17.901 24.7622C17.823 24.6986 17.8301 24.6671 17.8736 24.591C18.221 24.0742 18.5796 23.5665 18.9361 23.0386C19.3636 22.401 19.791 21.7634 20.2184 21.1258C20.5658 20.609 20.9132 20.0922 21.2718 19.5846C21.3174 19.5287 21.3275 19.4253 21.4085 19.417C21.4785 19.3996 21.5292 19.4968 21.5849 19.5423C22.8561 20.5796 24.1272 21.6169 25.3984 22.6543C25.4318 22.6816 25.4653 22.7088 25.4987 22.7361C25.5322 22.7634 25.5656 22.7907 25.5991 22.818C26.8926 23.8736 28.186 24.9291 29.4795 25.9846C29.5129 26.0119 29.5443 26.0189 29.5595 26.0686C29.4876 26.0657 29.441 26.009 29.3964 25.9726C28.2256 25.0172 27.0436 24.0527 25.8728 23.0972C25.7836 23.0244 25.6833 22.9425 25.5941 22.8698C25.5383 22.8243 25.4866 22.8193 25.441 22.8752C25.0581 23.3444 24.6844 23.8024 24.3015 24.2716C24.2559 24.3275 24.2508 24.3792 24.3157 24.4135C24.3491 24.4408 24.3714 24.459 24.4049 24.4863C25.598 25.46 26.7911 26.4336 27.9842 27.4072C28.0197 27.4548 28.0846 27.4891 28.1018 27.559Z" fill="#EAEAEA"/>
<path d="M17.9907 31.9822C17.9796 31.9731 17.9594 31.9751 17.9482 31.966C17.6136 31.4883 17.2679 31.0013 16.9332 30.5236C16.4324 29.8171 15.9407 29.0994 15.4287 28.3838C15.3932 28.3362 15.3891 28.2957 15.4235 28.2307C15.8692 27.5708 16.3149 26.9109 16.7605 26.2509C16.8932 26.0428 17.037 25.8438 17.1697 25.6357C17.2133 25.5595 17.2426 25.5463 17.3207 25.61C17.8113 26.0104 18.3019 26.4107 18.7926 26.8111C18.8595 26.8657 18.8524 26.8971 18.8179 26.9621C18.5323 27.3804 18.2467 27.7987 17.9702 28.2058C17.9337 28.2505 17.9266 28.282 17.9621 28.3295C18.4143 28.9591 18.8665 29.5887 19.3187 30.2182C19.3298 30.2273 19.341 30.2364 19.3521 30.2455L19.3542 30.2658C19.3491 30.3175 19.3106 30.3419 19.2833 30.3755C18.873 30.8782 18.4719 31.3698 18.0617 31.8724C18.0383 31.9466 18.0201 31.9689 17.9907 31.9822Z" fill="#EAEAEA"/>
<path d="M19.3562 30.2861C20.0673 29.4147 20.7692 28.5545 21.4803 27.6831L21.4895 27.672C21.5411 27.6769 21.5746 27.7042 21.608 27.7315C22.2102 28.2229 22.8011 28.7052 23.4033 29.1965C23.5148 29.2875 23.5168 29.3078 23.4145 29.4104C23.062 29.7741 22.7094 30.1378 22.3569 30.5015C22.134 30.7291 21.9021 30.9678 21.6701 31.2066C21.5769 31.298 21.5566 31.3001 21.4289 31.2517C20.7752 30.9602 20.1417 30.6666 19.488 30.3751C19.4454 30.3589 19.3825 30.3449 19.3562 30.2861Z" fill="#F06529"/>
<path d="M19.3451 30.277C20.0414 30.5846 20.7488 30.9014 21.436 31.2202C21.5323 31.2616 21.582 31.2463 21.6569 31.1772C22.1027 30.722 22.5393 30.278 22.985 29.8229C23.1329 29.6644 23.292 29.515 23.449 29.3454C23.4763 29.3119 23.4855 29.3007 23.452 29.2734C23.4297 29.2552 23.4185 29.2461 23.3962 29.2279C22.783 28.7274 22.1808 28.2361 21.5676 27.7356C21.5341 27.7083 21.5118 27.6901 21.4784 27.6628C21.916 27.1266 22.3627 26.5792 22.8003 26.0429C22.8337 26.0702 22.856 26.0884 22.8895 26.1157C24.0826 27.0893 25.2868 28.0721 26.4799 29.0457C26.5468 29.1003 26.5803 29.1276 26.4962 29.2079C25.7891 29.915 25.1043 30.6404 24.3972 31.3475C23.683 32.0861 22.9486 32.8268 22.2344 33.5654C22.2162 33.5877 22.1777 33.6121 22.1594 33.6345C22.0389 33.7594 22.0389 33.7594 21.8777 33.6837C20.6037 33.128 19.3185 32.5631 18.0445 32.0073C18.0222 31.9891 18.0019 31.9913 17.9796 31.9731C17.9755 31.9325 18.0141 31.908 18.0414 31.8746C18.4699 31.3494 18.9075 30.8132 19.3451 30.277Z" fill="#FEFEFE"/>
<path d="M28.1018 27.559C26.8307 26.5217 25.5595 25.4843 24.2884 24.447C24.188 24.3651 24.188 24.3651 24.2701 24.2646C24.653 23.7954 25.045 23.315 25.4279 22.8458C25.4917 22.7676 25.5231 22.7746 25.59 22.8292C26.9169 23.912 28.2438 24.9948 29.5707 26.0777C29.4046 26.2585 29.2182 26.4414 29.0521 26.6222C28.7542 26.9189 28.4675 27.2246 28.1697 27.5213C28.1403 27.5346 28.1221 27.5569 28.1018 27.559Z" fill="#FEFEFE"/>
<path d="M22.8094 26.0318C22.7668 26.0157 22.7648 25.9954 22.7425 25.9772C22.0734 25.4312 21.4044 24.8853 20.7242 24.3302C20.7019 24.312 20.6796 24.2938 20.6776 24.2735C20.7353 24.1345 20.8356 24.0116 20.9156 23.8908C21.1992 23.4522 21.4848 23.0339 21.7796 22.6045C21.7887 22.5933 21.8069 22.5709 21.816 22.5598C21.8596 22.4836 21.891 22.4907 21.9579 22.5453C22.4597 22.9547 22.9614 23.3642 23.4632 23.7737C23.6974 23.9648 23.9427 24.1649 24.1768 24.356C23.7119 24.9258 23.2561 25.4844 22.8094 26.0318Z" fill="#E34D26"/>
<path d="M20.6684 24.2848C21.3821 24.8671 22.0957 25.4495 22.7982 26.0227C22.7667 26.0157 22.7444 25.9975 22.711 25.9702C22.0531 25.4333 21.3841 24.8874 20.7262 24.3505C20.7151 24.3414 20.6725 24.3253 20.6684 24.2848Z" fill="#F06529"/>
</g>
<defs>
<clipPath id="clip0_6_11">
<rect width="17" height="24" fill="white" transform="translate(24.1739 11) rotate(39.2161)"/>
</clipPath>
</defs>
</svg>
