<svg width="131" height="130" viewBox="0 0 131 130" fill="none" xmlns="http://www.w3.org/2000/svg">
<path d="M60.8166 40.6221L6.16934 40.6221C3.21543 40.6221 1 38.2375 1 35.4859L1 6.1362C1 3.20123 3.40005 1 6.16934 1L60.8166 0.999999C63.7705 0.999999 65.986 3.38467 65.986 6.1362L65.986 35.4859C65.986 38.2375 63.5859 40.6221 60.8166 40.6221Z" fill="url(#paint0_linear_203_2)" stroke="#283C8F" stroke-width="2" stroke-miterlimit="10"/>
<path d="M42.7239 14.2073L8.0155 14.2073L8.0155 35.3024L42.7239 35.3024L42.7239 14.2073Z" fill="url(#paint1_linear_203_2)" stroke="#283C8F" stroke-width="2" stroke-miterlimit="10"/>
<path d="M9.30786 4.85205L34.6007 4.85205" stroke="#283C8F" stroke-width="2" stroke-miterlimit="10"/>
<path d="M11.1541 8.52075L25.3698 8.52075" stroke="#283C8F" stroke-width="2" stroke-miterlimit="10"/>
<path d="M98.8166 84.6221L44.1693 84.6221C41.2154 84.6221 39 82.2375 39 79.4859L39 50.1362C39 47.2012 41.4001 45 44.1693 45L98.8166 45C101.771 45 103.986 47.3847 103.986 50.1362L103.986 79.4859C103.986 82.2375 101.586 84.6221 98.8166 84.6221Z" fill="url(#paint2_linear_203_2)" stroke="#283C8F" stroke-width="2" stroke-miterlimit="10"/>
<path d="M93.907 58.2073L59.1986 58.2073L59.1986 79.3024L93.907 79.3024L93.907 58.2073Z" fill="url(#paint3_linear_203_2)" stroke="#283C8F" stroke-width="2" stroke-miterlimit="10"/>
<path d="M47.3079 48.8521L72.6007 48.8521" stroke="#283C8F" stroke-width="2" stroke-miterlimit="10"/>
<path d="M49.1541 52.5208L63.3698 52.5208" stroke="#283C8F" stroke-width="2" stroke-miterlimit="10"/>
<path d="M124.817 128.622L70.1693 128.622C67.2154 128.622 65 126.237 65 123.486L65 94.1362C65 91.2012 67.4001 89 70.1693 89L124.817 89C127.771 89 129.986 91.3847 129.986 94.1362L129.986 123.486C129.986 126.237 127.586 128.622 124.817 128.622Z" fill="url(#paint4_linear_203_2)" stroke="#283C8F" stroke-width="2" stroke-miterlimit="10"/>
<path d="M106.724 102.207L72.0155 102.207L72.0155 123.302L106.724 123.302L106.724 102.207Z" fill="url(#paint5_linear_203_2)" stroke="#283C8F" stroke-width="2" stroke-miterlimit="10"/>
<path d="M95.2797 92.8521L120.572 92.8521" stroke="#283C8F" stroke-width="2" stroke-miterlimit="10"/>
<path d="M107.379 96.5208L121.595 96.5208" stroke="#283C8F" stroke-width="2" stroke-miterlimit="10"/>
<defs>
<linearGradient id="paint0_linear_203_2" x1="33.493" y1="1" x2="33.493" y2="40.6221" gradientUnits="userSpaceOnUse">
<stop stop-color="#C4C4C4"/>
<stop offset="0.463542" stop-color="white"/>
<stop offset="1" stop-color="#C4C4C4"/>
</linearGradient>
<linearGradient id="paint1_linear_203_2" x1="25.3697" y1="14.2073" x2="25.3697" y2="35.3024" gradientUnits="userSpaceOnUse">
<stop stop-color="#C4C4C4"/>
<stop offset="0.463542" stop-color="white"/>
<stop offset="1" stop-color="#C4C4C4"/>
</linearGradient>
<linearGradient id="paint2_linear_203_2" x1="71.493" y1="45" x2="71.493" y2="84.6221" gradientUnits="userSpaceOnUse">
<stop stop-color="#C4C4C4"/>
<stop offset="0.463542" stop-color="white"/>
<stop offset="1" stop-color="#C4C4C4"/>
</linearGradient>
<linearGradient id="paint3_linear_203_2" x1="76.5528" y1="58.2073" x2="76.5528" y2="79.3024" gradientUnits="userSpaceOnUse">
<stop stop-color="#C4C4C4"/>
<stop offset="0.463542" stop-color="white"/>
<stop offset="1" stop-color="#C4C4C4"/>
</linearGradient>
<linearGradient id="paint4_linear_203_2" x1="97.493" y1="89" x2="97.493" y2="128.622" gradientUnits="userSpaceOnUse">
<stop stop-color="#C4C4C4"/>
<stop offset="0.463542" stop-color="white"/>
<stop offset="1" stop-color="#C4C4C4"/>
</linearGradient>
<linearGradient id="paint5_linear_203_2" x1="89.3697" y1="102.207" x2="89.3697" y2="123.302" gradientUnits="userSpaceOnUse">
<stop stop-color="#C4C4C4"/>
<stop offset="0.463542" stop-color="white"/>
<stop offset="1" stop-color="#C4C4C4"/>
</linearGradient>
</defs>
</svg>
