<svg width="61" height="59" viewBox="0 0 61 59" fill="none" xmlns="http://www.w3.org/2000/svg">
<path d="M50.935 58.98C50.8345 58.98 50.734 58.98 50.6335 58.98C50.5665 58.913 50.466 58.98 50.3655 58.9465C50.2985 58.9465 50.198 58.913 50.0975 58.98C37.0325 58.98 24.001 58.98 10.936 58.98C10.869 58.913 10.7685 58.98 10.668 58.9465C10.5675 58.9465 10.467 58.913 10.3665 58.98C10.2325 58.98 10.132 58.98 9.99802 58.98C9.52902 58.913 9.02652 58.913 8.55752 58.779C6.84902 58.377 5.34152 57.64 4.00152 56.501C2.09202 54.8595 0.88602 52.816 0.38352 50.337C0.31652 49.9685 0.35002 49.6335 0.28302 49.265C0.28302 49.0975 0.28302 48.93 0.28302 48.7625C0.31652 48.6285 0.31652 48.528 0.28302 48.394C0.28302 35.798 0.28302 23.2355 0.28302 10.6395C0.31652 10.5055 0.31652 10.405 0.28302 10.271C0.28302 10.1035 0.28302 9.93597 0.28302 9.76847C0.35002 9.36647 0.31652 8.96447 0.41702 8.56247C0.78552 6.85397 1.52252 5.27947 2.62802 3.93947C4.37002 1.82897 6.58102 0.555967 9.29452 0.120467C9.73002 0.0534667 10.1655 0.0534668 10.6345 0.0534668C23.867 0.0534668 37.0995 0.0534668 50.332 0.0534668C52.811 0.0534668 54.9885 0.890966 56.8645 2.46547C58.8745 4.10697 60.1475 6.25097 60.6165 8.83047C60.717 9.36647 60.717 9.90247 60.717 10.4385C60.717 23.1015 60.717 35.7645 60.717 48.4275C60.717 50.9735 59.913 53.1845 58.305 55.161C56.697 57.104 54.6535 58.3435 52.1745 58.8795C51.8395 58.9465 51.3705 58.913 50.935 58.98Z" fill="#001E35"/>
<path d="M0.350006 10.3044C0.450507 10.4384 0.417006 10.5389 0.350006 10.6729C0.350006 10.5389 0.350006 10.4049 0.350006 10.3044Z" fill="#1F394E"/>
<path d="M0.350006 48.394C0.417006 48.528 0.450507 48.6285 0.350006 48.7625C0.350006 48.6285 0.350006 48.528 0.350006 48.394Z" fill="#1F394E"/>
<path d="M10.4335 58.9799C10.534 58.8794 10.6345 58.9464 10.735 58.9464C10.7685 58.9464 10.7685 58.9799 10.735 58.9799C10.6345 58.9799 10.534 58.9799 10.4335 58.9799Z" fill="#3B5264"/>
<path d="M10.735 58.9801V58.9466C10.8355 58.9466 10.9025 58.9131 11.003 58.9801C10.9025 58.9801 10.802 58.9801 10.735 58.9801Z" fill="#1A344A"/>
<path d="M50.131 58.9801C50.198 58.9131 50.2985 58.9466 50.3991 58.9466C50.3991 58.9466 50.4326 58.9801 50.3991 58.9801C50.3991 58.9801 50.3991 58.9801 50.3656 58.9801C50.2985 58.9801 50.2315 58.9801 50.131 58.9801Z" fill="#1A344A"/>
<path d="M50.399 58.9801V58.9466C50.466 58.9466 50.5665 58.9131 50.6335 58.9801C50.5665 58.9801 50.466 58.9801 50.399 58.9801Z" fill="#3B5264"/>
<path d="M13.951 28.428C13.951 24.1735 13.951 19.8855 13.951 15.631C13.951 15.2625 13.9845 15.229 14.3195 15.229C16.7985 15.1955 19.244 15.095 21.723 15.095C23.2975 15.095 24.9055 15.1955 26.4465 15.631C28.423 16.2005 30.098 17.172 31.3375 18.847C32.2755 20.0865 32.778 21.4935 32.912 23.0345C33.113 24.7765 32.9455 26.5185 32.2085 28.1265C31.2035 30.371 29.495 31.8115 27.217 32.6155C25.6425 33.185 24.0345 33.3525 22.3595 33.386C21.455 33.4195 20.5505 33.386 19.6795 33.3525C19.4785 33.3525 19.4115 33.4195 19.4115 33.6205C19.4115 36.1665 19.4115 38.7125 19.4115 41.2585C19.4115 41.694 19.3445 41.761 18.909 41.761C17.4015 41.761 15.894 41.761 14.42 41.761C14.018 41.761 13.951 41.694 13.951 41.3255C13.951 36.9705 13.951 32.716 13.951 28.428Z" fill="#31A7FE"/>
<path d="M35.659 38.4779C35.659 37.7744 35.659 37.0709 35.659 36.4009C35.659 35.9989 35.7595 35.9319 36.128 36.1329C38.205 37.2719 40.4495 37.7744 42.828 37.6404C43.297 37.6069 43.7325 37.5399 44.1345 37.3389C44.905 36.9704 45.0725 36.1329 44.503 35.4964C44.168 35.1279 43.766 34.9269 43.3305 34.7259C42.3925 34.2569 41.3875 33.9554 40.416 33.5199C39.3105 32.9839 38.2385 32.4144 37.334 31.5434C34.788 29.0979 35.3575 25.0779 37.7695 23.1014C38.9085 22.1634 40.1815 21.6609 41.622 21.4599C43.699 21.1919 45.7425 21.2924 47.786 21.7614C48.1545 21.8284 48.523 21.9624 48.858 22.0964C49.0925 22.1634 49.193 22.3309 49.2265 22.5654C49.2265 22.6659 49.2265 22.7329 49.2265 22.8334C49.2265 24.0729 49.2265 25.3124 49.2265 26.5519C49.2265 27.0209 48.992 27.1549 48.5565 26.9539C46.781 26.0829 44.8715 25.7814 42.9285 25.8149C42.5265 25.8149 42.158 25.9154 41.756 26.0159C40.885 26.2839 40.6505 27.2889 41.287 27.9589C41.622 28.3274 42.0575 28.5284 42.493 28.7629C43.498 29.2654 44.57 29.6004 45.6085 30.0694C46.4795 30.4714 47.3505 30.9069 48.121 31.5099C49.796 32.7829 50.466 34.5249 50.2315 36.5684C49.93 39.2149 48.322 40.8229 45.91 41.6939C44.6705 42.1294 43.3975 42.2634 42.091 42.2634C40.215 42.2634 38.406 42.0624 36.6305 41.4259C36.4295 41.3589 36.2285 41.2584 36.0275 41.1914C35.7595 41.0909 35.6255 40.8899 35.659 40.5884C35.659 39.8514 35.659 39.1814 35.659 38.4779Z" fill="#31A7FE"/>
<path d="M19.445 24.3076C19.445 22.9676 19.445 21.6276 19.445 20.3211C19.445 20.1536 19.4785 20.0531 19.6795 20.0531C21.187 20.0531 22.728 19.8856 24.202 20.2206C25.2405 20.4551 26.1785 20.8906 26.815 21.7951C27.418 22.6661 27.552 23.6711 27.485 24.7096C27.351 26.6526 26.011 27.7581 24.336 28.2271C23.465 28.4616 22.594 28.5956 21.6895 28.5621C21.0195 28.5621 20.3495 28.5956 19.6795 28.5286C19.512 28.5286 19.4785 28.4616 19.4785 28.2941C19.445 26.9541 19.445 25.6141 19.445 24.3076Z" fill="#001E36"/>
</svg>
