<svg width="103" height="87" viewBox="0 0 103 87" fill="none" xmlns="http://www.w3.org/2000/svg">
<path d="M0 43.5C0 29.4 0 15.3 0 1.2C0 0.199997 0.2 0 1.5 0C34.5 0 67.6 0 100.6 0C101.8 0 102.1 0.199997 102.1 1.2C102.1 29.4 102.1 57.5 102.1 85.7C102.1 86.7 101.9 86.9 100.6 86.9C67.6 86.9 34.5 86.9 1.5 86.9C0.3 86.9 0 86.7 0 85.7C0.1 71.7 0 57.6 0 43.5Z" fill="#FEFEFE"/>
<path d="M51.7 3.40005C65.5 3.40005 79.2 3.40005 93 3.40005C97.1 3.40005 99 5.40005 99 9.50005C99 25.3 99 41.1 99 56.9C99 61 97.1 62.9 93.1 62.9C87.1 63 87.2 63 87.1 57C87.1 55.3 87.5 54.6 89.2 54.9C91.1 55.2 91.8 54.6 91.7 52.5C91.6 39.1 91.6 25.7 91.7 12.4C91.7 10.5 91.1 10.2 89.4 10.2C63.8 10.3 38.1 10.3 12.5 10.2C10.7 10.2 10.2 10.6 10.2 12.4C10.3 25.9 10.3 39.3 10.2 52.8C10.2 54.5 10.6 55 12.3 55C19.9 54.9 27.4 55 35 54.9C36.6 54.9 37.4 55.1 37.2 57C36.9 58.9 38 61.5001 36.7 62.6001C35.6 63.6001 33.1 62.9 31.2 62.9C24.2 62.9 17.1 62.9 10.1 62.9C5.79999 62.9 3.89999 61 3.89999 56.7C3.89999 41 3.89999 25.2 3.89999 9.50005C3.89999 5.20005 5.79999 3.30005 10.2 3.30005C24.1 3.40005 37.9 3.40005 51.7 3.40005Z" fill="#283C8F"/>
<path d="M39.9 53.7C39.9 46 39.9 38.3 39.9 30.6C39.9 26.8 41.8 24.9 45.6 24.8C56.1 24.8 66.6 24.8 77.1 24.8C81 24.8 82.9 26.8 82.9 30.7C82.9 33.1 82.9 35.5 82.9 38C82.9 39.2 82.7 39.7 81.3 39.8C76.3 39.9 76.3 40 76.3 35.1C76.3 31.2 76.3 31.2 72.3 31.2C64.2 31.2 56.1 31.3 48 31.2C46.2 31.2 45.7 31.7 45.7 33.5C45.8 47 45.8 60.4 45.7 73.9C45.7 75.5 46 76.2001 47.8 76.1001C50.6 75.9001 53.4 76.1 56.2 76C57.7 75.9 57.9 76.4 57.9 77.8C57.9 82.9 58 82.9 52.9 82.9C50.3 82.9 47.8 82.9 45.2 82.9C41.6 82.8 39.6 80.8 39.6 77.2C39.9 69.3 39.9 61.5 39.9 53.7Z" fill="#283C8F"/>
<path d="M59.9 62.4999C59.9 57.4999 59.9 52.4999 59.9 47.4999C59.9 43.8999 61.9 41.8999 65.5 41.8999C70.3 41.8999 75 41.8999 79.8 41.8999C83.4 41.8999 85.3 43.8999 85.3 47.4999C85.3 57.5999 85.3 67.5999 85.3 77.6999C85.3 81.0999 83.2 83.2999 79.9 83.2999C75.1 83.2999 70.2 83.3999 65.4 83.2999C62 83.2999 60 81.0999 60 77.6999C59.9 72.5999 59.9 67.4999 59.9 62.4999Z" fill="#283C8F"/>
<path d="M22.3 82.7999C18.1 82.7999 13.8 82.7999 9.60001 82.7999C6.10001 82.7999 3.70001 80.4999 3.70001 77.2999C3.70001 74.0999 6.10001 71.8999 9.60001 71.8999C18.2 71.8999 26.8 71.8999 35.4 71.8999C36.9 71.8999 37.4 72.2999 37.3 73.7999C37.2 76.2999 37.2 78.7999 37.3 81.2999C37.4 82.5999 36.9 82.8999 35.6 82.8999C31.2 82.7999 26.7 82.7999 22.3 82.7999Z" fill="#283C8F"/>
<path d="M87.1 77.4001C87.1 71.8001 87.1 71.8001 92.7 71.9001C96.1 72.0001 98.5 74.1001 98.5 77.2001C98.6 80.5001 96.3 82.7001 92.8 82.9001C92.7 82.9001 92.6 82.9001 92.6 82.9001C87.1 82.9001 87.1 82.9001 87.1 77.4001Z" fill="#283C8F"/>
<path d="M82.5 61.7001C82.5 64.9001 82.5 68.2001 82.5 71.4001C82.5 72.7001 82.3 73.3001 80.8 73.3001C75.4 73.2001 70.1 73.2001 64.7 73.3001C63.4 73.3001 63 72.9001 63 71.6001C63.1 64.8001 63.1 58.0001 63 51.2001C63 49.9001 63.5 49.6001 64.7 49.6001C70.1 49.7001 75.4 49.7001 80.8 49.6001C82.1 49.6001 82.5 49.9001 82.5 51.2001C82.5 54.8001 82.5 58.2001 82.5 61.7001Z" fill="#FEFEFE"/>
<path d="M72.9 44.2C75 44.2 77.1 44.2 79.3 44.2C80.1 44.2 80.9 44.5 80.8 45.4C80.8 46.2 80.1 46.5 79.3 46.5C75.1 46.5 70.8 46.5 66.6 46.5C65.7 46.5 65 46.2 65.1 45.3C65.2 44.4 66 44.2 66.8 44.2C68.8 44.2 70.8 44.2 72.9 44.2Z" fill="#FDFEFE"/>
<path d="M73.2 76.3C74.9 76.5 75.8 77.5 75.7 79C75.6 80.7 74.5 81.6 72.8 81.5C71.2 81.4 70.3 80.4 70.4 78.8C70.5 77.1 71.6 76.4 73.2 76.3Z" fill="#FBFCFD"/>
<path d="M15.7 75.1001C17.7 75.1001 19.6 75.1001 21.6 75.1001C22.6 75.1001 23.5 75.4001 23.5 76.5001C23.5 77.5001 22.6 77.8001 21.7 77.8001C17.6 77.8001 13.6 77.8001 9.49999 77.8001C8.59999 77.8001 7.79999 77.5001 7.79999 76.4001C7.79999 75.4001 8.69999 75.1001 9.59999 75.1001C11.6 75.1001 13.7 75.1001 15.7 75.1001Z" fill="#FCFDFD"/>
</svg>
