<svg width="63" height="72" viewBox="0 0 63 72" fill="none" xmlns="http://www.w3.org/2000/svg">
<path d="M56.2755 14.6374C57.23 15.3844 58.309 15.9239 59.388 16.4219C60.218 17.1274 61.214 17.5424 62.1685 18.0819C62.542 18.2894 62.708 18.5384 62.708 18.9534C62.6665 19.4929 62.708 20.0324 62.708 20.5719C62.708 31.4864 62.708 42.4009 62.708 53.3154C62.708 53.5644 62.6665 53.8549 62.6665 54.1039C62.5835 54.1869 62.542 54.2699 62.459 54.3529C62.293 54.4774 62.1685 54.5604 62.0025 54.6434C57.977 57.0089 53.9515 59.2914 49.926 61.6154C45.278 64.3129 40.63 66.9689 36.0235 69.6664C34.82 70.3719 33.6165 71.0359 32.4545 71.7414C31.8735 72.0734 31.334 71.8659 30.7945 71.5754C26.686 69.2099 22.5775 66.8444 18.469 64.4789C12.9495 61.2834 7.42999 58.0879 1.86899 54.8924C1.70299 54.8094 1.53699 54.6849 1.37099 54.6019C1.16349 54.4774 0.95599 54.3944 0.83149 54.2284C0.70699 54.1039 0.66549 53.9794 0.62399 53.8134C0.54099 53.3984 0.54099 52.9419 0.54099 52.5269C0.54099 41.6954 0.54099 30.8224 0.54099 19.9909C0.54099 19.4099 0.49949 18.8704 0.78999 18.3309C0.87299 18.2479 0.91449 18.2064 0.99749 18.1234C4.56649 16.0484 8.13549 13.9734 11.746 11.9399C14.734 10.2384 17.6805 8.45386 20.7515 6.79386C22.0795 6.21286 23.283 5.38286 24.528 4.67736C26.7275 3.39086 28.9685 2.10436 31.168 0.817862C31.6245 0.527362 32.0395 0.568862 32.496 0.859362C35.3595 2.56086 38.223 4.22086 41.0865 5.88086C42.041 6.42036 42.954 7.04286 43.9915 7.45786C44.697 8.12186 45.61 8.45386 46.3985 8.91036C47.6435 9.65736 48.847 10.4459 50.175 11.0269C50.8805 11.6909 51.7935 12.0229 52.582 12.4794C53.744 13.2679 54.9475 14.0564 56.2755 14.6374Z" fill="#171A1B"/>
<path d="M11.9535 32.6898C11.1235 32.1088 10.418 31.4033 9.71249 30.6978C9.17299 30.1583 9.04849 29.4943 9.38049 28.7473C10.086 28.5813 10.833 28.7058 11.5385 28.6643C13.821 28.6228 16.062 28.7058 18.3445 28.6228C19.6725 29.4113 20.8345 30.4488 22.0795 31.3618C22.4945 31.6523 23.2 31.6938 23.0755 32.4823C22.7435 32.8143 22.287 32.7728 21.8305 32.7728C19.216 32.7728 16.6015 32.7728 13.987 32.7728C13.323 32.7728 12.6175 33.1048 11.9535 32.6898Z" fill="#288ED3"/>
<path d="M53.661 47.4639C53.661 48.7089 53.661 49.9539 53.661 51.1989C53.7025 51.9874 53.2045 52.2364 52.5405 52.2364C49.4695 52.2779 46.357 52.2779 43.286 52.2364C43.037 52.2364 42.788 52.1949 42.5805 52.0289C42.2485 50.8254 42.29 49.6219 42.539 48.4184C42.9125 48.0864 43.369 48.1694 43.784 48.1694C46.2325 48.1694 48.681 48.1694 51.171 48.1694C52.084 48.2109 52.997 48.2939 53.661 47.4639Z" fill="#2AA0F0"/>
<path d="M50.922 18.9119C52.167 19.2439 53.1215 19.9079 53.5365 21.1944C53.661 21.6924 53.7025 22.1904 53.495 22.6884C53.163 22.8959 52.831 22.8544 52.4575 22.8544C49.5525 22.8544 46.606 22.8544 43.701 22.8544C43.3275 22.8544 42.954 22.8959 42.622 22.6469C42.207 21.5679 42.373 20.4474 42.539 19.3684C42.871 19.0364 43.286 19.1194 43.701 19.0779C45.693 19.0779 47.685 19.0779 49.7185 19.0779C50.092 19.0779 50.5485 19.2024 50.922 18.9119Z" fill="#4FB1F2"/>
<path d="M26.4785 27.7514C27.3085 26.8799 28.18 26.0914 29.093 25.3444C32.33 25.5519 35.567 25.3859 38.804 25.4274C39.219 25.4274 39.5925 25.1784 40.0075 25.3029C40.4225 25.9669 40.464 26.6724 40.3395 27.3779C40.049 28.1664 39.4265 28.4569 38.638 28.4984C37.8495 28.5399 37.061 28.5399 36.2725 28.5399C33.575 28.5399 30.8775 28.5399 28.1385 28.5399C27.7235 28.5399 27.3085 28.5399 26.935 28.4154C26.6445 28.3324 26.3125 28.2079 26.4785 27.7514Z" fill="#2E80B8"/>
<path d="M11.9535 32.69C15.398 32.3165 18.8425 32.607 22.287 32.524C22.5775 32.524 22.9925 32.69 23.0755 32.2335C23.615 32.1505 23.864 32.5655 24.2375 32.8145C24.611 33.0635 24.943 33.354 25.3165 33.603C25.607 33.852 25.9805 34.0595 26.2295 34.3915C26.437 34.599 26.686 34.8065 26.52 35.1385C26.271 35.3875 25.939 35.3875 25.607 35.3875C22.1625 35.429 18.718 35.346 15.232 35.429C15.066 35.429 14.9 35.3875 14.7755 35.3045C13.7795 34.4745 12.825 33.6445 11.9535 32.69Z" fill="#248CD2"/>
<path d="M53.661 47.4639C53.495 48.2939 52.9555 48.4599 52.167 48.4599C48.9715 48.4184 45.776 48.4599 42.622 48.4599C42.2485 48.0449 42.456 47.5469 42.373 47.0489C42.373 46.9659 42.373 46.8414 42.373 46.7584C42.4145 46.3849 42.29 45.9284 42.622 45.5964C42.9955 45.3889 43.4105 45.4304 43.8255 45.4304C46.4815 45.4304 49.1375 45.4304 51.7935 45.4304C53.246 45.4304 53.246 45.4304 53.2875 44.0194C53.2875 43.8949 53.2875 43.7289 53.2875 43.6044C53.329 43.4384 53.329 43.3139 53.412 43.1894C53.4535 43.1064 53.5365 43.0649 53.661 43.1064C53.661 44.5589 53.661 46.0114 53.661 47.4639Z" fill="#2EA2F0"/>
<path d="M30.504 49.6218C29.4665 48.8333 28.5535 47.9203 27.599 47.0073C27.9725 46.6753 28.429 46.7583 28.844 46.7583C31.5415 46.7583 34.1975 46.7583 36.895 46.7583C37.974 46.7583 39.053 46.7998 40.0905 46.4678C40.5055 46.8828 40.298 47.3808 40.2565 47.8373C40.215 48.2523 40.2565 48.6258 40.0905 49.0408C39.8415 49.6218 39.3435 49.8708 38.721 49.8708C36.2725 49.9123 33.7825 49.9123 31.334 49.8708C31.085 49.8293 30.7945 49.7048 30.504 49.6218Z" fill="#1082CE"/>
<path d="M40.0075 25.3857C39.468 25.7177 38.8455 25.7177 38.223 25.7177C35.484 25.7177 32.745 25.7177 30.006 25.7177C29.674 25.7177 29.259 25.8007 29.093 25.3857C30.089 24.4312 31.085 23.4767 32.164 22.6052C34.7785 22.8127 37.3515 22.8127 39.966 22.6052C40.4225 22.8127 40.381 23.2277 40.4225 23.6427C40.3395 24.1822 40.5885 24.8877 40.0075 25.3857Z" fill="#3283B9"/>
<path d="M25.856 45.3476C25.109 44.7251 24.362 44.1026 23.698 43.3971C24.0715 43.0236 24.5695 43.1481 25.026 43.1481C28.595 43.1481 32.164 43.1481 35.733 43.1481C36.231 43.1481 36.6875 43.1481 37.1855 43.0651C37.4345 42.9406 37.642 42.9406 37.891 43.1066C38.638 43.5631 39.219 44.2271 39.8415 44.8081C39.966 44.8911 39.9245 45.0571 39.8415 45.1816C39.5095 45.5136 39.0945 45.5136 38.721 45.5136C34.6125 45.5551 30.5455 45.4721 26.437 45.5551C26.2295 45.4721 26.022 45.4721 25.856 45.3476Z" fill="#1584CF"/>
<path d="M42.622 52.029C45.859 52.029 49.096 52.029 52.2915 52.029C52.914 52.029 53.4535 51.946 53.661 51.199C53.744 53.0665 53.163 53.8965 51.254 54.602C48.5565 54.8095 45.9005 54.685 43.203 54.685C42.9955 54.685 42.788 54.6435 42.5805 54.4775C42.29 53.689 42.2485 52.859 42.622 52.029Z" fill="#269EEF"/>
<path d="M53.5365 43.1064C53.5365 43.2309 53.5365 43.3139 53.5365 43.4384C53.246 43.7289 52.831 43.6874 52.4575 43.6874C49.511 43.6874 46.5645 43.6874 43.618 43.6874C43.286 43.6874 42.9125 43.6874 42.5805 43.4799C42.207 42.6914 42.29 41.9029 42.539 41.1144C42.9125 40.8239 43.369 40.8654 43.784 40.8654C46.523 40.8654 49.262 40.8654 52.001 40.8654C53.246 40.8654 53.246 40.8239 53.246 39.5789C53.246 39.2469 53.246 38.8734 53.246 38.5414C53.246 38.2924 53.246 38.0434 53.3705 37.8359C53.412 37.7529 53.495 37.7114 53.6195 37.7529C53.6195 38.9564 53.6195 40.1599 53.6195 41.3219C53.495 41.9029 53.744 42.5254 53.5365 43.1064Z" fill="#34A5F0"/>
<path d="M14.7755 35.2629C15.1905 35.1384 15.6055 35.0969 16.062 35.0969C19.2575 35.0969 22.4945 35.0969 25.69 35.0969C25.9805 35.0969 26.3955 35.2629 26.4785 34.8064C26.7275 34.6819 26.935 34.8064 27.1425 34.9724C27.7235 35.4289 28.3045 35.9684 28.8855 36.4249C29.093 36.5909 29.2175 36.7984 29.01 37.0474C28.8025 37.2964 28.4705 37.3379 28.18 37.3379C24.4035 37.3379 20.627 37.4209 16.8505 37.2964C16.643 37.2549 16.4355 37.1719 16.3525 36.9229C15.979 36.2589 15.232 35.8854 14.7755 35.2629Z" fill="#218BD2"/>
<path d="M25.856 45.3474C26.271 45.2229 26.686 45.1814 27.1425 45.1814C31.085 45.1814 34.986 45.1814 38.9285 45.1814C39.2605 45.1814 39.634 45.2644 39.883 44.8909C40.049 44.8079 40.132 44.9324 40.215 45.0154C40.4225 45.5134 40.547 46.0114 40.1735 46.4679C39.5925 46.9659 38.9285 46.9659 38.223 46.9659C34.6955 46.9659 31.168 46.9659 27.6405 46.9659C27.018 46.4679 26.3955 45.9699 25.856 45.3474Z" fill="#1283CF"/>
<path d="M37.393 43.1063C37.1855 43.5628 36.729 43.4383 36.397 43.4383C32.164 43.4383 27.931 43.4383 23.698 43.4383C23.283 43.0648 22.8265 42.6913 22.4115 42.2763C22.204 42.1103 21.623 42.1518 22.121 41.6538C22.4945 41.5293 22.9095 41.5293 23.3245 41.5293C26.2295 41.5293 29.1345 41.5293 32.0395 41.5293C33.0355 41.5293 34.0315 41.5293 35.0275 41.3633C35.1935 41.3218 35.4425 41.2803 35.567 41.3633C36.1895 41.9443 36.978 42.3178 37.393 43.1063Z" fill="#1886D0"/>
<path d="M30.504 49.6218C33.2015 49.6218 35.8575 49.5803 38.555 49.6218C39.1775 49.6218 39.6755 49.4973 40.0075 48.9578C40.5885 49.3313 40.3395 49.9538 40.4225 50.4518C40.4225 50.8668 40.464 51.2403 40.2565 51.6553C39.883 52.2778 39.302 52.4853 38.638 52.4853C37.227 52.4853 35.7745 52.4853 34.3635 52.4853C33.99 52.4853 33.658 52.4438 33.3675 52.2363C32.3715 51.3648 31.417 50.5348 30.504 49.6218Z" fill="#0B7FCD"/>
<path d="M50.922 18.9117C50.922 19.5342 50.4655 19.3682 50.1335 19.3682C47.6435 19.3682 45.112 19.3682 42.622 19.3682C42.207 18.7872 42.456 18.1232 42.4145 17.5007C42.373 16.8367 42.373 16.2142 41.8335 15.7162C41.626 15.5087 41.3355 15.4257 41.128 15.2182C41.0865 15.0937 41.045 14.9692 41.1695 14.8862C41.875 14.7202 42.4975 14.8032 43.12 15.1352C44.9045 16.0482 46.8135 16.7952 48.5565 17.8327C49.3035 18.2477 50.1335 18.5382 50.922 18.9117Z" fill="#53B2F2"/>
<path d="M42.622 54.4773C45.1535 54.4773 47.685 54.4773 50.2165 54.4773C50.5485 54.4773 50.922 54.4358 51.254 54.6433C48.681 55.9713 46.025 57.2163 43.4105 58.4198C42.8295 58.6688 42.3315 59.0422 41.6675 58.9177C41.5015 58.7517 41.5845 58.5442 41.6675 58.3782C41.709 58.2952 41.7505 58.2537 41.792 58.1708C42.124 57.9218 42.29 57.5898 42.373 57.1748C42.456 56.5938 42.373 55.9713 42.4145 55.3903C42.4145 55.0583 42.3315 54.7263 42.622 54.4773Z" fill="#239DEF"/>
<path d="M18.3445 28.6227C18.303 28.9547 18.0955 28.9547 17.888 28.9547C15.1905 28.9547 12.5345 28.9547 9.83698 28.9547C9.67098 28.9547 9.50498 28.9132 9.42198 28.7887C9.42198 28.4152 9.71248 28.2077 9.91998 28.0002C10.667 27.2947 11.414 26.5892 12.2025 25.9252C13.0325 25.1782 13.904 25.1367 14.7755 25.8007C15.979 26.7137 17.141 27.7097 18.3445 28.6227Z" fill="#2E91D4"/>
<path d="M26.4785 27.7513C26.603 28.2908 27.0595 28.2908 27.433 28.2908C31.1265 28.2908 34.8615 28.2908 38.555 28.2908C39.2605 28.2908 39.883 28.0418 40.1735 27.3363C40.2565 27.2948 40.3395 27.2948 40.381 27.3363C40.547 27.6268 40.63 27.9588 40.547 28.3323C40.0075 29.0793 39.3435 29.6603 38.389 29.8263C34.156 29.9093 29.8815 29.8678 25.6485 29.8678C25.275 29.8678 24.694 29.9923 24.8185 29.2453C25.358 28.7058 25.856 28.1663 26.4785 27.7513Z" fill="#2B7EB7"/>
<path d="M9.38049 43.563C9.67099 42.733 10.418 42.3595 10.999 41.7785C12.8665 41.9445 14.7755 41.82 16.643 41.8615C17.058 41.8615 17.4315 41.82 17.805 41.6125C17.888 41.571 17.971 41.5295 18.054 41.488C18.386 41.4465 18.552 41.6955 18.718 41.903C19.05 42.318 19.465 42.6915 19.88 43.0235C20.0875 43.1895 20.3365 43.3555 20.129 43.6875C19.9215 43.8535 19.6725 44.0195 19.465 44.1855C19.2575 44.31 19.0085 44.31 18.7595 44.31C16.0205 44.227 13.24 44.31 10.501 44.2685C10.252 44.2685 10.003 44.2685 9.79549 44.227C9.38049 44.1855 9.21449 43.978 9.38049 43.563Z" fill="#1772B0"/>
<path d="M40.0075 22.6054C39.5925 22.8544 39.136 22.9374 38.638 22.9374C36.7705 22.9374 34.903 22.9374 33.077 22.9374C32.745 22.9374 32.3715 22.9789 32.2055 22.5639C32.911 21.8169 33.6995 21.1114 34.488 20.4889C35.65 20.6549 36.8535 20.6134 38.057 20.6134C38.7625 20.6134 39.468 20.5719 39.966 19.9909C40.0905 19.8664 40.215 19.7834 40.4225 19.8664C40.63 20.8209 40.298 21.6924 40.0075 22.6054Z" fill="#3685BA"/>
<path d="M9.38049 43.5627C9.33899 44.1852 9.79549 44.0607 10.169 44.0607C12.7005 44.0607 15.232 44.0607 17.805 44.0607C18.386 44.0607 18.9255 44.1437 19.5065 44.2267C18.884 44.8908 18.0125 45.2642 17.3485 45.8453C16.56 46.0528 15.73 45.9283 14.9415 45.9283C13.6135 45.9698 12.244 45.8868 10.916 45.9698C10.667 45.9698 10.418 45.9698 10.2105 45.8453C9.21449 45.0982 9.04849 44.6002 9.38049 43.5627Z" fill="#1471AF"/>
<path d="M18.0125 41.6125C17.888 42.1105 17.5145 42.1105 17.141 42.1105C15.398 42.1105 13.655 42.1105 11.912 42.1105C11.58 42.1105 11.2895 42.069 11.0405 41.7785C12.244 40.6995 13.4475 39.6205 14.6095 38.5415C15.315 38.583 15.6055 39.2055 16.062 39.579C16.809 40.16 17.5975 40.741 18.0125 41.6125Z" fill="#1974B1"/>
<path d="M24.86 29.2039C24.943 29.7434 25.3995 29.5774 25.69 29.5774C30.0475 29.5774 34.405 29.5774 38.7625 29.6189C38.472 30.4074 37.808 30.7394 37.0195 30.9054C34.3635 30.7394 31.666 30.8639 29.01 30.8224C27.599 30.8224 26.188 30.9054 24.8185 30.4489C24.7355 30.4489 24.611 30.4074 24.528 30.3659C24.279 30.1584 24.1545 29.9094 24.362 29.6189C24.445 29.3699 24.694 29.3284 24.86 29.2039Z" fill="#2A7EB7"/>
<path d="M33.3675 52.1948C34.986 52.1948 36.6045 52.1533 38.223 52.1948C38.97 52.2363 39.6755 52.1118 40.1735 51.5308C40.5885 52.3193 40.5055 53.1078 40.1735 53.8963C39.7585 54.3943 39.219 54.5603 38.5965 54.5188C37.6835 54.4773 36.7705 54.6433 35.899 54.4773C34.986 53.7718 34.156 52.9833 33.3675 52.1948Z" fill="#087ECD"/>
<path d="M10.169 45.8453C11.58 45.4718 12.991 45.7208 14.4435 45.6793C15.398 45.6793 16.394 45.5133 17.307 45.8038C16.477 46.5923 15.481 47.2563 14.568 47.9203C13.8625 48.4183 12.991 48.3768 12.3685 47.8373C11.6215 47.2563 10.833 46.6338 10.169 45.8453Z" fill="#126FAE"/>
<path d="M40.3395 19.8663C39.7585 20.7793 38.887 20.9038 37.891 20.8623C37.0195 20.8208 36.1895 20.8623 35.318 20.8208C34.986 20.8208 34.6955 20.7378 34.4465 20.4888C34.986 19.7833 35.7745 19.3268 36.397 18.7043C37.559 18.9533 38.721 18.7873 39.883 18.7873C40.215 18.9118 40.4225 19.1608 40.464 19.4928C40.5055 19.6173 40.464 19.7418 40.3395 19.8663Z" fill="#3886BB"/>
<path d="M35.899 54.4772C36.7705 54.1452 37.6835 54.3112 38.555 54.3112C39.136 54.3112 39.634 54.2282 40.0075 53.8132C40.4225 54.1037 40.2565 54.5187 40.2565 54.8922C40.2565 55.5562 40.1735 56.1787 39.966 56.8012C39.883 57.1332 39.8415 57.6727 39.219 57.5067C38.057 56.5522 36.9365 55.5562 35.899 54.4772Z" fill="#057CCC"/>
<path d="M40.0075 18.8704C38.9285 19.1609 37.8495 18.9949 36.7705 19.0364C36.5215 19.0364 36.4385 18.9119 36.397 18.7044C37.476 17.6254 38.5965 16.5879 39.8 15.6334C39.883 15.6334 39.966 15.5919 40.0075 15.6749C40.5055 16.2559 40.5055 18.2064 40.0075 18.8704Z" fill="#3B88BB"/>
<path d="M40.0075 18.8705C40.1735 17.75 40.298 16.671 39.8 15.592C40.049 15.3015 40.2565 15.0525 40.6715 14.9695C40.8375 15.0525 41.045 14.928 41.1695 15.1355C41.4185 15.177 41.6675 15.26 41.8335 15.4675C42.041 16.2975 41.5015 17.0445 41.46 17.8745C41.1695 18.248 41.2525 18.7875 41.0865 19.2025C40.9205 19.493 40.6715 19.659 40.3395 19.5345C40.381 19.244 40.0905 19.078 40.0075 18.8705Z" fill="#3C86B8"/>
<path d="M23.5735 30.4074C23.698 30.1999 23.864 30.0339 24.0715 29.9509C24.2375 30.0339 24.4035 30.1584 24.5695 30.2829C25.358 30.6564 26.1465 31.0714 26.8105 31.6524C27.35 32.2334 28.18 32.4824 28.7195 33.1049C28.8855 33.2709 29.259 33.3954 29.0515 33.7689C28.4705 33.9349 27.931 33.5199 27.35 33.5199C26.0635 32.8144 24.943 31.8184 23.7395 31.0299C23.532 30.8639 23.366 30.6564 23.5735 30.4074Z" fill="#277AB1"/>
<path d="M18.0125 41.6123C16.892 40.5748 15.73 39.5373 14.6095 38.5413C14.734 38.3338 14.9 38.1678 15.1075 38.0433C15.481 37.7943 15.7715 38.0018 16.062 38.2508C16.892 38.9563 17.722 39.7033 18.3445 40.5748C18.469 40.9483 18.469 41.3218 18.1785 41.6123C18.137 41.6123 18.0955 41.6123 18.0125 41.6123Z" fill="#1B72AD"/>
<path d="M39.219 57.5483C40.0905 57.0503 39.7585 56.1373 40.0075 55.4318C40.049 55.2243 40.0075 55.0168 40.0075 54.8093C40.298 54.4773 40.5055 53.9793 41.0865 54.3943C41.2525 54.7263 41.211 55.0998 41.211 55.4733C41.045 56.4693 41.0035 57.4653 40.8375 58.4613C40.796 58.5443 40.7545 58.6273 40.6715 58.6688C40.049 58.4613 39.6755 57.9633 39.219 57.5483Z" fill="#0478C6"/>
<path d="M23.5735 30.4075C23.5735 30.9055 24.0715 31.0715 24.362 31.2375C25.441 31.8185 26.3125 32.69 27.3085 33.354C27.433 33.437 27.599 33.52 27.433 33.7275C26.7275 33.8105 26.188 33.2295 25.4825 33.188C24.611 32.7315 23.9055 32.026 23.0755 31.4865C22.9095 31.4035 22.785 31.2375 22.868 31.03C23.117 30.8225 23.3245 30.615 23.5735 30.4075Z" fill="#2777AD"/>
<path d="M22.868 31.0298C23.7395 31.6938 24.611 32.3578 25.4825 33.0218C25.8975 33.3123 26.5615 33.3123 26.6445 34.0178C26.0635 34.2668 25.6485 33.7273 25.1505 33.6858C24.445 33.1878 23.7395 32.7313 23.034 32.2333C22.702 31.9428 22.2455 31.8183 22.038 31.4033C22.453 31.4448 22.619 31.0713 22.868 31.0298Z" fill="#2673A7"/>
<path d="M21.955 41.7783C22.121 41.9443 22.287 42.1103 22.453 42.2763C21.9965 42.1933 21.8305 42.6498 21.457 42.7328C20.5855 41.9443 19.714 41.1558 19.0085 40.2013C18.884 39.7863 18.5105 39.4958 18.635 39.0393C19.0915 38.8318 19.299 39.2053 19.5895 39.4128C20.0045 39.7863 20.3365 40.2013 20.8345 40.5333C21.208 40.9483 21.706 41.2388 21.955 41.7783Z" fill="#1A6CA3"/>
<path d="M19.1745 40.1599C19.7555 40.7824 20.378 41.4049 20.959 42.0274C21.1665 42.2349 21.457 42.4009 21.457 42.7329C21.2495 42.8989 21.042 43.0649 20.793 43.2309C20.0045 42.4424 19.0915 41.7784 18.5105 40.7824C18.386 40.4919 18.2615 40.1599 18.469 39.8279C18.8425 39.6619 18.9255 40.0769 19.1745 40.1599Z" fill="#196EA7"/>
<path d="M18.5105 39.8279C18.469 40.1599 18.635 40.4919 18.6765 40.7824C18.469 40.8654 18.3445 40.6994 18.1785 40.6164C17.5145 39.7864 16.7675 39.0809 15.979 38.3754C15.7715 38.1679 15.481 37.9189 15.1075 38.0019C15.3565 37.7944 15.6055 37.5454 15.8545 37.3379C16.062 37.2549 16.228 37.3794 16.3525 37.5039C17.058 38.1679 17.722 38.8734 18.4275 39.4959C18.552 39.6204 18.552 39.7449 18.5105 39.8279Z" fill="#1D71A9"/>
<path d="M18.1785 40.6577C18.3445 40.6992 18.5105 40.7822 18.6765 40.8237C19.216 41.4047 19.7555 41.9857 20.295 42.5252C20.5025 42.7327 20.7515 42.8987 20.7515 43.2307C20.544 43.3967 20.3365 43.5627 20.0875 43.7287C20.0875 43.2722 19.5895 43.2307 19.382 42.9402C19.0085 42.4837 18.552 42.0687 18.137 41.6122C18.0955 41.2802 18.3445 40.9897 18.1785 40.6577Z" fill="#1870AC"/>
<path d="M18.5105 39.8279C17.639 38.9979 16.7675 38.2094 15.896 37.3794C16.062 37.2134 16.228 37.0474 16.394 36.9229C16.5185 36.9644 16.6015 37.0474 16.726 37.0889C17.5975 37.4209 18.137 38.1679 18.718 38.8319C18.7595 38.9149 18.718 38.9979 18.6765 39.0394C18.8425 39.4129 19.0085 39.7864 19.1745 40.2014C18.884 40.2014 18.7595 39.9109 18.5105 39.8279Z" fill="#1D6EA4"/>
<path d="M53.661 25.8422C53.661 28.0002 53.661 30.1582 53.661 32.3577C53.578 32.3992 53.495 32.3577 53.412 32.2747C53.2875 32.0257 53.2875 31.7352 53.2875 31.4447C53.246 30.7807 53.246 30.1167 53.2875 29.4112C53.2875 28.4567 53.2875 27.4607 53.2875 26.5062C53.2875 26.2987 53.329 26.1327 53.412 25.9252C53.495 25.8422 53.578 25.8007 53.661 25.8422Z" fill="#3FA9F1"/>
<path d="M53.5365 32.3579C53.578 32.3579 53.6195 32.3579 53.661 32.3579C53.661 34.1424 53.661 35.9269 53.661 37.7114C53.6195 37.7114 53.578 37.7114 53.5365 37.7114C53.2045 37.3379 53.329 36.8814 53.2875 36.4249C53.2875 35.9684 53.2875 35.5534 53.2875 35.0969C53.2875 34.3914 53.246 33.7274 53.2875 33.0219C53.329 32.8144 53.329 32.5654 53.5365 32.3579Z" fill="#38A6F1"/>
<path d="M53.661 25.8423C53.6195 25.8423 53.578 25.8423 53.5365 25.8423C53.2045 25.4688 53.329 24.9708 53.2875 24.5143C53.329 23.8503 53.1215 23.1863 53.5365 22.5638C53.5365 22.1073 53.5365 21.6093 53.5365 21.1528C53.8685 21.6923 53.661 22.2733 53.7025 22.8543C53.7025 23.8918 53.661 24.8878 53.661 25.8423Z" fill="#46ADF2"/>
<path d="M40.6715 58.6689C40.6715 58.6274 40.6715 58.5859 40.6715 58.5444C41.0035 58.2954 41.377 58.1709 41.792 58.3784C41.7505 58.5444 41.6675 58.7104 41.626 58.8764C41.294 58.9179 40.962 58.8764 40.6715 58.6689Z" fill="#1F99EC"/>
<path d="M53.5365 43.1063C53.6195 42.5253 53.3705 41.9028 53.661 41.3218C53.661 41.9028 53.661 42.5253 53.661 43.1063C53.6195 43.1063 53.578 43.1063 53.5365 43.1063Z" fill="#31A4F0"/>
<path d="M24.528 30.2414C24.279 30.2414 24.0715 30.2414 24.03 29.9094C24.1545 29.7849 24.2375 29.7019 24.362 29.5774C24.362 29.8264 24.445 30.0339 24.528 30.2414Z" fill="#287DB6"/>
<path d="M41.1695 15.1355C41.0035 15.1355 40.796 15.177 40.6715 14.9695C40.8375 14.8865 40.962 14.8035 41.1695 14.845C41.1695 14.928 41.1695 15.011 41.1695 15.1355Z" fill="#4EA3DC"/>
<path d="M42.622 54.4773C42.4975 55.4318 42.8295 56.4693 42.456 57.4238C42.041 56.9673 42.2485 56.3863 42.207 55.8883C42.1655 55.2658 42.2485 54.6433 42.207 54.0208C42.1655 52.6098 42.2485 51.1988 42.207 49.8293C42.1655 49.1653 42.1655 48.5013 42.207 47.8373C42.207 47.5468 42.1655 47.1733 42.5805 47.0488C42.5805 47.5468 42.5805 48.0033 42.5805 48.5013C42.5805 49.7048 42.5805 50.8668 42.5805 52.0703C42.622 52.8588 42.622 53.6473 42.622 54.4773Z" fill="#157FC7"/>
<path d="M53.5365 22.6052C53.5365 23.2692 53.5365 23.8917 53.5365 24.5557C53.246 24.8462 52.831 24.8047 52.4575 24.8047C49.511 24.8047 46.5645 24.8047 43.618 24.8047C43.286 24.8047 42.9125 24.8047 42.5805 24.5972C42.2485 23.9332 42.207 23.2692 42.5805 22.5637C46.274 22.6052 49.8845 22.6052 53.5365 22.6052Z" fill="#4CAFF2"/>
<path d="M42.622 22.6053C42.622 23.2693 42.622 23.8918 42.622 24.5558C42.871 24.9293 42.9125 25.3028 42.6635 25.6763C42.539 25.7178 42.456 25.7178 42.373 25.6348C42.041 24.8463 42.2485 23.9748 42.207 23.1863C42.207 22.8543 42.207 22.5223 42.207 22.2318C42.207 21.9413 42.207 21.6923 42.207 21.4018C42.207 20.9453 42.207 20.4473 42.207 19.9908C42.207 19.6588 42.124 19.3683 41.792 19.2023C41.543 18.8288 41.211 18.4553 41.294 17.9573C41.211 17.0858 41.5845 16.2973 41.792 15.5088C42.4975 15.7578 42.539 16.4218 42.5805 17.0443C42.622 17.8328 42.622 18.6213 42.622 19.4513C42.622 20.4473 42.622 21.5263 42.622 22.6053Z" fill="#3C82B1"/>
<path d="M40.3395 27.3363C40.298 27.3363 40.215 27.3363 40.1735 27.3363C40.132 26.6723 40.049 26.0498 40.0075 25.3858C40.215 24.8048 40.1735 24.1823 40.1735 23.6013C40.4225 23.3108 40.547 22.7298 41.128 23.2278C41.377 24.0163 41.211 24.8463 41.2525 25.6348C41.211 26.3403 41.211 27.0458 40.3395 27.3363Z" fill="#3180B5"/>
<path d="M25.192 33.6859C25.773 33.3954 26.1465 34.0179 26.6445 34.0179C26.769 33.9349 26.935 33.9349 27.018 34.0179C28.014 34.7234 29.093 35.3044 29.923 36.2174C29.9645 36.5909 29.7155 36.7984 29.425 36.9644C29.259 37.0059 29.1345 36.9229 29.0515 36.7569C28.097 36.2174 27.433 35.3044 26.437 34.8064C26.0635 34.4329 25.607 34.0594 25.192 33.6859Z" fill="#2271A6"/>
<path d="M42.6635 43.397C46.274 43.397 49.926 43.397 53.5365 43.397C53.5365 45.6795 53.5365 45.6795 51.2955 45.6795C48.432 45.6795 45.527 45.6795 42.6635 45.6795C42.2485 44.9325 42.2485 44.1855 42.6635 43.397Z" fill="#31A4F0"/>
<path d="M42.6635 43.3969C42.6635 44.1439 42.6635 44.9324 42.6635 45.6794C42.6635 46.0529 42.622 46.4264 42.622 46.7999C42.373 46.9244 42.2485 46.7999 42.207 46.5509C42.207 40.5334 42.207 34.5159 42.207 28.4984C42.207 28.0419 42.29 27.5439 41.7505 27.2949C41.377 26.6309 41.5845 25.9254 41.543 25.2199C41.4185 24.2239 41.6675 23.2694 42.0825 22.3564C42.1655 22.1904 42.207 22.0659 42.4145 22.0659C42.4145 23.2694 42.4145 24.4314 42.4145 25.6349C42.705 25.9254 42.622 26.3404 42.7465 26.7139C42.871 27.5854 42.788 28.4984 42.788 29.3699C42.788 30.0754 42.8295 30.7809 42.788 31.4449C42.788 31.9429 42.788 32.4409 42.788 32.9389C42.788 33.6444 42.8295 34.3084 42.788 35.0139C42.788 35.4704 42.788 35.9269 42.788 36.3419C42.8295 37.0059 42.788 37.6284 42.788 38.2924C42.7465 39.2054 42.9955 40.1599 42.5805 41.0314C42.6635 41.9029 42.6635 42.6499 42.6635 43.3969Z" fill="#3079AB"/>
<path d="M42.29 46.7168C42.4145 46.7583 42.4975 46.7998 42.622 46.8413C42.622 46.8828 42.622 46.9658 42.622 47.0073C42.29 47.9203 42.539 48.8333 42.456 49.7878C42.29 50.0368 42.373 50.3273 42.373 50.5763C42.3315 51.0743 42.124 51.1158 41.7505 50.9083C41.377 50.1198 41.626 49.3313 41.5845 48.5428C41.626 47.8788 41.5015 47.1733 41.709 46.5093C42.041 46.1358 42.1655 46.4263 42.29 46.7168Z" fill="#0F77BC"/>
<path d="M40.1735 50.4104C40.132 49.9124 40.298 49.4144 40.0075 48.9579C39.883 48.1279 40.215 47.3394 40.1735 46.5094C40.1735 46.0114 40.2565 45.4719 40.0075 45.0154C40.7545 44.9739 41.0035 45.4719 41.2525 46.0114C41.1695 47.0489 41.211 48.1279 41.211 49.1654C41.211 49.3729 41.211 49.6219 41.128 49.8294C40.879 50.1199 40.63 50.4519 40.1735 50.4104Z" fill="#107FC9"/>
<path d="M41.0035 23.1034C40.63 23.1034 40.5055 23.4769 40.1735 23.6014C40.1735 23.2694 40.215 22.9374 40.0075 22.6469C39.883 21.6924 40.298 20.8209 40.3395 19.8664C40.3395 19.7419 40.3395 19.6589 40.3395 19.5344C40.547 19.4099 40.7545 19.3269 41.0035 19.2024C41.3355 19.5759 41.211 20.0739 41.211 20.5304C41.211 20.8209 41.211 21.1114 41.294 21.4019C41.377 21.8169 41.211 22.2319 41.211 22.6054C41.1695 22.8129 41.128 22.9789 41.0035 23.1034Z" fill="#3683B7"/>
<path d="M41.1695 45.8869C40.796 45.5549 40.5055 45.1814 40.049 45.0154C40.0075 44.9739 39.9245 44.9739 39.883 44.9324C38.97 44.4759 38.4305 43.4799 37.4345 43.1064C36.6875 42.6499 36.148 41.9029 35.318 41.4879C34.5295 41.4049 34.1145 40.7824 33.575 40.3259C32.7865 39.7449 32.0395 39.0809 31.168 38.5414C30.4625 38.1264 29.8815 37.5869 29.425 36.9229C29.508 36.6324 29.84 36.5494 29.9645 36.3004C30.089 36.0099 30.338 35.8854 30.5455 35.6779C30.8775 35.4704 31.168 35.2214 31.4585 34.9309C32.662 34.0179 33.8655 33.1879 35.069 32.2334C35.816 31.7354 36.397 31.0299 37.31 30.6979C37.8495 30.3659 38.3475 29.9924 38.804 29.5774C39.4265 29.2039 40.0075 28.7474 40.547 28.2494C40.879 27.7929 41.2525 27.4194 41.8335 27.2949C42.29 26.9629 42.539 26.8799 42.539 27.6269C42.4975 33.7274 42.539 39.8279 42.539 45.9284C42.539 46.1774 42.6635 46.4679 42.373 46.6754C42.207 46.5509 42.041 46.4264 41.875 46.3019C41.46 46.3849 41.3355 46.0944 41.1695 45.8869Z" fill="#171A1B"/>
<path d="M42.6635 41.1558C42.6635 40.2428 42.6635 39.3298 42.6635 38.3753C42.954 38.0848 43.369 38.1263 43.7425 38.1263C46.6475 38.1263 49.5525 38.1263 52.4575 38.1263C52.831 38.1263 53.2045 38.1263 53.5365 38.3753C53.5365 38.9978 53.495 39.6203 53.5365 40.2428C53.6195 40.9483 53.3705 41.1558 52.6235 41.1558C49.3035 41.1143 45.9835 41.1558 42.6635 41.1558Z" fill="#38A6F1"/>
<path d="M53.5365 38.3754C49.926 38.3754 46.274 38.3754 42.6635 38.3754C42.6635 37.7114 42.6635 37.0889 42.6635 36.4249C42.954 36.1344 43.369 36.1759 43.7425 36.1759C46.6475 36.1759 49.5525 36.1759 52.4575 36.1759C52.831 36.1759 53.2045 36.1759 53.5365 36.4249C53.5365 36.8399 53.5365 37.2964 53.5365 37.7114C53.5365 37.9604 53.5365 38.1679 53.5365 38.3754Z" fill="#3AA7F1"/>
<path d="M29.425 36.9228C30.0475 37.4208 30.6285 37.9188 31.251 38.4168C31.417 38.7488 31.1265 38.8318 30.919 38.9148C30.67 38.9978 30.421 38.9978 30.172 38.9978C26.603 38.9978 22.9925 38.9978 19.4235 38.9978C19.1745 38.9978 18.9255 39.0393 18.718 38.8733C18.054 38.2923 17.39 37.6698 16.7675 37.0888C20.5855 37.0888 24.4035 37.0888 28.2215 37.0888C28.5535 37.0888 28.927 37.1718 29.1345 36.7568C29.2175 36.7983 29.3005 36.8813 29.425 36.9228Z" fill="#1F8AD1"/>
<path d="M33.658 40.1599C34.1975 40.5749 34.737 41.0314 35.2765 41.4464C34.737 41.6954 34.156 41.7784 33.575 41.7784C29.7155 41.7784 25.8145 41.7784 21.955 41.7784C21.4985 41.4879 21.125 41.0729 20.793 40.6579C21.0835 40.1184 21.623 40.2429 22.0795 40.2429C25.8145 40.2014 29.508 40.2429 33.243 40.2429C33.409 40.2014 33.5335 40.2014 33.658 40.1599Z" fill="#1A87D0"/>
<path d="M40.1735 50.4104C40.464 50.2859 40.5885 49.9124 41.0035 49.9124C41.46 50.5349 41.1695 51.1989 41.2525 51.8629C41.1695 52.6929 41.46 53.5229 41.0035 54.3114C40.5885 54.3114 40.3395 54.6019 40.0075 54.8094C40.132 54.4774 40.132 54.1453 40.0075 53.8133C40.3395 53.0663 40.0905 52.2779 40.1735 51.5309C40.1735 51.1574 40.1735 50.7839 40.1735 50.4104Z" fill="#0A7BC8"/>
<path d="M41.792 58.3784C41.4185 58.5029 41.045 58.5859 40.6715 58.5444C40.6715 57.5069 40.796 56.4694 41.0035 55.4319C41.1695 55.1414 41.0035 54.8509 41.128 54.5604C41.2525 54.2284 41.5015 54.0624 41.875 54.1454C41.958 54.2699 41.9995 54.3944 42.041 54.5189C42.124 55.7639 42.041 56.9674 41.8335 58.2124C41.8335 58.2539 41.792 58.2954 41.792 58.3784Z" fill="#0474C0"/>
<path d="M41.8335 58.2125C41.543 57.9635 41.626 57.673 41.6675 57.3825C41.9165 56.428 41.7505 55.432 41.792 54.436C42.041 54.3115 42.0825 53.8965 42.456 53.938C42.456 55.0585 42.456 56.2205 42.456 57.341C42.373 57.756 42.29 58.1295 41.8335 58.2125Z" fill="#0471BA"/>
<path d="M41.792 27.295C41.377 27.6685 41.0035 28.042 40.5055 28.2495C40.4225 27.9175 40.298 27.627 40.3395 27.295C40.7545 26.8385 41.1695 26.382 41.0035 25.6765C41.211 25.386 41.377 25.054 41.8335 25.1785C41.792 25.9255 41.792 26.631 41.792 27.295Z" fill="#2E7CB1"/>
<path d="M37.2685 30.7392C36.6045 31.3202 35.899 31.9012 35.152 32.3577C34.903 32.4822 34.654 32.5652 34.3635 32.5237C32.6205 32.3577 30.836 32.4407 29.093 32.4407C28.18 32.4407 27.3915 32.2747 26.686 31.6937C26.022 31.1127 25.1505 30.9052 24.5695 30.2412C28.512 30.8637 32.4545 30.4487 36.4385 30.5732C36.6875 30.5732 36.978 30.6977 37.2685 30.7392Z" fill="#287DB6"/>
<path d="M41.1695 21.4848C40.8375 20.7378 41.0865 19.9493 41.0035 19.2023C41.0865 18.7458 40.7545 18.2063 41.3355 17.9158C41.46 18.3308 41.875 18.5798 41.8335 19.0363C42.2485 20.0323 41.5845 20.7378 41.1695 21.4848Z" fill="#3882B3"/>
<path d="M26.6445 31.6938C27.765 32.3163 28.9685 32.1503 30.2135 32.1918C31.8735 32.1918 33.492 32.1088 35.152 32.3578C34.156 33.1878 33.16 34.0594 31.998 34.6819C31.832 34.7649 31.666 34.9724 31.5 35.0969C31.3755 35.2214 31.2095 35.2214 31.0435 35.1384C30.3795 34.6404 29.591 34.3499 29.093 33.6444C28.429 32.8559 27.35 32.5238 26.6445 31.6938Z" fill="#267BB5"/>
<path d="M29.093 33.6442C29.923 34.0592 30.5455 34.8062 31.4585 35.0967C31.2095 35.3872 30.919 35.6362 30.587 35.7607C30.3795 35.8437 30.2135 35.7607 30.0475 35.6362C29.1345 35.0137 28.263 34.3912 27.433 33.6442C27.3915 33.5197 27.3085 33.4367 27.267 33.3122C27.931 33.2292 28.4705 33.6442 29.093 33.6442Z" fill="#2377B0"/>
<path d="M41.792 54.1454C41.211 54.3944 41.1695 54.9754 40.962 55.4319C40.962 55.0584 40.962 54.6849 40.962 54.3114C40.962 53.4814 40.962 52.6929 40.962 51.8629C41.128 51.6139 41.211 51.3649 41.46 51.1574C41.6675 50.9914 41.8335 50.9499 41.958 51.2404C42.041 52.2364 42.2485 53.1909 41.792 54.1454Z" fill="#0877C1"/>
<path d="M27.4745 33.6445C28.678 34.1425 29.4665 35.18 30.587 35.761C30.421 35.9685 30.2135 36.176 29.923 36.259C28.8025 35.5535 27.8065 34.599 26.6445 33.9765C26.271 33.6445 25.8975 33.3125 25.524 33.022C26.2295 33.022 26.8105 33.52 27.4745 33.6445Z" fill="#2374AB"/>
<path d="M33.658 40.16C33.5335 40.658 33.16 40.4505 32.8695 40.4505C29.176 40.4505 25.524 40.4505 21.8305 40.4505C21.4985 40.4505 21.125 40.409 20.793 40.6165C20.2535 40.492 20.0045 39.994 19.631 39.662C19.3405 39.413 19.05 39.1225 18.6765 38.9565C18.6765 38.915 18.6765 38.8735 18.6765 38.7905C19.0915 38.666 19.5065 38.6245 19.963 38.6245C23.449 38.6245 26.935 38.6245 30.421 38.6245C30.7115 38.6245 31.085 38.7905 31.2095 38.334C32.1225 38.8735 32.8695 39.5375 33.658 40.16Z" fill="#1B88D1"/>
<path d="M42.6635 29.4527C42.6635 28.5397 42.622 27.6267 42.622 26.6722C42.539 26.5062 42.5805 26.3402 42.7465 26.2572C43.0785 26.0912 43.4105 26.0912 43.784 26.0912C46.6475 26.0912 49.5525 26.0912 52.416 26.0912C52.831 26.0912 53.246 26.0497 53.578 26.3402C53.578 27.3777 53.578 28.4152 53.578 29.4112C53.2875 29.7017 52.8725 29.6602 52.499 29.6602C49.594 29.6602 46.689 29.6602 43.784 29.6602C43.369 29.7017 42.954 29.7432 42.6635 29.4527Z" fill="#46ADF2"/>
<path d="M42.6635 29.4529C46.274 29.4529 49.926 29.4529 53.5365 29.4529C53.5365 30.1584 53.5365 30.8639 53.5365 31.5694C53.246 31.8599 52.831 31.8184 52.4575 31.8184C49.5525 31.8184 46.6475 31.8184 43.7425 31.8184C43.369 31.8184 42.9955 31.8599 42.6635 31.5694C42.6635 30.8639 42.6635 30.1584 42.6635 29.4529Z" fill="#43ABF1"/>
<path d="M53.5365 26.3404C49.8845 26.3404 46.274 26.3404 42.622 26.3404C42.4975 26.1329 42.539 25.9254 42.5805 25.6764C42.5805 25.3029 42.622 24.9294 42.622 24.5559C46.274 24.5559 49.8845 24.5559 53.5365 24.5559C53.5365 24.9709 53.5365 25.4274 53.5365 25.8424C53.5365 26.0084 53.5365 26.1744 53.5365 26.3404Z" fill="#49AEF2"/>
<path d="M42.6635 31.5278C46.274 31.5278 49.926 31.5278 53.5365 31.5278C53.5365 31.8183 53.5365 32.0673 53.5365 32.3578C53.5365 32.5653 53.5365 32.7728 53.5365 33.0218C53.246 33.3123 52.831 33.2708 52.4575 33.2708C49.5525 33.2708 46.6475 33.2708 43.7425 33.2708C43.369 33.2708 42.9955 33.3123 42.6635 33.0218C42.6635 32.5238 42.6635 32.0258 42.6635 31.5278Z" fill="#41AAF1"/>
<path d="M42.6635 33.022C46.274 33.022 49.926 33.022 53.5365 33.022C53.5365 33.7275 53.5365 34.433 53.5365 35.1385C53.246 35.429 52.831 35.3875 52.4575 35.3875C49.5525 35.3875 46.6475 35.3875 43.7425 35.3875C43.369 35.3875 42.9955 35.429 42.6635 35.1385C42.6635 34.433 42.6635 33.7275 42.6635 33.022Z" fill="#3FA9F1"/>
<path d="M42.6635 35.1384C46.274 35.1384 49.926 35.1384 53.5365 35.1384C53.5365 35.5534 53.5365 36.0099 53.5365 36.4249C49.926 36.4249 46.274 36.4249 42.6635 36.4249C42.6635 36.0099 42.6635 35.5534 42.6635 35.1384Z" fill="#3CA8F1"/>
<path d="M41.792 54.1453C41.792 53.1078 41.792 52.0703 41.792 51.0743C41.7505 51.0328 41.7505 50.9913 41.7505 50.9498C41.7505 50.9083 41.792 50.9083 41.792 50.9083C42.124 50.9498 42.29 50.7838 42.29 50.4518C42.29 50.2028 42.207 49.9538 42.456 49.7878C42.456 51.1988 42.456 52.6098 42.456 54.0208C42.2485 54.2283 42.207 54.6018 41.792 54.5188C41.792 54.3528 41.792 54.2698 41.792 54.1453Z" fill="#0973BB"/>
<path d="M41.792 25.2198C41.5015 25.3858 41.2525 25.5518 40.962 25.7178C40.962 24.8463 40.962 23.9748 40.962 23.1033C40.962 22.9373 40.962 22.7713 40.962 22.6053C41.5015 22.2318 41.7505 21.5263 42.4145 21.3188C42.4145 21.6093 42.4145 21.8583 42.4145 22.1488C42.124 23.1448 41.626 24.0993 41.792 25.2198Z" fill="#337EB1"/>
<path d="M42.456 21.3189C41.958 21.7754 41.792 22.5224 41.0035 22.6054C41.045 22.2319 41.128 21.8584 41.1695 21.4849C41.2525 20.6549 41.958 19.9494 41.8335 19.0364C42.29 18.9949 42.539 19.1194 42.4975 19.6589C42.4145 20.1984 42.456 20.7379 42.456 21.3189Z" fill="#3680B2"/>
<path d="M42.5805 25.7179C42.5805 25.9254 42.622 26.1329 42.622 26.3819C42.622 26.5064 42.622 26.5894 42.5805 26.7139C42.3315 26.4234 42.4975 26.0499 42.456 25.7594C42.4975 25.6764 42.539 25.6764 42.5805 25.7179Z" fill="#3680B2"/>
<path d="M41.1695 45.8867C41.46 45.9697 41.626 46.1357 41.8335 46.3432C41.8335 47.0487 41.8335 47.7542 41.8335 48.4597C41.626 48.7917 41.5845 49.2897 41.0035 49.2897C41.045 48.1277 40.8375 47.0072 41.1695 45.8867Z" fill="#107BC3"/>
<path d="M41.0035 49.2482C41.294 48.9577 41.543 48.7087 41.8335 48.4182C41.8335 49.2482 41.8335 50.0367 41.8335 50.8667C41.8335 50.9082 41.8335 50.9912 41.8335 51.0327C41.543 51.2817 41.377 51.6967 41.0035 51.8627C41.0035 51.1987 41.0035 50.5762 41.0035 49.9122C41.0035 49.7047 41.0035 49.4972 41.0035 49.2482Z" fill="#0D79C2"/>
</svg>
