<svg width="53" height="37" viewBox="0 0 53 37" fill="none" xmlns="http://www.w3.org/2000/svg">
<path d="M0.0486569 1.00002C-0.24825 -0.484509 0.885394 0.163287 1.5062 0.0283295C3.28764 0.325236 5.09607 0.433202 6.66158 1.56685C9.81958 3.86112 11.763 6.83019 12.0329 10.717C12.2758 14.5498 12.5457 18.4096 12.5997 22.2154C14.2732 17.8967 15.9197 13.4971 17.6741 9.17845C19.0237 5.8585 21.129 3.02439 24.287 1.13498C25.5286 0.37922 26.9052 0.406211 28.2548 0.190279C28.5247 0.136296 28.8216 0.271254 29.0645 0.0553217C29.6314 0.0553217 30.1982 0.0553217 30.765 0.0553217C31.1429 0.352228 31.4938 0.649135 31.5747 1.18897C32.4385 8.17977 33.4102 15.1706 34.1929 22.1614C34.1929 22.2423 34.1929 22.3233 34.1929 22.1884C35.2186 19.0304 36.2713 15.6834 37.3509 12.3365C37.8908 10.717 38.4846 9.12447 39.2403 7.58595C40.212 5.56159 41.6696 3.96909 43.2891 2.45757C45.1785 0.676126 47.4727 0.109304 49.983 0.136296C50.4148 0.082313 50.8737 0.271254 51.2785 0.00133843C51.5215 0.00133843 51.7644 0.00133843 52.0073 0.00133843C52.0613 1.67481 51.4135 3.15935 50.7927 4.67087C47.8506 11.7966 44.9895 18.9764 42.1014 26.1291C40.8328 29.2601 38.9434 31.9323 36.2443 34.0646C33.7611 36.008 30.9 36.17 27.9579 36.197C27.1481 36.197 26.9052 35.5762 26.7972 34.8744C26.3114 31.4195 25.8256 27.9645 25.3127 24.5096C24.8809 21.6215 24.557 18.7065 24.0981 15.7374C22.6406 19.4082 21.345 23.0791 19.8334 26.669C18.2949 30.3398 15.9467 33.4168 12.2488 35.2523C10.3324 36.197 8.25408 36.17 6.17573 36.197C5.25802 36.197 5.15005 35.3872 5.06908 34.7124C4.47526 30.8526 3.77349 27.0198 3.17967 23.187C2.34294 17.8427 1.37124 12.5524 0.588487 7.20807C0.318572 5.15672 0.399547 3.05138 0.0486569 1.00002Z" fill="#F6F0ED"/>
<path d="M50.0369 0.244117C50.0369 0.163142 50.0639 0.109159 50.0909 0.0551758C50.4958 0.0551758 50.9007 0.0551758 51.3055 0.0551758C50.9277 0.271108 50.4958 0.325091 50.0369 0.244117Z" fill="#F6F0ED"/>
</svg>
