<svg width="59" height="59" viewBox="0 0 59 59" fill="none" xmlns="http://www.w3.org/2000/svg">
<path d="M31.7425 0.250029C32.36 0.510029 33.0425 0.445029 33.66 0.542529C44.905 2.23253 54.135 9.93503 57.32 20.8225C60.4725 31.515 58.23 41.1675 50.69 49.4225C46.075 54.5575 40.225 57.58 33.4 58.3925C23.0325 59.66 14.2575 56.3125 7.335 48.48C3.5325 44.19 1.3225 39.0875 0.51 33.4C0.445 32.88 0.51 32.36 0.25 31.8725C0.25 31.71 0.25 31.58 0.25 31.4175C0.315 31.3525 0.315 31.255 0.25 31.19C0.25 30.995 0.25 30.8 0.25 30.605C0.3475 30.345 0.3475 30.085 0.25 29.7925C0.25 29.565 0.25 29.3375 0.25 29.11C0.3475 28.85 0.3475 28.59 0.25 28.2975C0.25 28.1025 0.25 27.9075 0.25 27.7125C0.315 27.6475 0.315 27.55 0.25 27.485C0.25 27.3225 0.25 27.1925 0.25 27.03C0.4125 26.1525 0.38 25.21 0.5425 24.3325C1.4525 19.23 3.565 14.68 6.88 10.6825C9.415 7.66003 12.405 5.19003 15.915 3.37003C18.905 1.81003 22.09 0.802529 25.4375 0.347529C26.0225 0.282529 26.6075 0.315029 27.1925 0.217529C27.3225 0.217529 27.42 0.217529 27.55 0.217529C27.615 0.282529 27.7125 0.282529 27.7775 0.217529C27.9725 0.217529 28.1675 0.217529 28.3625 0.217529C28.6225 0.315029 28.8825 0.315029 29.175 0.217529C29.4025 0.217529 29.63 0.217529 29.8575 0.217529C30.1175 0.315029 30.3775 0.315029 30.67 0.217529C30.865 0.217529 31.06 0.217529 31.255 0.217529C31.32 0.282529 31.4175 0.282529 31.4825 0.217529C31.515 0.250029 31.645 0.250029 31.7425 0.250029Z" fill="#00769C"/>
<path d="M29.1425 0.25C28.8825 0.412499 28.6225 0.444999 28.33 0.25C28.59 0.25 28.85 0.25 29.1425 0.25Z" fill="#288BAC"/>
<path d="M30.605 0.25C30.345 0.444999 30.085 0.412499 29.7925 0.25C30.085 0.25 30.345 0.25 30.605 0.25Z" fill="#288BAC"/>
<path d="M0.25 28.3301C0.444999 28.5901 0.412499 28.8501 0.25 29.1426C0.25 28.8501 0.25 28.5901 0.25 28.3301Z" fill="#288BAC"/>
<path d="M0.25 29.825C0.412499 30.085 0.444999 30.345 0.25 30.6375C0.25 30.345 0.25 30.085 0.25 29.825Z" fill="#288BAC"/>
<path d="M27.745 0.25C27.68 0.38 27.5825 0.4125 27.5175 0.25C27.615 0.25 27.68 0.25 27.745 0.25Z" fill="#8CC1D2"/>
<path d="M31.4175 0.25C31.3525 0.4125 31.255 0.38 31.19 0.25C31.255 0.25 31.32 0.25 31.4175 0.25Z" fill="#8CC1D2"/>
<path d="M0.25 27.5176C0.4125 27.5826 0.38 27.6801 0.25 27.7451C0.25 27.6801 0.25 27.6151 0.25 27.5176Z" fill="#8CC1D2"/>
<path d="M0.25 31.1899C0.38 31.2549 0.4125 31.3524 0.25 31.4174C0.25 31.3199 0.25 31.2549 0.25 31.1899Z" fill="#8CC1D2"/>
<path d="M29.4675 2.33008C44.4175 2.33008 56.6375 14.5501 56.6375 29.5001C56.605 44.4501 44.45 56.6376 29.5 56.6376C14.55 56.6376 2.33002 44.4176 2.33002 29.4676C2.33002 14.4851 14.5175 2.33008 29.4675 2.33008Z" fill="#FEFEFE"/>
<path d="M46.1725 11.6577C44.84 11.6902 43.67 12.0152 42.7275 12.8602C41.6875 13.8027 41.1675 14.9402 41.1675 16.3377C41.1675 16.8252 41.3625 17.2477 41.655 17.6377C42.435 18.7752 43.2475 19.8802 43.9625 21.0502C45.88 24.1702 46.205 27.5827 45.425 31.0927C44.775 33.9852 43.605 36.7152 42.695 39.5427C42.305 40.7127 41.8825 41.8502 41.4275 43.1177C40.7775 41.2977 40.16 39.6077 39.575 37.8852C37.3325 31.5477 35.09 25.2102 32.8475 18.9052C32.62 18.2877 32.62 18.2877 33.3025 18.2877C34.115 18.2877 34.9275 18.2877 35.74 18.2877C36.065 18.2877 36.1625 18.1902 36.1625 17.8652C36.0975 17.2152 36.4225 16.4027 36.0325 16.0127C35.675 15.6552 34.8625 15.9152 34.2775 15.9152C30.085 15.9152 25.86 15.9152 21.6675 15.9152C21.18 15.9152 21.0175 16.0452 21.0825 16.5327C21.1475 17.1177 20.8225 17.8977 21.2125 18.2227C21.5375 18.5152 22.285 18.3202 22.87 18.3202C23.39 18.3202 24.04 18.1577 24.43 18.3852C24.8525 18.6452 24.885 19.3602 25.0475 19.8802C26.0875 22.8052 27.1275 25.7302 28.1675 28.6877C28.265 28.9477 28.33 29.1752 28.2325 29.4677C26.6725 33.9527 25.08 38.4052 23.52 42.8902C23.4875 42.9552 23.455 43.0202 23.39 43.1827C22.805 41.5577 22.2525 39.9977 21.7 38.4377C19.3925 31.9377 17.1175 25.4702 14.81 18.9702C14.5825 18.3527 14.5825 18.3527 15.265 18.3527C15.98 18.3527 16.695 18.3527 17.4425 18.3527C17.7675 18.3527 17.865 18.2552 17.865 17.9302C17.8 17.2802 18.125 16.4677 17.735 16.0777C17.3775 15.7202 16.565 15.9802 15.98 15.9802C13.9325 15.9802 11.9175 15.9802 9.87 15.9802C9.675 15.9802 9.5125 15.9802 9.285 15.9802C16.76 4.0852 34.4075 0.802694 46.1725 11.6577Z" fill="#00769C"/>
<path d="M29.5325 32.6526C30.2475 34.7001 30.9625 36.7151 31.6775 38.6976C33.27 43.2476 34.895 47.7651 36.52 52.3151C36.65 52.7051 36.6175 52.8351 36.195 52.9651C31.58 54.2326 26.965 54.2001 22.3825 52.8351C22.09 52.7376 21.9275 52.7051 22.09 52.3151C24.56 45.8476 26.965 39.4126 29.435 32.9451C29.435 32.8801 29.4675 32.8151 29.5325 32.6526Z" fill="#00769C"/>
<path d="M50.8525 17.7351C53.55 22.5451 54.4925 27.7451 53.615 33.1726C52.3475 41.1026 48.025 46.9851 41.005 50.9501C41.5575 49.4226 42.0775 47.8951 42.63 46.3676C45.0675 39.5751 47.505 32.7826 49.91 25.9576C50.885 23.2926 51.1125 20.5301 50.8525 17.7351Z" fill="#00769C"/>
<path d="M6.97748 20.01C7.26998 20.66 17.8 50.4625 17.93 50.95C7.20498 45.49 1.90748 31.8075 6.97748 20.01Z" fill="#00769C"/>
</svg>
