<svg width="61" height="59" viewBox="0 0 61 59" fill="none" xmlns="http://www.w3.org/2000/svg">
<path d="M30.137 0C36.5697 0 43.0906 0 49.5233 0C52.6956 0 55.3392 1.14556 57.4541 3.52479C59.1284 5.28719 60.0096 7.49019 60.1858 9.86942C60.1858 10.3981 60.274 11.015 60.274 11.5437C60.274 23.7042 60.274 35.7766 60.274 47.9372C60.274 50.4045 59.569 52.6957 57.9828 54.7224C56.2204 56.9254 54.0174 58.2472 51.1976 58.6878C50.5808 58.7759 49.9639 58.864 49.3471 58.864C36.5697 58.864 23.7042 58.864 10.9269 58.864C7.66642 58.864 4.84659 57.6304 2.64359 55.163C1.23368 53.5769 0.35248 51.6382 0.0881201 49.4352C3.34837e-07 48.9946 0 48.554 0 48.1134C0 35.6885 0 23.2636 0 10.7506C0 7.66643 1.14556 5.02283 3.34855 2.90796C5.02283 1.3218 7.04959 0.352485 9.42882 0.0881252C9.95754 5.37709e-06 10.3981 0 10.9269 0C17.2715 0 23.7042 0 30.137 0Z" fill="#FF26BE"/>
<path d="M30.137 2.46729C36.2172 2.46729 42.2975 2.46729 48.3778 2.46729C50.5808 2.46729 52.5194 3.08412 54.1937 4.40592C56.2204 5.99208 57.366 8.10696 57.6304 10.6624C57.6304 11.0149 57.7185 11.3674 57.7185 11.6317C57.7185 23.4398 57.7185 35.2479 57.7185 47.0559C57.7185 49.6995 56.7492 51.9906 54.8105 53.753C53.1362 55.3392 51.1095 56.1323 48.8184 56.2204C47.6728 56.2204 46.6154 56.2204 45.4698 56.2204C34.2786 56.2204 23.0874 56.2204 11.8962 56.2204C9.69318 56.2204 7.75454 55.6035 6.08026 54.2817C4.05351 52.6075 2.90795 50.4926 2.64359 47.849C2.64359 47.4084 2.55547 46.9678 2.55547 46.6153C2.55547 35.0716 2.55547 23.4398 2.55547 11.8961C2.55547 9.78123 3.08419 7.93072 4.40599 6.25644C6.08027 4.05344 8.28326 2.81976 11.1031 2.64352C11.4556 2.64352 11.8962 2.64352 12.2487 2.64352C18.1527 2.46728 24.1448 2.46729 30.137 2.46729Z" fill="#2E001F"/>
<path d="M43.4431 21.149C43.5312 20.9727 43.4431 20.7965 43.4431 20.6203C43.4431 18.6816 43.4431 16.743 43.4431 14.8925C43.4431 14.8044 43.4431 14.7162 43.4431 14.6281C43.4431 14.4519 43.5312 14.3638 43.7074 14.2756C45.0292 14.2756 46.351 14.2756 47.5847 14.2756C47.7609 14.2756 47.8491 14.3638 47.8491 14.54C47.8491 14.6281 47.8491 14.8044 47.8491 14.8925C47.8491 22.2064 47.8491 29.5204 47.8491 36.8343C47.8491 37.8036 47.8491 38.7729 47.9372 39.7423C48.0253 40.0947 47.9372 40.0947 47.5847 40.271C45.9985 40.9759 44.2361 41.5047 42.4738 41.5928C41.0638 41.6809 39.742 41.6809 38.3321 41.2403C35.6004 40.5353 33.6618 38.7729 32.6925 36.1293C31.635 33.1333 31.5469 30.0491 32.6925 27.053C34.0143 23.7045 36.4816 21.7658 40.0945 21.149C41.3282 21.149 42.2975 21.149 43.4431 21.149Z" fill="#FFD9F2"/>
<path d="M21.1488 24.5857C21.2369 24.4975 21.325 24.3213 21.325 24.2332C22.7349 21.0609 24.1448 17.9767 25.6429 14.8925C25.731 14.8044 25.731 14.7162 25.8191 14.54C25.9072 14.3638 26.0835 14.2756 26.2597 14.2756C27.5815 14.2756 28.8152 14.2756 30.137 14.2756C30.4895 14.2756 30.4895 14.3638 30.4013 14.7162C30.3132 14.8044 30.3132 14.8925 30.2251 15.0687C28.1102 19.1222 26.0835 23.0876 23.9686 27.1411C23.7923 27.4055 23.7923 27.6698 23.9686 27.9342C26.1716 32.2521 28.4627 36.4818 30.6657 40.7997C30.7538 40.8878 30.7538 41.0641 30.8419 41.1522C30.9301 41.3284 30.8419 41.4165 30.6657 41.5047C30.5776 41.5047 30.4895 41.5047 30.4013 41.5047C29.1677 41.5047 27.8459 41.5047 26.6122 41.5047C26.1716 41.5047 25.9072 41.3284 25.731 40.9759C24.2329 37.8036 22.6468 34.6313 21.1488 31.459C21.0606 31.2828 21.0606 31.1065 20.8844 31.0184C20.7963 31.1065 20.7082 31.2828 20.7082 31.3709C19.2982 34.5432 17.8002 37.7155 16.3022 40.7997C16.3022 40.8878 16.214 40.8878 16.214 40.9759C16.1259 41.3284 15.8616 41.4165 15.5091 41.4165C15.1566 41.4165 14.716 41.4165 14.3635 41.4165C13.5705 41.4165 12.6893 41.4165 11.8962 41.4165C11.8081 41.4165 11.6318 41.4165 11.5437 41.4165C11.3675 41.4165 11.3675 41.3284 11.3675 41.1522C11.3675 41.0641 11.4556 40.9759 11.5437 40.7997C13.7467 36.6581 15.8616 32.5164 18.0646 28.3748C18.2408 28.0223 18.2408 27.8461 18.0646 27.4936C15.9497 23.2639 13.8348 19.1222 11.7199 14.8925C11.4556 14.3638 11.4556 14.2756 12.0724 14.2756C13.3061 14.2756 14.5398 14.2756 15.7734 14.2756C16.1259 14.2756 16.3903 14.4519 16.5665 14.8044C18.0646 17.9767 19.5626 21.0609 20.9725 24.2332C20.9725 24.3213 21.0606 24.4975 21.1488 24.5857Z" fill="#FFD9F2"/>
<path d="M43.4431 31.3706C43.4431 33.3093 43.4431 35.2479 43.4431 37.1865C43.4431 37.6271 43.4431 37.6271 43.0025 37.7153C41.945 37.9796 40.9757 37.8915 39.9183 37.6271C38.7727 37.2747 37.9796 36.4816 37.3628 35.4241C36.9222 34.6311 36.6578 33.7499 36.5697 32.7806C36.3935 31.3706 36.4816 29.9607 36.9222 28.6389C37.3628 27.1409 38.244 25.9953 39.742 25.2904C40.7995 24.8498 41.8569 24.7616 42.9143 24.9379C43.3549 25.026 43.3549 25.026 43.3549 25.4666C43.4431 27.4934 43.4431 29.432 43.4431 31.3706Z" fill="#2E001F"/>
</svg>
